<?xml version="1.0" encoding="UTF-8" standalone="no"?>
<!-- Created with Inkscape (http://www.inkscape.org/) -->

<svg
   xmlns:dc="http://purl.org/dc/elements/1.1/"
   xmlns:cc="http://creativecommons.org/ns#"
   xmlns:rdf="http://www.w3.org/1999/02/22-rdf-syntax-ns#"
   xmlns:svg="http://www.w3.org/2000/svg"
   xmlns="http://www.w3.org/2000/svg"
   xmlns:sodipodi="http://sodipodi.sourceforge.net/DTD/sodipodi-0.dtd"
   xmlns:inkscape="http://www.inkscape.org/namespaces/inkscape"
   id="svg3004"
   version="1.1"
   inkscape:version="0.48.4 r9939"
   width="237.83504"
   height="202.8615"
   xml:space="preserve"
   sodipodi:docname="CCK - Gather tools and wireless equipment.pdf"><metadata
     id="metadata3010"><rdf:RDF><cc:Work
         rdf:about=""><dc:format>image/svg+xml</dc:format><dc:type
           rdf:resource="http://purl.org/dc/dcmitype/StillImage" /><dc:title></dc:title></cc:Work></rdf:RDF></metadata><defs
     id="defs3008"><clipPath
       clipPathUnits="userSpaceOnUse"
       id="clipPath3020"><path
         d="M 0,792 612,792 612,0 0,0 0,792 z"
         id="path3022"
         inkscape:connector-curvature="0" /></clipPath><clipPath
       clipPathUnits="userSpaceOnUse"
       id="clipPath3058"><path
         d="M 0,792 612,792 612,0 0,0 0,792 z"
         id="path3060"
         inkscape:connector-curvature="0" /></clipPath><clipPath
       clipPathUnits="userSpaceOnUse"
       id="clipPath3514"><path
         d="m 58.56,445.549 81.245,0 0,64.678 -81.245,0 0,-64.678 z"
         id="path3516"
         inkscape:connector-curvature="0" /></clipPath><clipPath
       clipPathUnits="userSpaceOnUse"
       id="clipPath3526"><path
         d="m 52.7,364.072 96.779,0 0,47.114 -96.779,0 0,-47.114 z"
         id="path3528"
         inkscape:connector-curvature="0" /></clipPath><clipPath
       clipPathUnits="userSpaceOnUse"
       id="clipPath3538"><path
         d="m 37.426,521.7 132.254,0 0,90.72 -132.254,0 0,-90.72 z"
         id="path3540"
         inkscape:connector-curvature="0" /></clipPath><clipPath
       clipPathUnits="userSpaceOnUse"
       id="clipPath3578"><path
         d="m 37,252.82 131.68,0 0,89.78 -131.68,0 0,-89.78 z"
         id="path3580"
         inkscape:connector-curvature="0" /></clipPath><clipPath
       clipPathUnits="userSpaceOnUse"
       id="clipPath3590"><path
         d="m 65.4,175.884 76.617,0 0,64.856 -76.617,0 0,-64.856 z"
         id="path3592"
         inkscape:connector-curvature="0" /></clipPath></defs><sodipodi:namedview
     pagecolor="#ffffff"
     bordercolor="#666666"
     borderopacity="1"
     objecttolerance="10"
     gridtolerance="10"
     guidetolerance="10"
     inkscape:pageopacity="0"
     inkscape:pageshadow="2"
     inkscape:window-width="2560"
     inkscape:window-height="1415"
     id="namedview3006"
     showgrid="false"
     fit-margin-top="5"
     fit-margin-left="5"
     fit-margin-right="5"
     fit-margin-bottom="5"
     inkscape:zoom="1"
     inkscape:cx="134.69212"
     inkscape:cy="82.144991"
     inkscape:window-x="1920"
     inkscape:window-y="0"
     inkscape:window-maximized="1"
     inkscape:current-layer="g3012" /><g
     id="g3012"
     inkscape:groupmode="layer"
     inkscape:label="CCK - Gather tools and wireless equipment"
     transform="matrix(1.25,0,0,-1.25,-247.80788,615.7165)"><g
       id="g3586"
       transform="matrix(2.3789502,0,0,2.3789502,46.662957,-84.13527)"><g
         id="g3588"
         clip-path="url(#clipPath3590)"><path
           d="m 74.393,192.807 3.832,0 0,18.417 -3.832,0 0,-18.417 z m 63.268,-9.949 c -0.041,0.005 -3.27,0.372 -5.897,-1.68 -2.631,-2.055 -2.861,-5.182 -2.863,-5.213 -0.002,-0.028 -0.009,-0.053 -0.013,-0.081 l 8.143,0 c 0.516,0 0.935,0.419 0.935,0.936 l -0.001,6.053 c -0.097,-0.02 -0.198,-0.028 -0.304,-0.015 m -14.709,4.435 -26.224,-0.693 c -0.009,0 -0.016,0 -0.025,0 -3.281,0 -5.95,2.669 -5.95,5.951 0,3.28 2.669,5.949 5.95,5.949 l 26.224,0.693 c 3.306,10e-4 5.976,-2.668 5.976,-5.949 0,-3.281 -2.67,-5.951 -5.951,-5.951 m -26.645,36.503 c 3.612,0.634 19.903,10.072 21.767,11.156 2.763,1.692 7.219,4.033 8.466,3.917 0.816,-0.072 1.481,-0.449 1.945,-0.812 -4.84,-2.908 -24.77,-14.901 -27.305,-16.687 -2.85,-2.008 -3.415,-2.518 -5.52,-4.984 -0.665,-0.84 -1.63,-2.175 -2.368,-3.213 l -3.691,10.88 c 1.588,-0.317 4.253,-0.687 6.706,-0.257 M 80.096,191.872 c 0,-0.517 -0.419,-0.936 -0.936,-0.936 l -5.703,0 c -0.516,0 -0.935,0.419 -0.935,0.936 l 0,20.288 c 0,0.516 0.419,0.935 0.935,0.935 l 5.703,0 c 0.517,0 0.936,-0.419 0.936,-0.935 l 0,-20.288 z m 61.221,16.418 c -0.998,1.094 -2.703,1.173 -3.828,0.146 l -3.299,-3.294 c -0.393,0.451 -0.684,0.651 -0.798,0.718 -0.114,0.067 -0.241,0.109 -0.371,0.124 l -26.178,2.897 c -0.295,0.032 -0.583,-0.075 -0.785,-0.289 -0.019,-0.021 -1.918,-2.004 -5.282,-2.004 -0.504,0 -1.023,0.046 -1.543,0.135 -3.411,0.592 -4.774,3.2 -5.195,4.263 0.623,0.887 2.173,3.082 3.067,4.212 1.924,2.254 2.335,2.657 5.152,4.642 2.771,1.953 27.958,17.075 28.213,17.227 0.223,0.135 0.381,0.356 0.434,0.612 0.053,0.255 -0.003,0.521 -0.155,0.734 -0.061,0.085 -1.525,2.098 -4.044,2.32 -2.312,0.196 -8.409,-3.451 -9.59,-4.174 -4.936,-2.872 -18.353,-10.432 -21.131,-10.92 -2.868,-0.503 -6.239,0.275 -7.088,0.492 l -0.467,1.377 c -0.052,0.186 -1.359,4.565 -9.549,4.565 -6.948,0 -9.744,-3.205 -10.067,-3.606 -0.38,-0.436 -3.672,-4.538 -3.397,-15.49 0.278,-10.986 0.281,-35.907 0.281,-36.157 0,-0.517 0.419,-0.936 0.936,-0.936 l 60.411,0 c -0.01,0.066 -0.014,0.132 -0.01,0.2 0.01,0.163 0.292,4.003 3.578,6.568 3.262,2.548 7.125,2.084 7.287,2.062 0.023,-0.003 0.044,-0.011 0.066,-0.015 l 0,0.023 c 0.019,0.408 0.458,10.039 -1.07,14.909 -0.23,0.732 -0.462,1.371 -0.693,1.945 l 4.783,2.8 c 0.057,0.033 0.109,0.072 0.158,0.116 1.095,0.998 1.173,2.701 0.174,3.798"
           style="fill:#100f0d;fill-opacity:1;fill-rule:nonzero;stroke:none"
           id="path3594"
           inkscape:connector-curvature="0" /></g></g></g></svg>