<?xml version="1.0" encoding="UTF-8" standalone="no"?>
<!-- Created with Inkscape (http://www.inkscape.org/) -->

<svg
   xmlns:dc="http://purl.org/dc/elements/1.1/"
   xmlns:cc="http://creativecommons.org/ns#"
   xmlns:rdf="http://www.w3.org/1999/02/22-rdf-syntax-ns#"
   xmlns:svg="http://www.w3.org/2000/svg"
   xmlns="http://www.w3.org/2000/svg"
   xmlns:sodipodi="http://sodipodi.sourceforge.net/DTD/sodipodi-0.dtd"
   xmlns:inkscape="http://www.inkscape.org/namespaces/inkscape"
   width="291.85669"
   height="160.97549"
   id="svg4090"
   version="1.1"
   inkscape:version="0.48.4 r9939"
   sodipodi:docname="New document 11">
  <defs
     id="defs4092">
    <clipPath
       clipPathUnits="userSpaceOnUse"
       id="clipPath3860">
      <path
         inkscape:connector-curvature="0"
         d="m 36.225,333.26 131.68,0 0,83.939 -131.68,0 0,-83.939 z"
         id="path3862" />
    </clipPath>
  </defs>
  <sodipodi:namedview
     id="base"
     pagecolor="#ffffff"
     bordercolor="#666666"
     borderopacity="1.0"
     inkscape:pageopacity="0.0"
     inkscape:pageshadow="2"
     inkscape:zoom="1"
     inkscape:cx="161.5867"
     inkscape:cy="73.487784"
     inkscape:document-units="px"
     inkscape:current-layer="layer1"
     showgrid="false"
     fit-margin-top="5"
     fit-margin-left="5"
     fit-margin-right="5"
     fit-margin-bottom="5"
     inkscape:window-width="2560"
     inkscape:window-height="1415"
     inkscape:window-x="1920"
     inkscape:window-y="0"
     inkscape:window-maximized="1" />
  <metadata
     id="metadata4095">
    <rdf:RDF>
      <cc:Work
         rdf:about="">
        <dc:format>image/svg+xml</dc:format>
        <dc:type
           rdf:resource="http://purl.org/dc/dcmitype/StillImage" />
        <dc:title></dc:title>
      </cc:Work>
    </rdf:RDF>
  </metadata>
  <g
     inkscape:label="Layer 1"
     inkscape:groupmode="layer"
     id="layer1"
     transform="translate(-213.4133,-444.87447)">
    <g
       id="g3848"
       transform="matrix(3.8066419,0,0,-3.8066419,495.70964,492.75629)">
      <path
         d="m 0,0 -0.386,11.265 -0.814,0 -0.403,0 -0.814,0 L -2.803,0 l -1.199,-3.934 0,-3.799 0,-20.663 2.399,0 0.403,0 2.398,0 0,20.663 0,3.799 L 0,0 z"
         style="fill:#211d1d;fill-opacity:1;fill-rule:nonzero;stroke:none"
         id="path3850"
         inkscape:connector-curvature="0" />
    </g>
    <g
       id="g3852"
       transform="matrix(3.8066419,0,0,-3.8066419,430.19733,449.87598)">
      <path
         d="M 0,0 -0.636,0 -1.2,0 -1.604,0 -2.17,0 l -0.647,0 -1.186,-11.265 0,-3.933 0,-3.799 0,-20.663 2.399,0 0.404,0 2.399,0 0,20.663 0,3.799 0,3.935 L 0,0 z"
         style="fill:#211d1d;fill-opacity:1;fill-rule:nonzero;stroke:none"
         id="path3854"
         inkscape:connector-curvature="0" />
    </g>
    <g
       id="g3856"
       transform="matrix(3.8066419,0,0,-3.8066419,-29.182493,1942.6132)">
      <g
         id="g3858"
         clip-path="url(#clipPath3860)">
        <g
           id="g3864"
           transform="translate(104.6658,382.4087)">
          <path
             d="m 0,0 c -0.251,3.298 -0.706,8.039 -2.398,9.731 l -0.402,0 C -4.492,8.039 -4.95,3.298 -5.201,0 c -0.253,-3.302 0,-9.266 0,-9.266 l 0,-20.663 2.401,0 0.402,0 2.398,0 0,20.663 c 0,0 0.253,5.964 0,9.266"
             style="fill:#211d1d;fill-opacity:1;fill-rule:nonzero;stroke:none"
             id="path3866"
             inkscape:connector-curvature="0" />
        </g>
        <g
           id="g3868"
           transform="translate(86.6364,382.8755)">
          <path
             d="m 0,0 c -0.867,1.799 -1.581,2.665 -1.581,2.665 l -0.402,0 c 0,0 -0.714,-0.866 -1.58,-2.665 -0.867,-1.8 -0.819,-3.332 -0.819,-3.332 l 0,-6.399 -0.002,0 0,-20.665 2.401,0 0,0.2 0.402,0 0,-0.2 2.399,0 0,20.532 0,0.133 0,6.399 C 0.818,-3.332 0.867,-1.8 0,0"
             style="fill:#211d1d;fill-opacity:1;fill-rule:nonzero;stroke:none"
             id="path3870"
             inkscape:connector-curvature="0" />
        </g>
        <g
           id="g3872"
           transform="translate(69.4771,385.5405)">
          <path
             d="m 0,0 -1.632,0 -0.402,0 -1.63,0 -0.77,-12.397 0,-20.664 2.4,0 0,0.2 0.402,0 0,-0.2 2.401,0 0,20.664 L 0,0 z"
             style="fill:#211d1d;fill-opacity:1;fill-rule:nonzero;stroke:none"
             id="path3874"
             inkscape:connector-curvature="0" />
        </g>
      </g>
    </g>
  </g>
</svg>
