<?xml version="1.0" encoding="UTF-8" standalone="no"?>
<!-- Created with Inkscape (http://www.inkscape.org/) -->

<svg
   xmlns:dc="http://purl.org/dc/elements/1.1/"
   xmlns:cc="http://creativecommons.org/ns#"
   xmlns:rdf="http://www.w3.org/1999/02/22-rdf-syntax-ns#"
   xmlns:svg="http://www.w3.org/2000/svg"
   xmlns="http://www.w3.org/2000/svg"
   xmlns:sodipodi="http://sodipodi.sourceforge.net/DTD/sodipodi-0.dtd"
   xmlns:inkscape="http://www.inkscape.org/namespaces/inkscape"
   width="269.24899"
   height="139.77858"
   id="svg4014"
   version="1.1"
   inkscape:version="0.48.4 r9939"
   sodipodi:docname="New document 8">
  <defs
     id="defs4016">
    <clipPath
       clipPathUnits="userSpaceOnUse"
       id="clipPath3832">
      <path
         inkscape:connector-curvature="0"
         d="m 61.591,434.788 93.713,0 0,46.912 -93.713,0 0,-46.912 z"
         id="path3834" />
    </clipPath>
  </defs>
  <sodipodi:namedview
     id="base"
     pagecolor="#ffffff"
     bordercolor="#666666"
     borderopacity="1.0"
     inkscape:pageopacity="0.0"
     inkscape:pageshadow="2"
     inkscape:zoom="1"
     inkscape:cx="183.66486"
     inkscape:cy="3.88922"
     inkscape:document-units="px"
     inkscape:current-layer="layer1"
     showgrid="false"
     fit-margin-top="5"
     fit-margin-left="5"
     fit-margin-right="5"
     fit-margin-bottom="5"
     inkscape:window-width="2560"
     inkscape:window-height="1415"
     inkscape:window-x="1920"
     inkscape:window-y="0"
     inkscape:window-maximized="1" />
  <metadata
     id="metadata4019">
    <rdf:RDF>
      <cc:Work
         rdf:about="">
        <dc:format>image/svg+xml</dc:format>
        <dc:type
           rdf:resource="http://purl.org/dc/dcmitype/StillImage" />
        <dc:title></dc:title>
      </cc:Work>
    </rdf:RDF>
  </metadata>
  <g
     inkscape:label="Layer 1"
     inkscape:groupmode="layer"
     id="layer1"
     transform="translate(-191.33514,-396.47282)">
    <g
       id="g3828"
       transform="matrix(2.7664556,0,0,-2.7664556,25.946376,1734.0731)">
      <g
         id="g3830"
         clip-path="url(#clipPath3832)">
        <g
           id="g3836"
           transform="translate(154.3716,436.9359)">
          <path
             d="m 0,0 -35.993,0 4.226,2.412 c 0.183,0.104 0.273,0.319 0.219,0.523 -0.054,0.204 -0.238,0.346 -0.449,0.346 l -8.509,0.01 c -0.087,10e-4 -0.185,-0.028 -0.262,-0.08 L -45.494,0 l -7.407,0 8.255,5.527 c 0.043,0.03 0.08,0.065 0.111,0.105 L 0,5.632 0,0 z m -86.054,0 c -0.123,0 -0.24,-0.048 -0.327,-0.134 l -1.098,-1.083 -2.775,0 -1.556,3.92 1.748,3.807 2.562,0 1.186,-0.798 c 0.077,-0.052 0.167,-0.08 0.26,-0.08 l 0.524,0 -3.52,-2.669 c -0.16,-0.121 -0.224,-0.33 -0.16,-0.52 0.063,-0.189 0.241,-0.317 0.441,-0.317 l 4.134,0 c 0.09,0 0.179,0.026 0.254,0.076 l 5.261,3.43 5.843,0 L -80.123,0 -86.054,0 z m 15.786,0 8.151,5.548 c 0.035,0.024 0.063,0.054 0.089,0.084 l 7.008,0 L -62.762,0 -70.268,0 z m 70.734,6.563 -71.402,0 -1.009,0.02 c -0.041,0 -0.081,-0.01 -0.12,-0.02 l -7.194,0 -4.887,0 -1.766,0 -1.186,0.799 c -0.077,0.052 -0.167,0.079 -0.26,0.079 l -3.002,0 c -0.182,0 -0.347,-0.106 -0.423,-0.271 l -1.956,-4.259 c -0.053,-0.115 -0.056,-0.248 -0.009,-0.366 l 1.745,-4.399 c 0.071,-0.177 0.242,-0.294 0.433,-0.294 l 3.282,0 c 0.122,0 0.24,0.048 0.327,0.134 l 1.098,1.083 5.906,0 8.178,0 9.168,0 8.178,0 9.083,0 7.603,0 38.213,0 c 0.256,0 0.465,0.209 0.465,0.465 l 0,6.564 c 0,0.257 -0.209,0.465 -0.465,0.465"
             style="fill:#211d1d;fill-opacity:1;fill-rule:nonzero;stroke:none"
             id="path3838"
             inkscape:connector-curvature="0" />
        </g>
        <g
           id="g3840"
           transform="translate(132.1571,458.7094)">
          <path
             d="m 0,0 -26.843,0 2.848,1.626 c 0.184,0.105 0.274,0.32 0.22,0.524 -0.054,0.204 -0.239,0.346 -0.45,0.346 l -6.471,0.007 -10e-4,0 c -0.093,0 -0.184,-0.028 -0.261,-0.08 L -34.524,0 l -5.233,0 5.974,4 c 0.025,0.017 0.044,0.04 0.065,0.061 L 0,4.061 0,0 z m -65.339,0 c -0.122,0 -0.24,-0.048 -0.327,-0.134 l -0.802,-0.792 -1.989,0 -1.138,2.867 1.28,2.788 1.842,0 0.874,-0.589 c 0.077,-0.051 0.167,-0.079 0.26,-0.079 l 0.068,0 -2.414,-1.83 c -0.159,-0.121 -0.223,-0.33 -0.16,-0.52 0.064,-0.189 0.241,-0.317 0.441,-0.317 l 3.145,0 c 0.09,0 0.179,0.026 0.254,0.076 l 3.973,2.591 4.101,0 L -60.868,0 -65.339,0 z m 12.369,0 5.9,4.016 c 0.018,0.013 0.031,0.03 0.047,0.045 l 4.945,0 L -47.66,0 -52.97,0 z m 53.435,4.992 -54.314,0 -0.757,0.015 c -0.029,0 -0.059,-0.01 -0.09,-0.015 l -5.474,0 -3.718,0 -1.309,0 -0.873,0.588 c -0.077,0.052 -0.168,0.08 -0.26,0.08 l -2.284,0 c -0.182,0 -0.347,-0.106 -0.423,-0.272 l -1.487,-3.239 c -0.053,-0.116 -0.057,-0.248 -0.01,-0.366 l 1.328,-3.346 c 0.071,-0.177 0.242,-0.294 0.433,-0.294 l 2.496,0 c 0.122,0 0.24,0.049 0.327,0.134 l 0.802,0.792 4.447,0 6.22,0 6.972,0 6.22,0 6.908,0 5.783,0 29.063,0 c 0.257,0 0.466,0.208 0.466,0.465 l 0,4.993 c 0,0.257 -0.209,0.465 -0.466,0.465"
             style="fill:#211d1d;fill-opacity:1;fill-rule:nonzero;stroke:none"
             id="path3842"
             inkscape:connector-curvature="0" />
        </g>
        <g
           id="g3844"
           transform="translate(115.1931,477.4005)">
          <path
             d="m 0,0 -19.857,0 1.798,1.026 c 0.183,0.105 0.273,0.32 0.219,0.524 -0.054,0.204 -0.238,0.346 -0.449,0.346 l -4.916,0.006 0,0 c -0.094,0 -0.185,-0.028 -0.262,-0.081 L -26.147,0 l -3.572,0 4.231,2.834 c 0.012,0.008 0.019,0.019 0.03,0.027 L 0,2.861 0,0 z m -49.52,0 c -0.122,0 -0.24,-0.048 -0.327,-0.134 l -0.576,-0.569 -1.389,0 -0.819,2.063 0.922,2.008 1.294,0 0.635,-0.427 c 0.016,-0.011 0.034,-0.016 0.051,-0.025 l -1.64,-1.244 c -0.16,-0.121 -0.224,-0.33 -0.16,-0.52 0.063,-0.189 0.241,-0.317 0.441,-0.317 l 2.389,0 c 0.09,0 0.178,0.027 0.254,0.076 l 2.99,1.95 2.769,0 L -46.164,0 -49.52,0 z m 9.759,0 4.181,2.847 c 0.006,0.004 0.01,0.01 0.016,0.014 l 3.37,0 L -36.127,0 -39.761,0 z m 40.226,3.792 -41.247,0 -0.583,0.011 c -0.021,0 -0.042,-0.008 -0.064,-0.011 l -4.165,0 -2.823,0 -0.961,0 -0.635,0.428 c -0.077,0.052 -0.167,0.079 -0.26,0.079 l -1.735,0 c -0.181,0 -0.347,-0.106 -0.423,-0.271 L -53.56,1.567 c -0.053,-0.116 -0.057,-0.248 -0.01,-0.366 l 1.009,-2.541 c 0.071,-0.177 0.242,-0.294 0.433,-0.294 l 1.896,0 c 0.122,0 0.239,0.048 0.327,0.134 l 0.576,0.569 3.332,0 4.725,0 5.296,0 4.725,0 5.247,0 4.393,0 22.076,0 c 0.257,0 0.466,0.209 0.466,0.466 l 0,3.792 c 0,0.257 -0.209,0.465 -0.466,0.465"
             style="fill:#211d1d;fill-opacity:1;fill-rule:nonzero;stroke:none"
             id="path3846"
             inkscape:connector-curvature="0" />
        </g>
      </g>
    </g>
  </g>
</svg>
