<?xml version="1.0" encoding="UTF-8" standalone="no"?>
<!-- Created with Inkscape (http://www.inkscape.org/) -->

<svg
   xmlns:dc="http://purl.org/dc/elements/1.1/"
   xmlns:cc="http://creativecommons.org/ns#"
   xmlns:rdf="http://www.w3.org/1999/02/22-rdf-syntax-ns#"
   xmlns:svg="http://www.w3.org/2000/svg"
   xmlns="http://www.w3.org/2000/svg"
   xmlns:sodipodi="http://sodipodi.sourceforge.net/DTD/sodipodi-0.dtd"
   xmlns:inkscape="http://www.inkscape.org/namespaces/inkscape"
   width="478.88354"
   height="81.647507"
   id="svg4353"
   version="1.1"
   inkscape:version="0.48.4 r9939"
   sodipodi:docname="New document 21">
  <defs
     id="defs4355">
    <clipPath
       clipPathUnits="userSpaceOnUse"
       id="clipPath3918">
      <path
         inkscape:connector-curvature="0"
         d="m 41.4,119.867 119.452,0 0,18.253 -119.452,0 0,-18.253 z"
         id="path3920" />
    </clipPath>
  </defs>
  <sodipodi:namedview
     id="base"
     pagecolor="#ffffff"
     bordercolor="#666666"
     borderopacity="1.0"
     inkscape:pageopacity="0.0"
     inkscape:pageshadow="2"
     inkscape:zoom="1"
     inkscape:cx="262.94177"
     inkscape:cy="-1.3667523"
     inkscape:document-units="px"
     inkscape:current-layer="layer1"
     showgrid="false"
     inkscape:window-width="2560"
     inkscape:window-height="1415"
     inkscape:window-x="1920"
     inkscape:window-y="0"
     inkscape:window-maximized="1"
     fit-margin-top="5"
     fit-margin-left="5"
     fit-margin-right="5"
     fit-margin-bottom="5" />
  <metadata
     id="metadata4358">
    <rdf:RDF>
      <cc:Work
         rdf:about="">
        <dc:format>image/svg+xml</dc:format>
        <dc:type
           rdf:resource="http://purl.org/dc/dcmitype/StillImage" />
        <dc:title></dc:title>
      </cc:Work>
    </rdf:RDF>
  </metadata>
  <g
     inkscape:label="Layer 1"
     inkscape:groupmode="layer"
     id="layer1"
     transform="translate(-112.05823,-449.34793)">
    <g
       id="g3914"
       transform="matrix(3.9252884,0,0,-3.9252884,-45.448714,996.50876)">
      <g
         id="g3916"
         clip-path="url(#clipPath3918)">
        <g
           id="g3922"
           transform="translate(159.6659,122.6052)">
          <path
             d="m 0,0 -45.879,0 5.386,3.074 c 0.234,0.133 0.348,0.407 0.28,0.667 -0.069,0.26 -0.304,0.441 -0.573,0.442 L -51.632,4.195 C -51.743,4.196 -51.868,4.16 -51.966,4.093 L -57.99,0 l -9.442,0 10.523,7.046 c 0.055,0.037 0.102,0.082 0.141,0.133 L 0,7.179 0,0 z m -109.691,0 c -0.156,0 -0.306,-0.061 -0.417,-0.171 l -1.399,-1.38 -3.538,0 -1.982,4.997 2.227,4.852 3.266,0 1.511,-1.017 c 0.098,-0.066 0.213,-0.102 0.332,-0.102 l 0.668,0 -4.487,-3.402 c -0.204,-0.155 -0.286,-0.421 -0.204,-0.663 0.081,-0.241 0.307,-0.404 0.562,-0.404 l 5.27,0 c 0.115,0 0.228,0.034 0.324,0.097 l 6.705,4.372 7.449,0 -8.727,-7.179 -7.56,0 z m 20.123,0 10.389,7.073 c 0.044,0.03 0.08,0.068 0.113,0.106 l 8.933,0 L -80.002,0 -89.568,0 z m 90.161,8.366 -91.013,0 -1.287,0.025 c -0.052,0 -0.102,-0.013 -0.152,-0.025 l -9.17,0 -6.23,0 -2.251,0 -1.511,1.018 c -0.099,0.066 -0.214,0.101 -0.332,0.101 l -3.827,0 c -0.232,0 -0.442,-0.135 -0.539,-0.346 l -2.493,-5.428 c -0.067,-0.148 -0.072,-0.317 -0.012,-0.467 l 2.225,-5.608 c 0.09,-0.225 0.308,-0.374 0.552,-0.374 l 4.183,0 c 0.156,0 0.305,0.062 0.417,0.171 l 1.399,1.38 7.529,0 10.425,0 11.685,0 10.425,0 11.577,0 9.692,0 48.708,0 c 0.328,0 0.594,0.266 0.594,0.594 l 0,8.366 c 0,0.327 -0.266,0.593 -0.594,0.593"
             style="fill:#211d1d;fill-opacity:1;fill-rule:nonzero;stroke:none"
             id="path3924"
             inkscape:connector-curvature="0" />
        </g>
        <g
           id="g3926"
           transform="translate(131.3495,150.3594)">
          <path
             d="m 0,0 -34.216,0 3.631,2.073 c 0.233,0.133 0.348,0.407 0.279,0.667 -0.068,0.26 -0.304,0.441 -0.572,0.442 l -8.25,0.009 0,0 c -0.119,0 -0.236,-0.036 -0.334,-0.103 L -44.007,0 l -6.67,0 7.614,5.098 c 0.033,0.022 0.057,0.051 0.084,0.079 L 0,5.177 0,0 z m -83.286,0 c -0.156,0 -0.305,-0.061 -0.417,-0.171 l -1.022,-1.009 -2.535,0 -1.451,3.654 1.631,3.554 2.349,0 1.114,-0.75 c 0.098,-0.066 0.213,-0.101 0.331,-0.101 l 0.086,0 -3.076,-2.334 c -0.203,-0.154 -0.285,-0.42 -0.204,-0.662 0.081,-0.241 0.307,-0.404 0.562,-0.404 l 4.009,0 c 0.115,0 0.228,0.034 0.324,0.096 l 5.064,3.304 5.227,0 L -77.587,0 -83.286,0 z m 15.766,0 7.521,5.119 c 0.023,0.017 0.04,0.039 0.06,0.058 l 6.304,0 L -60.751,0 -67.52,0 z m 68.113,6.363 -69.233,0 -0.965,0.019 c -0.037,0.001 -0.076,-0.012 -0.114,-0.019 l -6.979,0 -4.738,0 -1.669,0 -1.113,0.75 c -0.098,0.066 -0.214,0.101 -0.332,0.101 l -2.911,0 c -0.231,0 -0.442,-0.135 -0.539,-0.345 l -1.895,-4.13 c -0.068,-0.148 -0.072,-0.316 -0.013,-0.467 l 1.693,-4.264 c 0.09,-0.226 0.308,-0.375 0.552,-0.375 l 3.181,0 c 0.156,0 0.306,0.062 0.417,0.171 l 1.023,1.009 5.668,0 7.928,0 8.888,0 7.928,0 8.806,0 7.371,0 37.046,0 c 0.328,0 0.594,0.266 0.594,0.594 l 0,6.363 c 0,0.327 -0.266,0.593 -0.594,0.593"
             style="fill:#211d1d;fill-opacity:1;fill-rule:nonzero;stroke:none"
             id="path3928"
             inkscape:connector-curvature="0" />
        </g>
        <g
           id="g3930"
           transform="translate(109.726,174.1846)">
          <path
             d="m 0,0 -25.311,0 2.292,1.308 c 0.233,0.134 0.348,0.408 0.279,0.668 -0.069,0.26 -0.304,0.441 -0.573,0.441 l -6.266,0.007 0,0 c -0.119,0 -0.236,-0.036 -0.334,-0.103 L -33.329,0 l -4.554,0 5.394,3.612 c 0.015,0.01 0.025,0.024 0.038,0.035 L 0,3.647 0,0 z m -63.122,0 c -0.156,0 -0.305,-0.061 -0.417,-0.171 l -0.734,-0.725 -1.771,0 -1.044,2.629 1.176,2.56 1.649,0 0.81,-0.545 c 0.02,-0.013 0.044,-0.02 0.065,-0.031 l -2.091,-1.586 c -0.204,-0.154 -0.285,-0.421 -0.204,-0.662 0.081,-0.242 0.307,-0.404 0.562,-0.404 l 3.045,0 c 0.115,0 0.228,0.033 0.324,0.096 l 3.811,2.486 3.53,0 L -58.844,0 -63.122,0 z m 12.439,0 5.33,3.629 c 0.008,0.005 0.013,0.013 0.02,0.018 l 4.296,0 L -46.05,0 -50.683,0 z m 51.276,4.834 -52.576,0 -0.744,0.014 c -0.027,-10e-4 -0.054,-0.01 -0.081,-0.014 l -5.309,0 -3.599,0 -1.224,0 -0.81,0.545 c -0.098,0.066 -0.213,0.101 -0.332,0.101 l -2.211,0 c -0.232,0 -0.443,-0.135 -0.539,-0.346 l -1.44,-3.136 C -68.34,1.85 -68.344,1.682 -68.284,1.531 l 1.286,-3.239 c 0.09,-0.226 0.308,-0.375 0.551,-0.375 l 2.417,0 c 0.156,0 0.306,0.062 0.417,0.171 l 0.735,0.725 4.247,0 6.022,0 6.752,0 6.022,0 6.688,0 5.6,0 28.14,0 c 0.328,0 0.594,0.266 0.594,0.594 l 0,4.833 c 0,0.328 -0.266,0.594 -0.594,0.594"
             style="fill:#211d1d;fill-opacity:1;fill-rule:nonzero;stroke:none"
             id="path3932"
             inkscape:connector-curvature="0" />
        </g>
      </g>
    </g>
  </g>
</svg>
