<?xml version="1.0" encoding="UTF-8" standalone="no"?>
<!-- Created with Inkscape (http://www.inkscape.org/) -->

<svg
   xmlns:dc="http://purl.org/dc/elements/1.1/"
   xmlns:cc="http://creativecommons.org/ns#"
   xmlns:rdf="http://www.w3.org/1999/02/22-rdf-syntax-ns#"
   xmlns:svg="http://www.w3.org/2000/svg"
   xmlns="http://www.w3.org/2000/svg"
   xmlns:sodipodi="http://sodipodi.sourceforge.net/DTD/sodipodi-0.dtd"
   xmlns:inkscape="http://www.inkscape.org/namespaces/inkscape"
   width="266.00217"
   height="155.85207"
   id="svg4203"
   version="1.1"
   inkscape:version="0.48.4 r9939"
   sodipodi:docname="New document 15">
  <defs
     id="defs4205">
    <clipPath
       clipPathUnits="userSpaceOnUse"
       id="clipPath3880">
      <path
         inkscape:connector-curvature="0"
         d="m 36.225,246.86 131.68,0 0,83.94 -131.68,0 0,-83.94 z"
         id="path3882" />
    </clipPath>
  </defs>
  <sodipodi:namedview
     id="base"
     pagecolor="#ffffff"
     bordercolor="#666666"
     borderopacity="1.0"
     inkscape:pageopacity="0.0"
     inkscape:pageshadow="2"
     inkscape:zoom="1"
     inkscape:cx="244.58933"
     inkscape:cy="68.926096"
     inkscape:document-units="px"
     inkscape:current-layer="layer1"
     showgrid="false"
     fit-margin-top="5"
     fit-margin-left="5"
     fit-margin-right="5"
     fit-margin-bottom="5"
     inkscape:window-width="2560"
     inkscape:window-height="1415"
     inkscape:window-x="1920"
     inkscape:window-y="0"
     inkscape:window-maximized="1" />
  <metadata
     id="metadata4208">
    <rdf:RDF>
      <cc:Work
         rdf:about="">
        <dc:format>image/svg+xml</dc:format>
        <dc:type
           rdf:resource="http://purl.org/dc/dcmitype/StillImage" />
        <dc:title></dc:title>
      </cc:Work>
    </rdf:RDF>
  </metadata>
  <g
     inkscape:label="Layer 1"
     inkscape:groupmode="layer"
     id="layer1"
     transform="translate(-130.41067,-445.43621)">
    <g
       id="g3876"
       transform="matrix(3.5513043,0,0,-3.5513043,-73.452898,1554.2171)">
      <g
         id="g3878"
         clip-path="url(#clipPath3880)">
        <path
           d="m 129.379,271.262 -7.415,0 0,38.027 7.415,0 0,-38.027 z m 0.76,39.548 -8.936,0 c -0.42,0 -0.761,-0.341 -0.761,-0.76 l 0,-39.549 c 0,-0.42 0.341,-0.761 0.761,-0.761 l 8.936,0 c 0.42,0 0.761,0.341 0.761,0.761 l 0,39.549 c 0,0.419 -0.341,0.76 -0.761,0.76"
           style="fill:#211d1d;fill-opacity:1;fill-rule:nonzero;stroke:none"
           id="path3884"
           inkscape:connector-curvature="0" />
        <g
           id="g3886"
           transform="translate(125.3198,300.053)">
          <path
             d="m 0,0 c -0.018,-0.045 -0.029,-0.093 -0.029,-0.145 l 0,-27.248 c 0,-0.21 0.17,-0.38 0.38,-0.38 0.21,0 0.38,0.17 0.38,0.38 l 0,27.248 c 0,0.026 -0.009,0.048 -0.014,0.072 L 2.858,3.264 C 2.971,3.441 2.92,3.676 2.743,3.789 2.566,3.904 2.331,3.851 2.218,3.675 L 0.378,0.808 -1.518,3.679 C -1.634,3.854 -1.87,3.903 -2.045,3.787 -2.22,3.671 -2.269,3.435 -2.153,3.26 L 0,0 z"
             style="fill:#211d1d;fill-opacity:1;fill-rule:nonzero;stroke:none"
             id="path3888"
             inkscape:connector-curvature="0" />
        </g>
        <g
           id="g3890"
           transform="translate(109.6043,271.2615)">
          <path
             d="m 0,0 -6.972,0 0,30.28 2.803,7.24 1.128,0 L 0,30.269 0,0 z m 1.462,30.716 -3.296,7.859 c -0.118,0.283 -0.395,0.467 -0.701,0.467 l -2.155,0 c -0.314,0 -0.596,-0.194 -0.709,-0.487 l -3.042,-7.859 c -0.035,-0.087 -0.052,-0.18 -0.052,-0.274 l 0,-31.183 c 0,-0.419 0.341,-0.76 0.761,-0.76 l 8.493,0 c 0.419,0 0.76,0.341 0.76,0.76 l 0,31.183 c 0,0.101 -0.02,0.201 -0.059,0.294"
             style="fill:#211d1d;fill-opacity:1;fill-rule:nonzero;stroke:none"
             id="path3892"
             inkscape:connector-curvature="0" />
        </g>
        <g
           id="g3894"
           transform="translate(104.2467,301.3983)">
          <path
             d="M 0,0 C -0.086,0.192 -0.313,0.275 -0.504,0.189 -0.695,0.102 -0.779,-0.124 -0.692,-0.315 l 2.183,-4.805 0,-23.368 c 0,-0.21 0.171,-0.38 0.381,-0.38 0.21,0 0.38,0.17 0.38,0.38 l 0,23.37 2.123,4.807 C 4.46,-0.119 4.373,0.105 4.181,0.191 3.989,0.274 3.764,0.188 3.679,-0.004 L 1.867,-4.108 0,0 z"
             style="fill:#211d1d;fill-opacity:1;fill-rule:nonzero;stroke:none"
             id="path3896"
             inkscape:connector-curvature="0" />
        </g>
        <g
           id="g3898"
           transform="translate(83.3896,297.2831)">
          <path
             d="m 0,0 1.973,-0.959 0,-23.664 c 0,-0.21 0.17,-0.381 0.38,-0.381 0.21,0 0.38,0.171 0.38,0.381 l 0,23.637 1.976,0.988 C 4.898,0.096 4.974,0.324 4.88,0.512 4.786,0.7 4.558,0.776 4.37,0.682 L 2.382,-0.311 0.333,0.684 C 0.143,0.776 -0.084,0.697 -0.176,0.508 -0.267,0.319 -0.189,0.092 0,0"
             style="fill:#211d1d;fill-opacity:1;fill-rule:nonzero;stroke:none"
             id="path3900"
             inkscape:connector-curvature="0" />
        </g>
        <g
           id="g3902"
           transform="translate(90.8441,296.5899)">
          <path
             d="m 0,0 -1.393,-2.09 c -0.084,-0.125 -0.128,-0.272 -0.128,-0.422 l 0,-22.816 -6.972,0 0,22.816 c 0,0.15 -0.044,0.297 -0.128,0.422 l -1.393,2.09 0,12.319 L 0,12.319 0,0 z m 0.761,13.84 -11.535,0 c -0.42,0 -0.761,-0.341 -0.761,-0.761 l 0,-13.309 c 0,-0.15 0.045,-0.297 0.128,-0.422 l 1.393,-2.09 0,-23.347 c 0,-0.42 0.341,-0.76 0.761,-0.76 l 8.492,0 c 0.42,0 0.761,0.34 0.761,0.76 l 0,23.347 1.393,2.09 c 0.084,0.125 0.128,0.272 0.128,0.422 l 0,13.309 c 0,0.42 -0.341,0.761 -0.76,0.761"
             style="fill:#211d1d;fill-opacity:1;fill-rule:nonzero;stroke:none"
             id="path3904"
             inkscape:connector-curvature="0" />
        </g>
        <g
           id="g3906"
           transform="translate(67.3062,271.2615)">
          <path
             d="m 0,0 -6.972,0 0,30.28 2.803,7.24 1.128,0 L 0,30.269 0,0 z m 1.462,30.716 -3.296,7.859 c -0.118,0.283 -0.395,0.467 -0.701,0.467 l -2.155,0 c -0.314,0 -0.596,-0.194 -0.709,-0.487 l -3.042,-7.859 c -0.034,-0.087 -0.052,-0.18 -0.052,-0.274 l 0,-31.183 c 0,-0.419 0.341,-0.76 0.761,-0.76 l 8.493,0 c 0.419,0 0.76,0.341 0.76,0.76 l 0,31.183 c 0,0.101 -0.02,0.201 -0.059,0.294"
             style="fill:#211d1d;fill-opacity:1;fill-rule:nonzero;stroke:none"
             id="path3908"
             inkscape:connector-curvature="0" />
        </g>
        <g
           id="g3910"
           transform="translate(63.8209,302.86)">
          <path
             d="m 0,0 c -0.21,0 -0.38,-0.17 -0.38,-0.38 l 0,-29.598 c 0,-0.21 0.17,-0.381 0.38,-0.381 0.21,0 0.38,0.171 0.38,0.381 l 0,29.598 C 0.38,-0.17 0.21,0 0,0"
             style="fill:#211d1d;fill-opacity:1;fill-rule:nonzero;stroke:none"
             id="path3912"
             inkscape:connector-curvature="0" />
        </g>
      </g>
    </g>
  </g>
</svg>
