<?xml version="1.0" encoding="UTF-8" standalone="no"?>
<!-- Created with Inkscape (http://www.inkscape.org/) -->

<svg
   xmlns:dc="http://purl.org/dc/elements/1.1/"
   xmlns:cc="http://creativecommons.org/ns#"
   xmlns:rdf="http://www.w3.org/1999/02/22-rdf-syntax-ns#"
   xmlns:svg="http://www.w3.org/2000/svg"
   xmlns="http://www.w3.org/2000/svg"
   xmlns:sodipodi="http://sodipodi.sourceforge.net/DTD/sodipodi-0.dtd"
   xmlns:inkscape="http://www.inkscape.org/namespaces/inkscape"
   width="172.79443"
   height="237.04108"
   id="svg4260"
   version="1.1"
   inkscape:version="0.48.4 r9939"
   sodipodi:docname="New document 11">
  <defs
     id="defs4262" />
  <sodipodi:namedview
     id="base"
     pagecolor="#ffffff"
     bordercolor="#666666"
     borderopacity="1.0"
     inkscape:pageopacity="0.0"
     inkscape:pageshadow="2"
     inkscape:zoom="1"
     inkscape:cx="79.168195"
     inkscape:cy="74.284771"
     inkscape:document-units="px"
     inkscape:current-layer="layer1"
     showgrid="false"
     fit-margin-top="5"
     fit-margin-left="5"
     fit-margin-right="5"
     fit-margin-bottom="5"
     inkscape:window-width="2560"
     inkscape:window-height="1415"
     inkscape:window-x="1920"
     inkscape:window-y="0"
     inkscape:window-maximized="1" />
  <metadata
     id="metadata4265">
    <rdf:RDF>
      <cc:Work
         rdf:about="">
        <dc:format>image/svg+xml</dc:format>
        <dc:type
           rdf:resource="http://purl.org/dc/dcmitype/StillImage" />
        <dc:title></dc:title>
      </cc:Work>
    </rdf:RDF>
  </metadata>
  <g
     inkscape:label="Layer 1"
     inkscape:groupmode="layer"
     id="layer1"
     transform="translate(-295.8318,-369.60587)">
    <g
       id="g4049"
       transform="matrix(5.7070177,0,0,-5.7070177,-215.80726,1692.1633)">
      <g
         transform="translate(101.0202,205.6007)"
         id="g3904">
        <path
           inkscape:connector-curvature="0"
           id="path3906"
           style="fill:#f24e9c;fill-opacity:1;fill-rule:nonzero;stroke:none"
           d="M 0,0 C 0.242,0.243 0.5,0.492 0.766,0.749 2.341,2.271 4.126,3.996 3.709,5.72 3.456,6.762 2.788,7.587 1.829,8.044 1.266,8.312 0.641,8.418 0.02,8.391 0.223,7.338 0.207,6.198 -0.325,4.999 -0.816,3.89 -1.683,2.959 -2.447,2.14 -3.178,1.356 -4.004,0.468 -3.956,-0.081 c 0.033,-0.385 0.502,-0.947 1.288,-1.54 0.344,-0.259 0.539,-0.639 0.58,-1.036 0.674,0.133 1.364,0.37 2.002,0.684 C -0.554,-1.389 -0.54,-0.543 0,0" />
      </g>
      <g
         transform="translate(107.3901,230.4424)"
         id="g3908">
        <path
           inkscape:connector-curvature="0"
           id="path3910"
           style="fill:#100f0d;fill-opacity:1;fill-rule:nonzero;stroke:none"
           d="m 0,0 c -6.634,1.599 -12.766,-1.407 -15.622,-7.664 -0.342,-0.75 -0.012,-1.634 0.737,-1.976 0.749,-0.343 1.634,-0.013 1.976,0.737 2.714,5.943 8.087,6.997 12.209,6.002 4.726,-1.14 9.673,-5.46 9.364,-12.249 -0.231,-5.099 -3.806,-8.275 -7.591,-11.638 -1.995,-1.773 -4.059,-3.608 -5.657,-5.772 l -0.49,-0.672 c -1.716,-2.363 -2.577,-3.548 -5.435,-3.02 -2.938,0.544 -3.639,1.917 -3.262,6.383 0.069,0.821 -0.541,1.543 -1.362,1.612 -0.824,0.051 -1.542,-0.541 -1.612,-1.361 -0.246,-2.93 -0.706,-8.383 5.693,-9.567 0.64,-0.119 1.227,-0.174 1.77,-0.174 3.447,0 5.058,2.22 6.623,4.375 l 0.475,0.652 c 1.413,1.913 3.272,3.565 5.24,5.314 4.08,3.626 8.299,7.375 8.589,13.732 C 12.03,-6.807 5.878,-1.419 0,0" />
      </g>
      <g
         transform="translate(96.3509,209.774)"
         id="g3912">
        <path
           inkscape:connector-curvature="0"
           id="path3914"
           style="fill:#100f0d;fill-opacity:1;fill-rule:nonzero;stroke:none"
           d="m 0,0 c -1.154,-1.238 -2.461,-2.643 -2.299,-4.513 0.113,-1.298 0.919,-2.495 2.462,-3.663 0.27,-0.203 0.586,-0.301 0.899,-0.301 0.452,0 0.897,0.204 1.191,0.593 0.237,0.313 0.328,0.691 0.29,1.053 -0.042,0.398 -0.238,0.777 -0.581,1.037 -0.785,0.593 -1.255,1.155 -1.289,1.54 -0.047,0.549 0.78,1.436 1.51,2.22 0.765,0.82 1.631,1.75 2.122,2.86 C 4.837,2.025 4.852,3.164 4.649,4.218 5.272,4.245 5.896,4.138 6.459,3.87 7.418,3.414 8.086,2.588 8.338,1.546 8.756,-0.178 6.971,-1.903 5.395,-3.425 5.13,-3.681 4.871,-3.931 4.63,-4.173 4.09,-4.716 4.076,-5.562 4.544,-6.146 4.579,-6.19 4.595,-6.242 4.635,-6.283 c 0.292,-0.289 0.672,-0.434 1.053,-0.434 0.383,0 0.766,0.147 1.057,0.44 0.228,0.229 0.472,0.464 0.724,0.707 1.936,1.872 4.589,4.434 3.769,7.819 C 10.769,4.182 9.527,5.715 7.74,6.564 6.474,7.167 5.037,7.34 3.658,7.108 2.795,9.154 2.332,10.434 4.457,12.254 6.333,13.859 10.073,12.96 12.256,11.15 16.051,8 15.068,5.144 13.135,1.144 L 12.773,0.387 c -0.351,-0.745 -0.032,-1.634 0.713,-1.986 0.744,-0.348 1.635,-0.031 1.985,0.715 l 0.35,0.73 c 1.577,3.262 4.217,8.723 -1.66,13.599 C 11.009,16.06 5.662,17.213 2.516,14.52 -1.326,11.228 0.01,8.074 0.985,5.77 1.01,5.708 1.033,5.652 1.059,5.592 0.969,5.26 0.986,4.897 1.146,4.562 1.262,4.318 1.439,4.127 1.646,3.983 1.836,3.272 1.855,2.658 1.577,2.034 1.289,1.383 0.634,0.68 0,0" />
      </g>
    </g>
  </g>
</svg>
