<?xml version="1.0" encoding="UTF-8" standalone="no"?>
<!-- Created with Inkscape (http://www.inkscape.org/) -->

<svg
   xmlns:dc="http://purl.org/dc/elements/1.1/"
   xmlns:cc="http://creativecommons.org/ns#"
   xmlns:rdf="http://www.w3.org/1999/02/22-rdf-syntax-ns#"
   xmlns:svg="http://www.w3.org/2000/svg"
   xmlns="http://www.w3.org/2000/svg"
   xmlns:sodipodi="http://sodipodi.sourceforge.net/DTD/sodipodi-0.dtd"
   xmlns:inkscape="http://www.inkscape.org/namespaces/inkscape"
   width="278.37564"
   height="256.13199"
   id="svg4322"
   version="1.1"
   inkscape:version="0.48.4 r9939"
   sodipodi:docname="New document 14">
  <defs
     id="defs4324">
    <clipPath
       clipPathUnits="userSpaceOnUse"
       id="clipPath3792">
      <path
         inkscape:connector-curvature="0"
         d="m 56.745,437.962 86.268,0 0,79.118 -86.268,0 0,-79.118 z"
         id="path3794" />
    </clipPath>
  </defs>
  <sodipodi:namedview
     id="base"
     pagecolor="#ffffff"
     bordercolor="#666666"
     borderopacity="1.0"
     inkscape:pageopacity="0.0"
     inkscape:pageshadow="2"
     inkscape:zoom="1"
     inkscape:cx="154.18781"
     inkscape:cy="115.12729"
     inkscape:document-units="px"
     inkscape:current-layer="layer1"
     showgrid="false"
     fit-margin-top="5"
     fit-margin-left="5"
     fit-margin-right="5"
     fit-margin-bottom="5"
     inkscape:window-width="2560"
     inkscape:window-height="1415"
     inkscape:window-x="1920"
     inkscape:window-y="0"
     inkscape:window-maximized="1" />
  <metadata
     id="metadata4327">
    <rdf:RDF>
      <cc:Work
         rdf:about="">
        <dc:format>image/svg+xml</dc:format>
        <dc:type
           rdf:resource="http://purl.org/dc/dcmitype/StillImage" />
        <dc:title></dc:title>
      </cc:Work>
    </rdf:RDF>
  </metadata>
  <g
     inkscape:label="Layer 1"
     inkscape:groupmode="layer"
     id="layer1"
     transform="translate(-220.81219,-391.35749)">
    <g
       id="g3788"
       transform="matrix(3.1109597,0,0,-3.1109597,49.28078,2004.9716)">
      <g
         id="g3790"
         clip-path="url(#clipPath3792)">
        <g
           id="g3796"
           transform="translate(140.8986,441.9302)">
          <path
             d="m 0,0 c -0.268,-1.276 -1.438,-1.758 -1.888,-1.898 -2.048,0.411 -17.159,3.492 -23.998,6.103 -7.266,2.774 -15.285,8.39 -15.377,8.455 l -6.545,4.475 c -0.059,0.041 -0.123,0.075 -0.189,0.102 l -15.744,6.453 -0.695,1.191 14.973,1.582 5.218,-3.288 c 0.15,-0.084 15.068,-8.489 20.608,-11.435 C -18.291,8.896 -2.602,3.092 -0.609,2.358 -0.366,2.11 0.275,1.307 0,0 m -63.741,47.49 15.744,6.453 c 0.066,0.028 0.13,0.062 0.189,0.102 l 6.556,4.484 c 0.081,0.056 8.094,5.671 15.365,8.447 6.843,2.612 21.962,5.694 24.001,6.104 0.444,-0.137 1.615,-0.616 1.886,-1.899 0.275,-1.308 -0.366,-2.11 -0.609,-2.359 -1.993,-0.734 -17.682,-6.538 -23.028,-9.381 -5.54,-2.946 -20.458,-11.351 -20.651,-11.462 l -5.175,-3.261 -14.973,1.581 0.695,1.191 z M 0.555,4.058 C 0.471,4.122 0.379,4.173 0.281,4.21 c -0.175,0.063 -17.49,6.426 -22.958,9.334 -5.518,2.935 -20.415,11.327 -20.522,11.386 l -5.474,3.451 c -0.193,0.123 -0.422,0.171 -0.652,0.152 l -2.568,-0.271 c -0.019,0.28 -0.147,0.548 -0.375,0.73 l -8.532,6.83 8.532,6.83 c 0.099,0.079 0.173,0.177 0.235,0.282 l 2.708,-0.287 c 0.036,-0.003 0.072,-0.005 0.107,-0.005 0.193,0 0.382,0.054 0.545,0.158 l 5.431,3.425 c 0.15,0.084 15.047,8.476 20.565,11.411 5.468,2.908 22.783,9.271 22.958,9.335 0.098,0.036 0.19,0.087 0.274,0.152 0.083,0.065 2.046,1.624 1.445,4.478 -0.607,2.888 -3.532,3.504 -3.656,3.529 -0.131,0.026 -0.266,0.026 -0.398,0 -0.694,-0.137 -17.09,-3.393 -24.561,-6.244 -7.508,-2.867 -15.478,-8.45 -15.802,-8.678 l -6.455,-4.414 -15.965,-6.544 c -0.208,-0.085 -0.382,-0.236 -0.495,-0.43 l -1.666,-2.856 c -0.175,-0.3 -0.186,-0.668 -0.029,-0.977 0.039,-0.077 0.087,-0.148 0.143,-0.212 l -2.807,-1.837 -0.069,0.055 c -0.161,0.129 -0.356,0.206 -0.56,0.221 l -11.305,0.873 c -0.215,0.017 -0.429,-0.034 -0.612,-0.147 l -1.428,-0.873 c -0.318,-0.193 -0.505,-0.545 -0.488,-0.917 0.017,-0.372 0.235,-0.706 0.568,-0.871 l 6.783,-3.351 c 0.385,-0.19 0.848,-0.119 1.159,0.177 l 0.482,0.461 0.095,-0.125 c 0.063,-0.46 0.202,-1.451 0.393,-2.619 -0.191,-1.168 -0.33,-2.159 -0.393,-2.619 l -0.095,-0.125 -0.482,0.461 c -0.311,0.297 -0.774,0.368 -1.159,0.177 l -6.783,-3.352 c -0.333,-0.165 -0.551,-0.499 -0.568,-0.871 -0.017,-0.372 0.17,-0.724 0.488,-0.917 l 1.428,-0.873 c 0.161,-0.099 0.345,-0.151 0.533,-0.151 0.026,0 0.053,0.002 0.079,0.004 l 11.305,0.873 c 0.204,0.015 0.399,0.092 0.56,0.221 l 0.07,0.055 3.141,-2.056 c -0.202,-0.096 -0.374,-0.25 -0.478,-0.455 -0.157,-0.31 -0.146,-0.678 0.029,-0.977 l 1.666,-2.856 c 0.113,-0.195 0.287,-0.345 0.495,-0.431 l 15.965,-6.543 6.444,-4.407 c 0.335,-0.236 8.305,-5.819 15.813,-8.685 7.471,-2.851 23.867,-6.108 24.561,-6.245 0.065,-0.012 0.132,-0.019 0.198,-0.019 0.067,0 0.134,0.007 0.2,0.02 C -1.532,-3.925 1.393,-3.308 2,-0.42 2.601,2.434 0.638,3.992 0.555,4.058"
             style="fill:#100f0d;fill-opacity:1;fill-rule:nonzero;stroke:none"
             id="path3798"
             inkscape:connector-curvature="0" />
        </g>
      </g>
    </g>
  </g>
</svg>
