<?xml version="1.0" encoding="UTF-8" standalone="no"?>
<!-- Created with Inkscape (http://www.inkscape.org/) -->

<svg
   xmlns:dc="http://purl.org/dc/elements/1.1/"
   xmlns:cc="http://creativecommons.org/ns#"
   xmlns:rdf="http://www.w3.org/1999/02/22-rdf-syntax-ns#"
   xmlns:svg="http://www.w3.org/2000/svg"
   xmlns="http://www.w3.org/2000/svg"
   xmlns:sodipodi="http://sodipodi.sourceforge.net/DTD/sodipodi-0.dtd"
   xmlns:inkscape="http://www.inkscape.org/namespaces/inkscape"
   width="296.17175"
   height="106.3201"
   id="svg3616"
   version="1.1"
   inkscape:version="0.48.4 r9939"
   sodipodi:docname="Ethernet_jacket_stripper.svg">
  <defs
     id="defs3618">
    <clipPath
       clipPathUnits="userSpaceOnUse"
       id="clipPath3538">
      <path
         inkscape:connector-curvature="0"
         d="m 37.426,521.7 132.254,0 0,90.72 -132.254,0 0,-90.72 z"
         id="path3540" />
    </clipPath>
  </defs>
  <sodipodi:namedview
     id="base"
     pagecolor="#ffffff"
     bordercolor="#666666"
     borderopacity="1.0"
     inkscape:pageopacity="0.0"
     inkscape:pageshadow="2"
     inkscape:zoom="1"
     inkscape:cx="178.58588"
     inkscape:cy="-38.920595"
     inkscape:document-units="px"
     inkscape:current-layer="layer1"
     showgrid="false"
     inkscape:window-width="2560"
     inkscape:window-height="1415"
     inkscape:window-x="1920"
     inkscape:window-y="0"
     inkscape:window-maximized="1"
     fit-margin-top="5"
     fit-margin-left="5"
     fit-margin-right="5"
     fit-margin-bottom="5" />
  <metadata
     id="metadata3621">
    <rdf:RDF>
      <cc:Work
         rdf:about="">
        <dc:format>image/svg+xml</dc:format>
        <dc:type
           rdf:resource="http://purl.org/dc/dcmitype/StillImage" />
        <dc:title />
      </cc:Work>
    </rdf:RDF>
  </metadata>
  <g
     inkscape:label="Layer 1"
     inkscape:groupmode="layer"
     id="layer1"
     transform="translate(-198.41412,-387.12149)">
    <g
       id="g3534"
       transform="matrix(2.8926691,0,0,-2.8926691,49.236014,2079.4579)">
      <g
         id="g3536"
         clip-path="url(#clipPath3538)">
        <g
           id="g3542"
           transform="translate(83.4293,562.9268)">
          <path
             d="M 0,0 C 0,1.76 -1.427,3.187 -3.187,3.187 -4.946,3.187 -6.373,1.76 -6.373,0 c 0,-1.761 1.427,-3.187 3.186,-3.187 C -1.427,-3.187 0,-1.761 0,0"
             style="fill:#100f0d;fill-opacity:1;fill-rule:nonzero;stroke:none"
             id="path3544"
             inkscape:connector-curvature="0" />
        </g>
        <g
           id="g3546"
           transform="translate(144.2716,552.2397)">
          <path
             d="m 0,0 c -3.28,0 -6.052,2.62 -6.052,5.722 0,0.028 -0.001,0.056 -0.003,0.085 -0.022,0.291 -0.6,7.177 -5.58,10.952 -4.428,3.356 -11.52,3.816 -14.19,3.989 -0.282,0.018 -0.509,0.032 -0.671,0.047 -0.137,0.013 -0.266,0.018 -0.387,0.018 -1.254,0 -1.862,-0.624 -2.113,-0.996 -0.333,-0.496 -0.359,-0.987 -0.359,-1.126 0,-1.698 -0.304,-2.209 -0.941,-2.574 -0.121,-0.023 -0.505,-0.071 -1.572,-0.071 -2.085,0 -5.496,0.179 -9.108,0.367 -3.926,0.205 -7.985,0.417 -10.706,0.417 -1.228,0 -2.102,-0.044 -2.672,-0.134 -1.786,-0.281 -3.104,-0.985 -3.934,-2.085 -1.255,1.83 -3.359,3.034 -5.741,3.034 -3.623,0 -6.604,-2.784 -6.926,-6.324 l -4.762,0 -3.474,2.956 c -0.392,0.333 -0.96,0.354 -1.375,0.052 l -3.898,-2.843 -4.285,0 0,0.023 c 0,8.469 8.741,11.787 9.098,11.919 9.616,3.364 16.201,4.43 16.247,4.437 4.671,0.655 9.993,0.987 15.82,0.987 9.932,0 17.977,-0.98 18.11,-0.995 0.176,-0.013 17.655,-1.391 25.378,-7.542 C 3.572,14.21 5.575,7.079 5.584,7.044 5.684,6.616 5.736,6.176 5.736,5.735 5.736,2.573 3.162,0 0,0 m -68.764,10.687 c 0,2.611 2.124,4.735 4.735,4.735 2.611,0 4.735,-2.124 4.735,-4.735 0,-2.611 -2.124,-4.735 -4.735,-4.735 -2.611,0 -4.735,2.124 -4.735,4.735 m -14.002,-0.714 2.802,2.043 2.402,-2.045 c -0.12,-1.329 -1.241,-2.374 -2.602,-2.374 -1.361,0 -2.482,1.046 -2.602,2.376 M -50.829,6.07 c 0.029,0 0.057,10e-4 0.085,0.003 2.489,-0.343 12.212,-1.679 16.08,-2.152 2.403,-0.294 3.422,-1.582 3.853,-2.574 l -57.938,0 0,7.916 3.844,0 c 0.441,-2.214 2.399,-3.888 4.741,-3.888 2.284,0 4.198,1.592 4.702,3.723 l 4.666,0 c 0.721,-3.072 3.478,-5.369 6.767,-5.369 2.935,0 5.446,1.83 6.467,4.406 2.384,-1.7 6.677,-2.065 6.733,-2.065 m 58.57,1.513 c -0.085,0.319 -2.18,7.885 -10.452,14.471 -8.254,6.573 -25.851,7.964 -26.543,8.015 -0.081,0.01 -8.254,1.006 -18.33,1.006 -5.929,0 -11.356,-0.339 -16.148,-1.012 -0.274,-0.043 -6.83,-1.101 -16.667,-4.542 -0.432,-0.158 -10.573,-3.972 -10.573,-14.012 l 0,-11.273 c 0,-0.614 0.498,-1.112 1.112,-1.112 l 50.12,0 c 0.157,-0.284 0.449,-0.484 0.797,-0.484 0.349,0 0.641,0.2 0.798,0.484 l 1.797,0 c 0.157,-0.284 0.45,-0.484 0.797,-0.484 0.348,0 0.64,0.2 0.797,0.484 l 1.498,0 c 0.158,-0.284 0.45,-0.484 0.798,-0.484 0.347,0 0.64,0.2 0.797,0.484 l 2.271,0 c 0.306,0 0.598,0.127 0.809,0.35 0.209,0.223 0.318,0.522 0.3,0.828 -0.105,1.769 -1.519,5.263 -6.112,5.826 -4.343,0.53 -16.115,2.156 -16.617,2.226 l -0.116,0.016 c -0.03,0.004 -0.06,0.008 -0.087,0.012 l -0.208,0.029 -10e-4,-0.004 c -0.107,0.012 -0.159,0.015 -0.159,0.015 -0.057,0 -0.112,-0.004 -0.167,-0.012 -1.831,0.318 -4.924,1.221 -5.136,2.229 -0.226,1.074 -0.123,1.934 0.306,2.557 0.462,0.67 1.326,1.109 2.57,1.305 0.448,0.07 1.231,0.106 2.326,0.106 2.663,0 6.693,-0.21 10.59,-0.414 3.642,-0.19 7.081,-0.37 9.224,-0.37 1.684,0 2.197,0.105 2.557,0.298 1.869,1.008 2.165,2.721 2.179,4.443 0.069,0.019 0.229,0.037 0.434,0.017 0.177,-0.016 0.424,-0.032 0.729,-0.052 2.488,-0.161 9.096,-0.589 12.992,-3.541 4.011,-3.041 4.655,-8.827 4.703,-9.317 0.03,-4.285 3.806,-7.894 8.274,-7.894 4.389,0 7.958,3.57 7.958,7.958 0,0.611 -0.07,1.221 -0.217,1.848"
             style="fill:#100f0d;fill-opacity:1;fill-rule:nonzero;stroke:none"
             id="path3548"
             inkscape:connector-curvature="0" />
        </g>
        <g
           id="g3550"
           transform="translate(144.1879,555.8865)">
          <path
             d="M 0,0 C -1.144,0 -2.075,0.931 -2.075,2.075 -2.075,3.219 -1.144,4.15 0,4.15 1.144,4.15 2.075,3.219 2.075,2.075 2.075,0.931 1.144,0 0,0 m 0,6.373 c -2.37,0 -4.298,-1.928 -4.298,-4.298 0,-2.369 1.928,-4.298 4.298,-4.298 2.37,0 4.298,1.929 4.298,4.298 0,2.37 -1.928,4.298 -4.298,4.298"
             style="fill:#100f0d;fill-opacity:1;fill-rule:nonzero;stroke:none"
             id="path3552"
             inkscape:connector-curvature="0" />
        </g>
      </g>
    </g>
  </g>
</svg>
