<?xml version="1.0" encoding="UTF-8" standalone="no"?>
<!-- Created with Inkscape (http://www.inkscape.org/) -->

<svg
   xmlns:dc="http://purl.org/dc/elements/1.1/"
   xmlns:cc="http://creativecommons.org/ns#"
   xmlns:rdf="http://www.w3.org/1999/02/22-rdf-syntax-ns#"
   xmlns:svg="http://www.w3.org/2000/svg"
   xmlns="http://www.w3.org/2000/svg"
   xmlns:sodipodi="http://sodipodi.sourceforge.net/DTD/sodipodi-0.dtd"
   xmlns:inkscape="http://www.inkscape.org/namespaces/inkscape"
   width="343.19519"
   height="230.73723"
   id="svg3975"
   version="1.1"
   inkscape:version="0.48.4 r9939"
   sodipodi:docname="New document 12">
  <defs
     id="defs3977">
    <clipPath
       clipPathUnits="userSpaceOnUse"
       id="clipPath3699">
      <path
         inkscape:connector-curvature="0"
         d="m 69.96,295.915 94.56,0 0,62.645 -94.56,0 0,-62.645 z"
         id="path3701" />
    </clipPath>
  </defs>
  <sodipodi:namedview
     id="base"
     pagecolor="#ffffff"
     bordercolor="#666666"
     borderopacity="1.0"
     inkscape:pageopacity="0.0"
     inkscape:pageshadow="2"
     inkscape:zoom="0.98994949"
     inkscape:cx="199.09988"
     inkscape:cy="141.29573"
     inkscape:document-units="px"
     inkscape:current-layer="layer1"
     showgrid="false"
     fit-margin-top="5"
     fit-margin-left="5"
     fit-margin-right="5"
     fit-margin-bottom="5"
     inkscape:window-width="2560"
     inkscape:window-height="1415"
     inkscape:window-x="1920"
     inkscape:window-y="0"
     inkscape:window-maximized="1" />
  <metadata
     id="metadata3980">
    <rdf:RDF>
      <cc:Work
         rdf:about="">
        <dc:format>image/svg+xml</dc:format>
        <dc:type
           rdf:resource="http://purl.org/dc/dcmitype/StillImage" />
        <dc:title></dc:title>
      </cc:Work>
    </rdf:RDF>
  </metadata>
  <g
     inkscape:label="Layer 1"
     inkscape:groupmode="layer"
     id="layer1"
     transform="translate(-175.90012,-442.92067)">
    <g
       transform="matrix(3.5236446,0,0,-3.5236446,-65.614061,1711.3572)"
       id="g3695">
      <g
         id="g3697"
         clip-path="url(#clipPath3699)">
        <g
           id="g3703"
           transform="translate(81.0443,326.1562)">
          <path
             inkscape:connector-curvature="0"
             d="m 0,0 -2.196,0 0,0.27 c 0,0.493 -0.399,0.892 -0.892,0.892 l -0.731,0 0,1.503 0.731,0 c 0.493,0 0.892,0.399 0.892,0.892 l 0,0.27 L 0,3.827 0,0 z m 0.892,5.611 -3.98,0 c -0.493,0 -0.892,-0.399 -0.892,-0.892 l 0,-0.27 -0.731,0 c -0.493,0 -0.892,-0.399 -0.892,-0.892 l 0,-3.287 c 0,-0.493 0.399,-0.892 0.892,-0.892 l 0.731,0 0,-0.27 c 0,-0.493 0.399,-0.892 0.892,-0.892 l 3.98,0 c 0.493,0 0.892,0.399 0.892,0.892 l 0,5.611 c 0,0.493 -0.399,0.892 -0.892,0.892"
             style="fill:#100f0d;fill-opacity:1;fill-rule:nonzero;stroke:none"
             id="path3705" />
        </g>
        <g
           id="g3707"
           transform="translate(120.6965,319.4543)">
          <path
             inkscape:connector-curvature="0"
             d="m 0,0 c -0.043,0.015 -0.088,0.018 -0.132,0.026 l 2.771,2.514 7.971,6.893 1.279,-0.17 c 0.333,-0.046 0.662,0.101 0.852,0.377 0.191,0.276 0.211,0.635 0.051,0.93 l -0.411,0.763 7.917,5.683 1.137,0.189 c 0.35,0.059 0.632,0.319 0.718,0.664 0.087,0.344 -0.04,0.707 -0.321,0.924 -0.66,0.508 -1.613,1.514 -1.667,2.163 -0.036,0.435 0.196,1.13 0.494,1.783 l 7.865,2.732 2.24,-4.221 L 1.566,-0.544 0,0 z m -4.205,2.363 c -0.05,0.038 -0.108,0.053 -0.162,0.078 0.511,2.002 0.517,3.647 0.517,3.734 -10e-4,0.397 -0.263,0.745 -0.644,0.855 l -2.699,0.779 c -0.081,0.023 -0.164,0.035 -0.248,0.035 l -4.986,0 -0.011,0.5 4.849,-0.107 c 0.056,-0.003 0.115,0.003 0.172,0.012 l 2.555,0.442 c 0.418,0.073 0.728,0.43 0.74,0.855 0.002,0.094 0.047,2.128 -0.531,4.403 l 3.514,2.044 0.216,-0.216 c 0.17,-0.17 0.398,-0.261 0.63,-0.261 0.098,0 0.197,0.016 0.293,0.049 l 18.505,6.426 c -0.097,-0.405 -0.149,-0.81 -0.117,-1.183 0.066,-0.806 0.555,-1.585 1.073,-2.197 -0.012,-0.008 -0.024,-0.016 -0.035,-0.024 L 10.704,12.324 C 10.365,12.081 10.243,11.638 10.4,11.259 10.161,11.278 9.927,11.201 9.747,11.045 L 1.456,3.875 -2.023,0.719 -4.205,2.363 z m -4.05,-9.906 -6.045,3.699 3.701,0.576 2.566,0 c 0.105,0 0.207,0.023 0.303,0.058 0.015,0.006 0.03,0.009 0.045,0.016 0.09,0.038 0.173,0.092 0.247,0.159 0.007,0.006 0.016,0.009 0.023,0.015 0.043,0.041 0.699,0.679 1.39,1.691 l 1.431,1.751 1.327,-1 c -0.044,-0.14 -0.054,-0.29 -0.025,-0.438 0.061,-0.308 0.278,-0.56 0.573,-0.666 l 0.239,-0.086 -5.775,-5.775 z m -9.851,6.059 c -0.179,0 -0.354,-0.054 -0.501,-0.155 l -1.16,-0.787 -24.747,1.624 -1.961,2.422 -2.477,2.832 0,8.222 2.422,3.075 2.376,1.624 24.283,1.125 0.879,-0.877 c 0.167,-0.167 0.394,-0.261 0.63,-0.261 l 0.002,0 10.29,0.016 1.536,-3.315 c 0.441,-1.456 0.575,-2.905 0.614,-3.742 l -1.716,-0.297 -5.695,0.126 c -0.238,0.007 -0.479,-0.088 -0.651,-0.261 -0.172,-0.172 -0.266,-0.407 -0.261,-0.65 l 0.052,-2.305 c 0.011,-0.485 0.407,-0.872 0.892,-0.872 l 5.732,0 1.901,-0.549 C -5.732,4.64 -5.935,3.03 -6.556,1.431 -6.805,0.79 -7.14,0.21 -7.469,-0.277 l -0.987,-1.207 -2.212,0 -7.438,0 z m 9.154,23.847 6.159,-5.269 -2.429,-1.413 c -0.615,1.506 -1.464,2.964 -1.508,3.039 -0.017,0.028 -0.04,0.05 -0.059,0.076 -0.021,0.028 -0.04,0.057 -0.064,0.082 -0.033,0.035 -0.07,0.064 -0.108,0.093 -0.026,0.02 -0.05,0.042 -0.077,0.059 -0.045,0.027 -0.094,0.046 -0.144,0.065 -0.025,0.01 -0.049,0.024 -0.076,0.032 -0.078,0.022 -0.159,0.034 -0.242,0.034 l -0.001,0 -5.936,-0.009 4.485,3.211 z M 42.827,-14.873 3.602,-1.251 32.444,20.278 c 0.353,0.264 0.461,0.745 0.254,1.133 l -2.469,4.652 12.598,4.375 c 0.249,0.086 0.447,0.279 0.541,0.525 0.042,0.109 1.007,2.703 -0.006,5.233 -1.093,2.732 -3.58,2.902 -3.685,2.908 -0.118,0.006 -0.231,-0.009 -0.34,-0.047 L 17.497,31.552 C 17.446,31.532 12.34,29.552 5.576,28.243 -0.944,26.98 -5.726,26.612 -6.14,26.582 l -1.085,0 c -0.114,0 -0.226,-0.022 -0.331,-0.064 l -1.679,-0.672 c -0.278,-0.111 -0.482,-0.355 -0.542,-0.648 -0.061,-0.294 0.031,-0.598 0.243,-0.81 l 0.148,-0.149 c -0.011,-0.008 -0.025,-0.01 -0.037,-0.018 l -7.086,-5.074 -1.484,-0.002 -0.897,0.894 c -0.177,0.177 -0.422,0.268 -0.671,0.26 L -44.49,19.143 c -0.165,-0.008 -0.325,-0.061 -0.462,-0.155 l -2.698,-1.844 c -0.074,-0.051 -0.141,-0.113 -0.197,-0.184 l -2.698,-3.425 c -0.124,-0.157 -0.192,-0.351 -0.192,-0.552 l 0,-8.866 c 0,-0.216 0.079,-0.425 0.221,-0.587 l 2.676,-3.059 2.185,-2.698 c 0.156,-0.194 0.386,-0.313 0.635,-0.329 l 25.442,-1.671 c 0.019,-10e-4 0.039,-0.002 0.058,-0.002 0.179,0 0.353,0.054 0.501,0.155 l 1.187,0.806 0.114,0 c -0.025,-0.331 0.126,-0.653 0.414,-0.829 l 7.754,-4.745 c -0.199,-0.211 -0.286,-0.505 -0.227,-0.79 0.06,-0.294 0.264,-0.538 0.542,-0.649 l 1.679,-0.671 c 0.105,-0.043 0.217,-0.064 0.331,-0.064 l 1.085,0 c 0.414,-0.031 5.196,-0.399 11.716,-1.661 6.764,-1.31 11.87,-3.29 11.957,-3.323 l 21.804,-7.491 c 0.093,-0.033 0.191,-0.049 0.29,-0.049 0.016,0 0.033,10e-4 0.05,0.002 0.105,0.006 2.592,0.176 3.685,2.908 1.013,2.529 0.048,5.123 0.006,5.232 -0.094,0.247 -0.292,0.439 -0.541,0.525"
             style="fill:#100f0d;fill-opacity:1;fill-rule:nonzero;stroke:none"
             id="path3709" />
        </g>
      </g>
    </g>
  </g>
</svg>
