<?xml version="1.0" encoding="UTF-8" standalone="no"?>
<!-- Created with Inkscape (http://www.inkscape.org/) -->

<svg
   xmlns:dc="http://purl.org/dc/elements/1.1/"
   xmlns:cc="http://creativecommons.org/ns#"
   xmlns:rdf="http://www.w3.org/1999/02/22-rdf-syntax-ns#"
   xmlns:svg="http://www.w3.org/2000/svg"
   xmlns="http://www.w3.org/2000/svg"
   xmlns:sodipodi="http://sodipodi.sourceforge.net/DTD/sodipodi-0.dtd"
   xmlns:inkscape="http://www.inkscape.org/namespaces/inkscape"
   id="svg3004"
   version="1.1"
   inkscape:version="0.48.4 r9939"
   width="329.20734"
   height="166.2739"
   xml:space="preserve"
   sodipodi:docname="CCK - Gather tools and wireless equipment.pdf"><metadata
     id="metadata3010"><rdf:RDF><cc:Work
         rdf:about=""><dc:format>image/svg+xml</dc:format><dc:type
           rdf:resource="http://purl.org/dc/dcmitype/StillImage" /><dc:title></dc:title></cc:Work></rdf:RDF></metadata><defs
     id="defs3008"><clipPath
       clipPathUnits="userSpaceOnUse"
       id="clipPath3020"><path
         d="M 0,792 612,792 612,0 0,0 0,792 z"
         id="path3022"
         inkscape:connector-curvature="0" /></clipPath><clipPath
       clipPathUnits="userSpaceOnUse"
       id="clipPath3058"><path
         d="M 0,792 612,792 612,0 0,0 0,792 z"
         id="path3060"
         inkscape:connector-curvature="0" /></clipPath><clipPath
       clipPathUnits="userSpaceOnUse"
       id="clipPath3764"><path
         d="m 60.306,562.799 83.067,0 0,18.961 -83.067,0 0,-18.961 z"
         id="path3766"
         inkscape:connector-curvature="0" /></clipPath><clipPath
       clipPathUnits="userSpaceOnUse"
       id="clipPath3776"><path
         d="m 37,524.08 132.255,0 0,88.56 -132.255,0 0,-88.56 z"
         id="path3778"
         inkscape:connector-curvature="0" /></clipPath><clipPath
       clipPathUnits="userSpaceOnUse"
       id="clipPath3792"><path
         d="m 56.745,437.962 86.268,0 0,79.118 -86.268,0 0,-79.118 z"
         id="path3794"
         inkscape:connector-curvature="0" /></clipPath><clipPath
       clipPathUnits="userSpaceOnUse"
       id="clipPath3804"><path
         d="m 37.575,343.54 131.68,0 0,89.78 -131.68,0 0,-89.78 z"
         id="path3806"
         inkscape:connector-curvature="0" /></clipPath><clipPath
       clipPathUnits="userSpaceOnUse"
       id="clipPath3824"><path
         d="m 56.44,272.109 83.744,0 0,51.62 -83.744,0 0,-51.62 z"
         id="path3826"
         inkscape:connector-curvature="0" /></clipPath><clipPath
       clipPathUnits="userSpaceOnUse"
       id="clipPath3836"><path
         d="m 36,252.76 131.68,0 0,89.78 -131.68,0 0,-89.78 z"
         id="path3838"
         inkscape:connector-curvature="0" /></clipPath><clipPath
       clipPathUnits="userSpaceOnUse"
       id="clipPath3856"><path
         d="m 66,163.76 70.84,0 0,89.78 -70.84,0 0,-89.78 z"
         id="path3858"
         inkscape:connector-curvature="0" /></clipPath><clipPath
       clipPathUnits="userSpaceOnUse"
       id="clipPath3900"><path
         d="m 66,163.76 70.84,0 0,67.106 -70.84,0 0,-67.106 z"
         id="path3902"
         inkscape:connector-curvature="0" /></clipPath><clipPath
       clipPathUnits="userSpaceOnUse"
       id="clipPath3924"><path
         d="m 66,163.76 70.84,0 0,89.78 -70.84,0 0,-89.78 z"
         id="path3926"
         inkscape:connector-curvature="0" /></clipPath><clipPath
       clipPathUnits="userSpaceOnUse"
       id="clipPath3940"><path
         d="m 66,163.76 70.84,0 0,67.106 -70.84,0 0,-67.106 z"
         id="path3942"
         inkscape:connector-curvature="0" /></clipPath><clipPath
       clipPathUnits="userSpaceOnUse"
       id="clipPath3956"><path
         d="m 66,163.76 70.84,0 0,89.78 -70.84,0 0,-89.78 z"
         id="path3958"
         inkscape:connector-curvature="0" /></clipPath><clipPath
       clipPathUnits="userSpaceOnUse"
       id="clipPath3976"><path
         d="m 51.8,92.079 99.359,0 0,48.643 -99.359,0 0,-48.643 z"
         id="path3978"
         inkscape:connector-curvature="0" /></clipPath><clipPath
       clipPathUnits="userSpaceOnUse"
       id="clipPath4000"><path
         d="m 37,72.98 131.68,0 0,89.78 -131.68,0 0,-89.78 z"
         id="path4002"
         inkscape:connector-curvature="0" /></clipPath></defs><sodipodi:namedview
     pagecolor="#ffffff"
     bordercolor="#666666"
     borderopacity="1"
     objecttolerance="10"
     gridtolerance="10"
     guidetolerance="10"
     inkscape:pageopacity="0"
     inkscape:pageshadow="2"
     inkscape:window-width="2560"
     inkscape:window-height="1415"
     id="namedview3006"
     showgrid="false"
     fit-margin-top="5"
     fit-margin-left="5"
     fit-margin-right="5"
     fit-margin-bottom="5"
     inkscape:zoom="1"
     inkscape:cx="185.74988"
     inkscape:cy="53.901256"
     inkscape:window-x="1920"
     inkscape:window-y="0"
     inkscape:window-maximized="1"
     inkscape:current-layer="g3012" /><g
     id="g3012"
     inkscape:groupmode="layer"
     inkscape:label="CCK - Gather tools and wireless equipment"
     transform="matrix(1.25,0,0,-1.25,-196.75012,607.37263)"><g
       id="g3852"><g
         id="g3854"
         clip-path="url(#clipPath3856)"><g
           id="g3860"
           transform="translate(22.2339,30.2464)"><path
             d="M 0,0 6.854,0 5.818,11.889 c -0.06,0.162 -0.093,0.336 -0.093,0.518 0,1.269 -1.032,2.301 -2.302,2.301 -1.268,0 -2.3,-1.032 -2.3,-2.301 0,-0.045 -0.002,-0.091 -0.007,-0.136 L 0,0 z m 8.482,-2.984 -10.116,0 c -0.419,0 -0.818,0.177 -1.101,0.487 -0.283,0.309 -0.423,0.723 -0.384,1.14 l 1.259,13.836 c 0.039,2.882 2.394,5.213 5.283,5.213 2.479,0 4.565,-1.715 5.133,-4.021 0.08,-0.161 0.13,-0.339 0.147,-0.529 L 9.968,-1.363 C 10.004,-1.779 9.864,-2.191 9.581,-2.499 9.299,-2.808 8.9,-2.984 8.482,-2.984"
             style="fill:#100f0d;fill-opacity:1;fill-rule:nonzero;stroke:none"
             id="path3862"
             inkscape:connector-curvature="0" /></g><g
           id="g3864"
           transform="translate(6.15,102.6528)"><path
             d="m 0,0 c 0,1.269 -1.032,2.302 -2.302,2.302 -1.269,0 -2.301,-1.033 -2.301,-2.302 0,-0.045 -0.002,-0.09 -0.006,-0.135 l -1.116,-12.272 6.854,0 -1.037,11.89 C 0.033,-0.356 0,-0.182 0,0"
             style="fill:#f24e9c;fill-opacity:1;fill-rule:nonzero;stroke:none"
             id="path3866"
             inkscape:connector-curvature="0" /></g><g
           id="g3868"
           transform="translate(1.5474,102.6528)"><path
             d="M 0,0 C 0,1.269 1.032,2.302 2.301,2.302 3.57,2.302 4.603,1.269 4.603,0 c 0,-0.182 0.032,-0.356 0.092,-0.517 l 1.037,-11.89 -6.855,0 1.117,12.272 C -0.002,-0.09 0,-0.045 0,0 M 7.58,0.735 C 7.564,0.925 7.513,1.103 7.433,1.265 6.865,3.57 4.779,5.286 2.301,5.286 c -2.89,0 -5.245,-2.331 -5.284,-5.213 l -1.259,-13.836 c -0.038,-0.418 0.101,-0.832 0.384,-1.141 0.283,-0.309 0.683,-0.486 1.102,-0.486 l 10.115,0 c 0.418,0 0.817,0.176 1.1,0.484 0.282,0.308 0.422,0.72 0.386,1.137 L 7.58,0.735 z"
             style="fill:#100f0d;fill-opacity:1;fill-rule:nonzero;stroke:none"
             id="path3870"
             inkscape:connector-curvature="0" /></g><g
           id="g3872"
           transform="translate(21.8939,106.5453)"><path
             d="m 0,0 c 0,1.269 -1.032,2.302 -2.302,2.302 -1.269,0 -2.301,-1.033 -2.301,-2.302 0,-0.045 -0.002,-0.091 -0.006,-0.135 l -1.116,-12.271 6.854,0 -1.037,11.889 C 0.033,-0.356 0,-0.182 0,0"
             style="fill:#f24e9c;fill-opacity:1;fill-rule:nonzero;stroke:none"
             id="path3874"
             inkscape:connector-curvature="0" /></g><g
           id="g3876"
           transform="translate(17.2913,106.5453)"><path
             d="M 0,0 C 0,1.269 1.032,2.302 2.301,2.302 3.57,2.302 4.603,1.269 4.603,0 c 0,-0.182 0.032,-0.356 0.092,-0.517 l 1.037,-11.889 -6.855,0 1.117,12.271 C -0.002,-0.091 0,-0.045 0,0 M 7.58,0.735 C 7.564,0.925 7.513,1.103 7.433,1.265 6.865,3.57 4.779,5.286 2.301,5.286 c -2.89,0 -5.245,-2.331 -5.284,-5.213 l -1.259,-13.836 c -0.038,-0.418 0.101,-0.832 0.384,-1.141 0.283,-0.309 0.683,-0.485 1.102,-0.485 l 10.115,0 c 0.418,0 0.817,0.175 1.1,0.483 0.282,0.308 0.422,0.72 0.386,1.137 L 7.58,0.735 z"
             style="fill:#100f0d;fill-opacity:1;fill-rule:nonzero;stroke:none"
             id="path3878"
             inkscape:connector-curvature="0" /></g><g
           id="g3880"
           transform="translate(-10.9216,57.1493)"><path
             d="m 0,0 c -1.893,0 -3.432,1.488 -3.544,3.355 l 1.259,12.134 -10e-4,0 c 0.079,1.198 1.068,2.152 2.286,2.152 1.269,0 2.302,-1.032 2.302,-2.301 L 3.562,3.526 C 3.54,1.578 1.952,0 0,0 M 5.282,15.499 5.269,15.498 C 5.183,18.338 2.86,20.624 0,20.624 c -2.859,0 -5.182,-2.285 -5.268,-5.125 l -0.008,0 -1.249,-11.933 -0.024,0 c 0,-3.612 2.938,-6.55 6.549,-6.55 3.611,0 6.55,2.938 6.55,6.55 L 5.282,15.499 z"
             style="fill:#100f0d;fill-opacity:1;fill-rule:nonzero;stroke:none"
             id="path3882"
             inkscape:connector-curvature="0" /></g><g
           id="g3884"
           transform="translate(22.2339,60.0821)"><path
             d="M 0,0 6.854,0 5.818,11.889 c -0.06,0.162 -0.093,0.336 -0.093,0.518 0,1.269 -1.032,2.301 -2.302,2.301 -1.268,0 -2.3,-1.032 -2.3,-2.301 0,-0.045 -0.002,-0.091 -0.007,-0.136 L 0,0 z m 8.482,-2.984 -10.116,0 c -0.419,0 -0.818,0.177 -1.101,0.487 -0.283,0.309 -0.423,0.723 -0.384,1.14 l 1.259,13.836 c 0.039,2.882 2.394,5.213 5.283,5.213 2.479,0 4.565,-1.715 5.133,-4.021 0.08,-0.161 0.13,-0.339 0.147,-0.529 L 9.968,-1.362 C 10.004,-1.779 9.864,-2.191 9.581,-2.499 9.299,-2.808 8.9,-2.984 8.482,-2.984"
             style="fill:#100f0d;fill-opacity:1;fill-rule:nonzero;stroke:none"
             id="path3886"
             inkscape:connector-curvature="0" /></g><g
           id="g3888"
           transform="translate(49.7804,193.0526)"><path
             d="m 0,0 c -0.379,0.802 -1.197,1.32 -2.084,1.32 -0.339,0 -0.669,-0.074 -0.98,-0.222 -0.556,-0.262 -0.976,-0.724 -1.183,-1.303 -0.207,-0.579 -0.177,-1.203 0.085,-1.759 0.02,-0.041 0.037,-0.082 0.052,-0.125 l 4.23,-11.573 6.198,2.926 -6.013,10.307 C 0.182,-0.309 0.078,-0.165 0,0"
             style="fill:#f24e9c;fill-opacity:1;fill-rule:nonzero;stroke:none"
             id="path3890"
             inkscape:connector-curvature="0" /></g><g
           id="g3892"
           transform="translate(49.9003,179.3905)"><path
             d="m 0,0 -4.23,11.573 c -0.015,0.043 -0.032,0.085 -0.052,0.125 -0.262,0.556 -0.292,1.18 -0.085,1.759 0.207,0.579 0.627,1.041 1.183,1.304 0.311,0.147 0.641,0.221 0.98,0.221 0.888,0 1.705,-0.518 2.084,-1.32 0.078,-0.165 0.182,-0.309 0.305,-0.429 L 6.198,2.926 0,0 z M 9.595,3.023 2.259,15.601 c -0.099,0.168 -0.225,0.31 -0.37,0.424 -0.992,1.206 -2.494,1.941 -4.093,1.941 -0.783,0 -1.542,-0.171 -2.254,-0.507 -1.277,-0.603 -2.241,-1.666 -2.718,-2.996 -0.468,-1.305 -0.409,-2.713 0.166,-3.973 l 4.768,-13.048 c 0.144,-0.394 0.447,-0.709 0.835,-0.868 0.181,-0.075 0.374,-0.112 0.566,-0.112 0.218,0 0.436,0.047 0.637,0.143 L 8.943,0.923 C 9.321,1.101 9.607,1.431 9.731,1.83 9.855,2.229 9.805,2.662 9.595,3.023"
             style="fill:#100f0d;fill-opacity:1;fill-rule:nonzero;stroke:none"
             id="path3894"
             inkscape:connector-curvature="0" /></g></g></g><g
       id="g3920"><g
         id="g3922"
         clip-path="url(#clipPath3924)"><g
           id="g3928"
           transform="translate(116.3458,63.6833)"><path
             d="m 0,0 c -0.287,-0.65 -0.943,-1.354 -1.576,-2.033 -1.155,-1.239 -2.463,-2.643 -2.3,-4.514 0.114,-1.297 0.918,-2.494 2.463,-3.662 0.268,-0.203 0.585,-0.301 0.898,-0.301 0.451,0 0.898,0.204 1.191,0.593 0.497,0.657 0.367,1.592 -0.291,2.089 -0.786,0.594 -1.255,1.155 -1.288,1.541 -0.048,0.549 0.779,1.437 1.51,2.22 0.763,0.82 1.631,1.75 2.121,2.86 C 3.26,-0.008 3.276,1.13 3.073,2.185 3.695,2.212 4.319,2.105 4.882,1.837 5.841,1.38 6.509,0.555 6.762,-0.487 7.178,-2.211 5.394,-3.936 3.819,-5.458 3.552,-5.715 3.295,-5.964 3.053,-6.207 2.472,-6.791 2.475,-7.735 3.058,-8.316 3.35,-8.606 3.73,-8.75 4.111,-8.75 c 0.383,0 0.766,0.146 1.058,0.44 0.227,0.229 0.472,0.464 0.723,0.707 1.936,1.872 4.589,4.433 3.769,7.819 C 9.192,2.149 7.95,3.682 6.164,4.531 4.898,5.133 3.46,5.306 2.082,5.074 1.217,7.121 0.756,8.4 2.88,10.221 c 1.876,1.605 5.615,0.706 7.799,-1.105 3.795,-3.15 2.813,-6.006 0.879,-10.005 l -0.363,-0.758 c -0.351,-0.745 -0.031,-1.633 0.714,-1.985 0.744,-0.347 1.634,-0.03 1.986,0.715 l 0.349,0.729 c 1.577,3.263 4.217,8.724 -1.659,13.6 C 9.433,14.026 4.086,15.179 0.94,12.486 -2.903,9.195 -1.567,6.041 -0.592,3.736 -0.566,3.675 -0.543,3.619 -0.518,3.559 -0.609,3.227 -0.591,2.863 -0.431,2.528 -0.315,2.285 -0.138,2.093 0.069,1.95 0.259,1.239 0.277,0.626 0,0"
             style="fill:#100f0d;fill-opacity:1;fill-rule:nonzero;stroke:none"
             id="path3930"
             inkscape:connector-curvature="0" /></g><g
           id="g3932"
           transform="translate(78.6022,54.0623)"><path
             d="m 0,0 c -0.821,-0.071 -1.431,-0.792 -1.361,-1.612 0.376,-4.468 -0.325,-5.839 -3.263,-6.382 -2.857,-0.525 -3.719,0.655 -5.434,3.019 l -0.491,0.672 c -1.598,2.164 -3.661,3.998 -5.657,5.771 -3.784,3.362 -7.359,6.539 -7.591,11.638 -0.308,6.789 4.638,11.109 9.365,12.249 4.123,0.994 9.494,-0.058 12.208,-6.002 0.341,-0.749 1.225,-1.08 1.976,-0.738 0.75,0.343 1.08,1.228 0.738,1.978 -2.857,6.256 -8.99,9.265 -15.623,7.663 -5.878,-1.419 -12.029,-6.807 -11.645,-15.285 0.29,-6.357 4.509,-10.107 8.591,-13.734 1.967,-1.748 3.825,-3.399 5.238,-5.314 l 0.476,-0.65 c 1.564,-2.156 3.175,-4.374 6.622,-4.374 0.542,0 1.13,0.055 1.77,0.173 6.399,1.185 5.939,6.637 5.693,9.566 C 1.542,-0.542 0.825,0.05 0,0"
             style="fill:#100f0d;fill-opacity:1;fill-rule:nonzero;stroke:none"
             id="path3934"
             inkscape:connector-curvature="0" /></g></g></g><g
       id="g3952"><g
         id="g3954"
         clip-path="url(#clipPath3956)"><g
           id="g3960"
           transform="translate(5.2395,57.1493)"><path
             d="m 0,0 c -1.893,0 -3.432,1.488 -3.544,3.355 l 1.259,12.134 -10e-4,0 c 0.079,1.198 1.068,2.152 2.286,2.152 1.269,0 2.302,-1.032 2.302,-2.301 L 3.562,3.526 C 3.54,1.578 1.952,0 0,0 M 5.282,15.499 5.269,15.498 C 5.183,18.338 2.86,20.624 0,20.624 c -2.859,0 -5.182,-2.285 -5.268,-5.125 l -0.008,0 -1.249,-11.933 -0.024,0 c 0,-3.612 2.938,-6.55 6.549,-6.55 3.611,0 6.55,2.938 6.55,6.55 L 5.282,15.499 z"
             style="fill:#100f0d;fill-opacity:1;fill-rule:nonzero;stroke:none"
             id="path3962"
             inkscape:connector-curvature="0" /></g><g
           id="g3964"
           transform="translate(-10.9216,28.7804)"><path
             d="m 0,0 c -1.893,0 -3.432,1.488 -3.544,3.355 l 1.259,12.134 -10e-4,0 c 0.079,1.198 1.068,2.152 2.286,2.152 1.269,0 2.302,-1.032 2.302,-2.301 L 3.562,3.526 C 3.54,1.578 1.952,0 0,0 M 5.282,15.499 5.269,15.498 C 5.183,18.337 2.86,20.624 0,20.624 c -2.859,0 -5.182,-2.286 -5.268,-5.125 l -0.008,0 -1.249,-11.933 -0.024,0 c 0,-3.612 2.938,-6.55 6.549,-6.55 3.611,0 6.55,2.938 6.55,6.55 L 5.282,15.499 z"
             style="fill:#100f0d;fill-opacity:1;fill-rule:nonzero;stroke:none"
             id="path3966"
             inkscape:connector-curvature="0" /></g><g
           id="g3968"
           transform="translate(5.2395,28.7804)"><path
             d="m 0,0 c -1.893,0 -3.432,1.488 -3.544,3.355 l 1.259,12.134 -10e-4,0 c 0.079,1.198 1.068,2.152 2.286,2.152 1.269,0 2.302,-1.032 2.302,-2.301 L 3.562,3.526 C 3.54,1.578 1.952,0 0,0 M 5.282,15.499 5.269,15.498 C 5.183,18.337 2.86,20.624 0,20.624 c -2.859,0 -5.182,-2.286 -5.268,-5.125 l -0.008,0 -1.249,-11.933 -0.024,0 c 0,-3.612 2.938,-6.55 6.549,-6.55 3.611,0 6.55,2.938 6.55,6.55 L 5.282,15.499 z"
             style="fill:#100f0d;fill-opacity:1;fill-rule:nonzero;stroke:none"
             id="path3970"
             inkscape:connector-curvature="0" /></g></g></g><g
       id="g3972"
       transform="matrix(2.5701357,0,0,2.5701357,28.266822,120.22347)"><g
         id="g3974"
         clip-path="url(#clipPath3976)"><g
           id="g3980"
           transform="translate(54.5737,140.2461)"><path
             d="m 0,0 c -0.635,0.635 -1.663,0.635 -2.298,0 -0.634,-0.634 -0.634,-1.663 0,-2.298 l 9.771,-9.771 c 0.318,-0.318 0.733,-0.476 1.149,-0.476 0.416,0 0.832,0.158 1.149,0.476 0.635,0.634 0.635,1.663 0,2.297 L 0,0 z"
             style="fill:#100f0d;fill-opacity:1;fill-rule:nonzero;stroke:none"
             id="path3982"
             inkscape:connector-curvature="0" /></g><g
           id="g3984"
           transform="translate(53.4281,122.0739)"><path
             d="M 0,0 C 2.505,0.006 9.136,0.015 9.726,0.001 9.74,0 9.754,0 9.768,0 10.647,0 11.37,0.7 11.392,1.583 11.415,2.48 10.707,3.226 9.81,3.249 9.051,3.269 0.362,3.251 -0.006,3.25 -0.904,3.248 -1.63,2.519 -1.628,1.622 -1.626,0.725 -0.899,0 -0.003,0 L 0,0 z"
             style="fill:#100f0d;fill-opacity:1;fill-rule:nonzero;stroke:none"
             id="path3986"
             inkscape:connector-curvature="0" /></g><g
           id="g3988"
           transform="translate(62.047,118.5829)"><path
             d="m 0,0 -8.477,-8.477 c -0.635,-0.635 -0.635,-1.663 0,-2.298 0.317,-0.317 0.733,-0.476 1.148,-0.476 0.416,0 0.832,0.159 1.149,0.476 l 8.478,8.477 C 2.932,-1.663 2.932,-0.635 2.298,0 1.663,0.635 0.635,0.635 0,0"
             style="fill:#100f0d;fill-opacity:1;fill-rule:nonzero;stroke:none"
             id="path3990"
             inkscape:connector-curvature="0" /></g><g
           id="g3992"
           transform="translate(145.2121,112.1989)"><path
             d="m 0,0 c -1.811,-1.838 -3.318,-4.021 -4.476,-6.491 -0.427,-0.912 -0.772,-1.832 -1.104,-2.722 -0.415,-1.107 -0.805,-2.152 -1.342,-3.173 -1.468,-2.796 -3.841,-5.784 -6.092,-5.784 -0.31,0 -0.623,0.056 -0.928,0.169 -0.503,0.183 -0.639,0.455 -0.705,0.696 -0.467,1.688 1.897,5.627 3.724,7.885 2.32,2.866 4.8,5.468 6.919,7.635 0.351,0.36 0.733,0.695 1.136,1.05 1.185,1.042 2.527,2.222 2.964,4.105 C 0.294,4.224 0.321,5.071 0.348,5.89 0.37,6.6 0.393,7.27 0.521,7.904 0.586,8.223 0.671,8.539 0.755,8.854 1.361,9.018 1.884,9.381 2.244,9.876 3.255,9.035 3.988,7.726 3.998,6.656 4.022,4.083 1.504,1.527 0,0 m -0.601,12.226 c -0.024,-0.038 -0.042,-0.08 -0.059,-0.121 0,0.041 -0.005,0.081 -0.006,0.121 l 0.065,0 z M -22.667,8.751 c -1.495,0 -2.712,1.217 -2.712,2.712 0,1.496 1.217,2.713 2.712,2.713 1.495,0 2.713,-1.217 2.713,-2.713 0,-1.495 -1.218,-2.712 -2.713,-2.712 m -5.956,0 c -1.496,0 -2.712,1.217 -2.712,2.712 0,1.496 1.216,2.713 2.712,2.713 1.495,0 2.712,-1.217 2.712,-2.713 0,-1.495 -1.217,-2.712 -2.712,-2.712 m 31.344,3.165 c -0.218,1.281 -1.327,2.26 -2.667,2.26 l -0.891,0 c -0.709,4.244 -3.52,7.426 -6.877,7.426 l -44.919,0 c -2.411,2.368 -5.71,3.834 -9.347,3.834 l -15.196,0 c -0.539,0 -0.975,-0.437 -0.975,-0.975 l 0,-24.755 c 0,-0.538 0.436,-0.975 0.975,-0.975 l 15.196,0 c 3.637,0 6.936,1.466 9.346,3.834 l 44.92,0 c 2.685,0 5.025,2.037 6.216,5.025 C -1.563,7.035 -1.583,6.488 -1.601,5.953 -1.626,5.195 -1.649,4.478 -1.804,3.81 -2.099,2.538 -3.052,1.7 -4.155,0.729 -4.569,0.366 -4.996,-0.01 -5.399,-0.421 c -2.15,-2.2 -4.668,-4.843 -7.04,-7.772 -0.515,-0.637 -5.005,-6.314 -4.088,-9.632 0.264,-0.951 0.926,-1.646 1.915,-2.008 0.521,-0.191 1.058,-0.287 1.598,-0.287 3.819,0 6.74,4.775 7.818,6.827 0.594,1.129 1.025,2.282 1.442,3.397 0.334,0.892 0.649,1.736 1.044,2.578 1.064,2.268 2.443,4.27 4.098,5.95 1.718,1.742 4.592,4.659 4.56,8.041 -0.016,1.894 -1.359,4.103 -3.227,5.243"
             style="fill:#100f0d;fill-opacity:1;fill-rule:nonzero;stroke:none"
             id="path3994"
             inkscape:connector-curvature="0" /></g></g></g><g
       id="g3996"
       transform="matrix(2.5701357,0,0,2.5701357,28.266822,120.22347)"><g
         id="g3998"
         clip-path="url(#clipPath4000)"><g
           id="g4004"
           transform="translate(122.5455,124.425)"><path
             d="m 0,0 c -0.421,0 -0.762,-0.342 -0.762,-0.763 0,-0.42 0.341,-0.762 0.762,-0.762 0.42,0 0.762,0.342 0.762,0.762 C 0.762,-0.342 0.42,0 0,0"
             style="fill:#100f0d;fill-opacity:1;fill-rule:nonzero;stroke:none"
             id="path4006"
             inkscape:connector-curvature="0" /></g><g
           id="g4008"
           transform="translate(116.589,124.425)"><path
             d="m 0,0 c -0.42,0 -0.762,-0.342 -0.762,-0.763 0,-0.42 0.342,-0.762 0.762,-0.762 0.42,0 0.762,0.342 0.762,0.762 C 0.762,-0.342 0.42,0 0,0"
             style="fill:#100f0d;fill-opacity:1;fill-rule:nonzero;stroke:none"
             id="path4010"
             inkscape:connector-curvature="0" /></g></g></g></g></svg>