<?xml version="1.0" encoding="UTF-8" standalone="no"?>
<!-- Created with Inkscape (http://www.inkscape.org/) -->

<svg
   xmlns:dc="http://purl.org/dc/elements/1.1/"
   xmlns:cc="http://creativecommons.org/ns#"
   xmlns:rdf="http://www.w3.org/1999/02/22-rdf-syntax-ns#"
   xmlns:svg="http://www.w3.org/2000/svg"
   xmlns="http://www.w3.org/2000/svg"
   xmlns:sodipodi="http://sodipodi.sourceforge.net/DTD/sodipodi-0.dtd"
   xmlns:inkscape="http://www.inkscape.org/namespaces/inkscape"
   width="310.44791"
   height="266.74637"
   id="svg4289"
   version="1.1"
   inkscape:version="0.48.4 r9939"
   sodipodi:docname="New document 18">
  <defs
     id="defs4291">
    <clipPath
       clipPathUnits="userSpaceOnUse"
       id="clipPath3820">
      <path
         inkscape:connector-curvature="0"
         d="m 55.675,172.218 76.085,0 0,65.018 -76.085,0 0,-65.018 z"
         id="path3822" />
    </clipPath>
  </defs>
  <sodipodi:namedview
     id="base"
     pagecolor="#ffffff"
     bordercolor="#666666"
     borderopacity="1.0"
     inkscape:pageopacity="0.0"
     inkscape:pageshadow="2"
     inkscape:zoom="1"
     inkscape:cx="109.67076"
     inkscape:cy="49.37323"
     inkscape:document-units="px"
     inkscape:current-layer="layer1"
     showgrid="false"
     fit-margin-top="5"
     fit-margin-left="5"
     fit-margin-right="5"
     fit-margin-bottom="5"
     inkscape:window-width="2560"
     inkscape:window-height="1415"
     inkscape:window-x="1920"
     inkscape:window-y="0"
     inkscape:window-maximized="1" />
  <metadata
     id="metadata4294">
    <rdf:RDF>
      <cc:Work
         rdf:about="">
        <dc:format>image/svg+xml</dc:format>
        <dc:type
           rdf:resource="http://purl.org/dc/dcmitype/StillImage" />
        <dc:title></dc:title>
      </cc:Work>
    </rdf:RDF>
  </metadata>
  <g
     inkscape:label="Layer 1"
     inkscape:groupmode="layer"
     id="layer1"
     transform="translate(-265.32924,-314.98903)">
    <g
       id="g3816"
       transform="matrix(3.9488508,0,0,-3.9488508,50.476975,1256.7986)">
      <g
         id="g3818"
         clip-path="url(#clipPath3820)">
        <g
           id="g3824"
           transform="translate(111.2799,183.56)">
          <path
             d="m 0,0 c -10.084,0 -16.273,1.904 -16.835,3.261 l 2.487,3.841 8.441,2.05 0.278,-4.144 C -5.609,4.705 -5.396,4.42 -5.101,4.344 -4.998,4.318 -2.543,3.611 0.977,3.611 l 0.22,0 0,0.056 c 3.292,0 5.342,1.467 5.417,1.528 0.175,0.145 0.215,0.394 0.199,0.62 L 6.583,9.132 14.101,7.106 16.828,3.248 C 16.234,1.893 10.054,0 0,0 m 6.456,-7.201 c 0,-0.389 -0.316,-0.705 -0.705,-0.705 l -10.473,0 c -0.39,0 -0.706,0.316 -0.706,0.705 l 0,3.587 c 0,0.39 0.316,0.706 0.706,0.706 l 10.473,0 c 0.389,0 0.705,-0.316 0.705,-0.706 l 0,-3.587 z m -9.913,35.328 c -0.699,0 -1.265,0.567 -1.265,1.266 0,0.698 0.566,1.265 1.265,1.265 0.7,0 1.266,-0.567 1.266,-1.265 0,-0.699 -0.566,-1.266 -1.266,-1.266 m -4.432,2.534 c -0.39,0 -0.706,0.316 -0.706,0.705 0,1.542 -2.535,2.375 -2.56,2.384 -0.372,0.115 -0.579,0.51 -0.465,0.882 0.115,0.372 0.506,0.58 0.881,0.466 0.146,-0.045 3.555,-1.124 3.555,-3.732 0,-0.389 -0.316,-0.705 -0.705,-0.705 m -12.065,9.635 -4.119,0 c 0.262,1.387 0.644,3.757 0.597,5.549 -0.042,1.621 -0.401,3.318 -0.683,4.424 l 4.592,0.039 0.258,-4.498 -0.645,-5.514 z m -19.839,4.498 c -0.121,-0.893 -0.411,-1.858 -0.639,-2.521 l -3.011,1.034 -1.343,1.487 0.027,0 -0.135,0.15 0,0.834 1.407,1.58 3.128,1.054 c 0.274,-0.716 0.625,-1.828 0.625,-2.828 0,-0.25 -0.024,-0.517 -0.062,-0.79 l 0.003,0 z m 47.345,-4.969 6.681,0 c 0.28,0 0.507,-0.236 0.507,-0.515 0,-0.281 -0.227,-0.517 -0.507,-0.517 l -6.681,0.006 c -0.279,0 -0.507,0.23 -0.507,0.511 0,0.279 0.228,0.515 0.507,0.515 m 0,1.882 8.199,0 c 0.28,0 0.507,-0.224 0.507,-0.503 0,-0.279 -0.227,-0.503 -0.507,-0.503 L 7.552,40.699 c -0.279,0 -0.507,0.226 -0.507,0.505 0,0.279 0.228,0.503 0.507,0.503 m 0,2.351 8.199,0 c 0.28,0 0.507,-0.378 0.507,-0.658 0,-0.28 -0.227,-0.659 -0.507,-0.659 l -8.199,0.076 c -0.279,0 -0.507,0.303 -0.507,0.583 0,0.28 0.228,0.658 0.507,0.658 m 0,1.881 6.681,0 c 0.28,0 0.507,-0.233 0.507,-0.512 0,-0.28 -0.227,-0.513 -0.507,-0.513 l -6.681,0.003 c -0.279,0 -0.507,0.23 -0.507,0.51 0,0.279 0.228,0.512 0.507,0.512 M 18.276,3.486 C 18.274,3.508 18.273,3.531 18.269,3.553 18.264,3.572 18.257,3.589 18.253,3.608 18.245,3.633 18.238,3.658 18.228,3.683 18.221,3.699 18.212,3.714 18.204,3.73 18.191,3.755 18.178,3.779 18.162,3.803 18.159,3.808 18.157,3.812 18.154,3.817 L 15.106,8.128 C 15.011,8.262 14.872,8.359 14.713,8.402 L 6.48,10.621 6.358,12.378 c -0.005,0.084 -0.507,8.327 -0.606,11.32 -0.107,3.179 -1.458,5.501 -1.515,5.598 -0.026,0.043 -0.039,0.064 -0.073,0.1 -0.015,0.02 -0.368,0.486 -0.017,1.519 0.289,0.85 1.139,0.916 1.393,0.916 l 4.77,-0.001 c 0.027,0 0.053,0.001 0.08,0.005 0.101,0.011 10.09,1.257 10.09,10.535 0,6.683 -6.399,8.807 -6.483,8.833 -0.252,0.073 -6.325,1.784 -18.687,2.358 -1.639,0.076 -3.394,0.115 -5.218,0.115 -5.071,0 -9.101,-0.3 -9.142,-0.303 -0.383,-0.029 -0.673,-0.36 -0.651,-0.744 l 0.033,-0.573 -5.739,0.007 c -0.299,-0.002 -0.58,-0.071 -0.755,-0.314 -0.175,-0.242 -0.224,-0.554 -0.132,-0.84 0.005,-0.013 0.224,-0.698 0.449,-1.677 l -1.437,0 c -0.248,1.265 -0.512,2.165 -0.533,2.236 -0.118,0.402 -0.486,0.586 -0.903,0.586 l -0.02,0 -8.025,-0.089 c -0.202,-0.004 -0.397,0.017 -0.557,-0.107 l -1.974,-1.539 c -0.238,0.167 -0.547,0.222 -0.84,0.124 l -4.19,-1.411 c -0.155,-0.052 -0.293,-0.144 -0.402,-0.266 l -1.812,-2.035 c -0.097,-0.109 -0.164,-0.24 -0.201,-0.381 l -5.158,0 -3.708,-0.229 0,-0.489 0,-0.12 0,-0.488 3.708,-0.23 5.121,0 0,-0.242 c 0,-0.233 0.087,-0.457 0.243,-0.63 l 1.856,-2.056 c 0.107,-0.118 0.242,-0.207 0.393,-0.259 l 4.107,-1.411 c 0.102,-0.034 0.205,-0.051 0.306,-0.051 0.202,0 0.395,0.071 0.555,0.19 0.011,-0.009 0.019,-0.02 0.031,-0.028 l 2.277,-1.6 c 0.155,-0.109 0.34,-0.185 0.529,-0.187 l 7.618,-0.106 0.009,0 c 0.382,0 0.726,0.242 0.871,0.595 0.028,0.071 0.454,1.134 0.778,2.698 l 1.467,0 c -0.199,-1.212 -0.401,-2.129 -0.405,-2.147 -0.062,-0.279 0.006,-0.571 0.185,-0.793 0.178,-0.223 0.448,-0.353 0.733,-0.353 l 5.017,0 c -0.089,-0.265 -0.162,-0.677 0.008,-1.143 0.242,-0.666 0.878,-1.175 1.891,-1.513 1.589,-0.529 3.397,-1.347 4.148,-1.697 l 0.188,-1.927 c 0.029,-0.3 0.247,-0.549 0.541,-0.618 0.027,-0.007 2.757,-0.672 2.739,-2.369 -0.014,-1.245 -0.457,-1.898 -0.471,-1.918 -0.131,-0.179 -0.171,-0.409 -0.107,-0.621 0.065,-0.212 0.224,-0.382 0.432,-0.458 l 1.923,-0.708 c 0.038,-0.015 0.078,-0.025 0.118,-0.033 l 3.288,-0.599 c -0.054,-1.357 -0.115,-4.574 0.41,-6.441 L -3.391,12.3 -5.059,10.727 c -0.105,0.025 -0.218,0.03 -0.331,0.003 l -9.564,-2.324 c -0.175,-0.042 -0.327,-0.15 -0.425,-0.302 L -18.17,3.793 -18.171,3.792 c -0.025,-0.039 -0.046,-0.08 -0.063,-0.124 -0.005,-0.012 -0.007,-0.025 -0.012,-0.038 -0.009,-0.03 -0.019,-0.06 -0.025,-0.091 -0.004,-0.022 -0.004,-0.044 -0.007,-0.066 -0.001,-0.021 -0.006,-0.042 -0.006,-0.063 0,-0.002 10e-4,-0.004 10e-4,-0.006 0,-0.052 0.008,-0.105 0.02,-0.156 0.008,-0.086 0.01,-0.173 0.032,-0.257 l 1.359,-9.568 c 0.093,-3.292 8.52,-4.766 16.872,-4.766 8.352,0 16.779,1.474 16.872,4.766 l 1.359,9.568 c 0.023,0.088 0.025,0.178 0.034,0.268 0.009,0.041 0.014,0.082 0.015,0.124 0,0.009 0.004,0.018 0.004,0.027 0,0.003 -10e-4,0.005 -10e-4,0.008 0,0.022 -0.004,0.045 -0.007,0.068"
             style="fill:#000000;fill-opacity:1;fill-rule:nonzero;stroke:none"
             id="path3826"
             inkscape:connector-curvature="0" />
        </g>
      </g>
    </g>
  </g>
</svg>
