<?xml version="1.0" encoding="UTF-8" standalone="no"?>
<!-- Created with Inkscape (http://www.inkscape.org/) -->

<svg
   xmlns:dc="http://purl.org/dc/elements/1.1/"
   xmlns:cc="http://creativecommons.org/ns#"
   xmlns:rdf="http://www.w3.org/1999/02/22-rdf-syntax-ns#"
   xmlns:svg="http://www.w3.org/2000/svg"
   xmlns="http://www.w3.org/2000/svg"
   xmlns:sodipodi="http://sodipodi.sourceforge.net/DTD/sodipodi-0.dtd"
   xmlns:inkscape="http://www.inkscape.org/namespaces/inkscape"
   width="304.7359"
   height="242.30344"
   id="svg3950"
   version="1.1"
   inkscape:version="0.48.4 r9939"
   sodipodi:docname="New document 5">
  <defs
     id="defs3952">
    <clipPath
       clipPathUnits="userSpaceOnUse"
       id="clipPath3806">
      <path
         inkscape:connector-curvature="0"
         d="m 53.791,508.222 92.781,0 0,73.128 -92.781,0 0,-73.128 z"
         id="path3808" />
    </clipPath>
  </defs>
  <sodipodi:namedview
     id="base"
     pagecolor="#ffffff"
     bordercolor="#666666"
     borderopacity="1.0"
     inkscape:pageopacity="0.0"
     inkscape:pageshadow="2"
     inkscape:zoom="1"
     inkscape:cx="191.71466"
     inkscape:cy="116.65172"
     inkscape:document-units="px"
     inkscape:current-layer="layer1"
     showgrid="false"
     fit-margin-top="5"
     fit-margin-left="5"
     fit-margin-right="5"
     fit-margin-bottom="5"
     inkscape:window-width="2560"
     inkscape:window-height="1415"
     inkscape:window-x="1920"
     inkscape:window-y="0"
     inkscape:window-maximized="1" />
  <metadata
     id="metadata3955">
    <rdf:RDF>
      <cc:Work
         rdf:about="">
        <dc:format>image/svg+xml</dc:format>
        <dc:type
           rdf:resource="http://purl.org/dc/dcmitype/StillImage" />
        <dc:title></dc:title>
      </cc:Work>
    </rdf:RDF>
  </metadata>
  <g
     inkscape:label="Layer 1"
     inkscape:groupmode="layer"
     id="layer1"
     transform="translate(-183.28534,-406.71047)">
    <g
       id="g3802"
       transform="matrix(3.1766905,0,0,-3.1766905,17.407347,2258.4779)">
      <g
         id="g3804"
         clip-path="url(#clipPath3806)">
        <g
           id="g3810"
           transform="translate(110.8382,553.4015)">
          <path
             d="m 0,0 c -0.765,0 -1.385,0.62 -1.385,1.385 0,0.763 0.62,1.383 1.385,1.383 0.765,0 1.384,-0.62 1.384,-1.383 C 1.384,0.62 0.765,0 0,0 m -4.849,2.771 c -0.426,0 -0.772,0.346 -0.772,0.772 0,1.686 -2.773,2.598 -2.8,2.607 -0.407,0.127 -0.635,0.559 -0.509,0.966 0.126,0.406 0.554,0.634 0.964,0.509 0.159,-0.049 3.889,-1.229 3.889,-4.082 0,-0.426 -0.346,-0.772 -0.772,-0.772 m -11.326,10.54 -6.378,0 c 0.286,1.518 0.704,4.111 0.653,6.071 -0.046,1.773 -0.438,3.63 -0.747,4.84 l 6.397,0.053 c 0.315,-1.218 0.884,-3.677 0.886,-5.488 0.001,-2.404 -0.509,-4.467 -0.811,-5.476 M -28.624,4.135 c 1.05,-0.203 1.779,-0.552 2.095,-0.785 -0.462,-0.408 -1.944,-1.046 -4.083,-1.31 -0.52,-0.055 -1.067,-0.099 -1.582,-0.115 -0.132,-0.003 -0.264,-0.007 -0.399,-0.007 -1.177,0 -2.88,0.263 -3.816,0.425 -1.271,0.301 -2.148,0.701 -2.5,0.991 0.347,0.233 1.114,0.574 2.2,0.782 0.067,-0.253 0.256,-0.462 0.516,-0.542 0.071,-0.022 1.758,-0.532 3.538,-0.532 1.952,0 3.465,0.502 3.529,0.523 0.262,0.089 0.446,0.309 0.502,0.57 m -4.064,-36.218 c -3.173,0 -3.852,1.318 -3.961,1.598 l 0.043,5.072 0.135,26.2 c 1.274,-0.271 2.661,-0.412 3.878,-0.412 0.174,0 0.351,0.004 0.532,0.01 0.536,0.017 1.074,0.056 1.601,0.119 0.598,0.062 1.158,0.137 1.594,0.202 l 0.115,-26.13 0.096,-4.868 c -0.005,-0.073 -0.147,-1.791 -4.033,-1.791 m -2.483,36.998 c 0.004,0.03 0.004,0.062 0.004,0.093 l 0.247,6.345 4.343,-0.061 0.395,-6.415 c -0.547,-0.129 -1.445,-0.292 -2.473,-0.292 -0.968,0 -1.93,0.181 -2.516,0.317 l 0,0.013 z m -4.628,13.001 c -0.005,-0.03 -0.01,-0.06 -0.015,-0.09 -0.019,-0.105 -0.039,-0.209 -0.061,-0.313 -0.006,-0.026 -0.012,-0.052 -0.017,-0.078 -0.068,-0.316 -0.147,-0.625 -0.231,-0.921 -0.015,-0.053 -0.03,-0.104 -0.044,-0.155 -0.021,-0.069 -0.041,-0.137 -0.061,-0.204 -0.022,-0.071 -0.044,-0.14 -0.066,-0.209 -0.015,-0.048 -0.03,-0.096 -0.045,-0.142 -0.037,-0.115 -0.074,-0.226 -0.11,-0.329 l -3.294,1.131 -1.587,1.758 0,0.912 1.539,1.729 3.423,1.153 c 0.048,-0.127 0.099,-0.268 0.149,-0.415 0.013,-0.038 0.026,-0.076 0.039,-0.116 0.106,-0.314 0.208,-0.662 0.294,-1.028 0.007,-0.033 0.014,-0.065 0.022,-0.099 0.042,-0.186 0.079,-0.375 0.107,-0.565 l 0,0 c 0.044,-0.292 0.071,-0.586 0.071,-0.872 0,-0.359 -0.045,-0.75 -0.113,-1.147 m 51.842,-5.119 7.308,0 c 0.306,0 0.554,-0.259 0.554,-0.564 0,-0.307 -0.248,-0.565 -0.554,-0.565 l -7.308,0.006 c -0.306,0 -0.554,0.252 -0.554,0.559 0,0.305 0.248,0.564 0.554,0.564 m 0,2.058 8.97,0 c 0.305,0 0.554,-0.245 0.554,-0.55 0,-0.306 -0.249,-0.55 -0.554,-0.55 l -8.97,-0.002 c -0.306,0 -0.554,0.246 -0.554,0.552 0,0.305 0.248,0.55 0.554,0.55 m 0,2.572 8.97,0 c 0.305,0 0.554,-0.414 0.554,-0.719 0,-0.307 -0.249,-0.721 -0.554,-0.721 l -8.97,0.083 c -0.306,0 -0.554,0.331 -0.554,0.638 0,0.305 0.248,0.719 0.554,0.719 m 0,2.058 7.308,0 c 0.306,0 0.554,-0.255 0.554,-0.561 0,-0.305 -0.248,-0.561 -0.554,-0.561 l -7.308,0.004 c -0.306,0 -0.554,0.252 -0.554,0.557 0,0.306 0.248,0.561 0.554,0.561 m 22.846,-63.02 c -0.099,-0.01 -10.172,-0.913 -18.058,3.189 -8.015,4.167 -10.884,10.958 -11.729,13.588 3.595,0.003 5.833,1.605 5.914,1.672 0.192,0.159 0.236,0.43 0.218,0.678 l -0.498,7.18 C 10.73,-17.137 10.182,-8.119 10.073,-4.846 9.957,-1.368 8.478,1.172 8.416,1.279 8.388,1.326 8.373,1.349 8.337,1.388 8.32,1.409 7.935,1.92 8.318,3.049 8.633,3.979 9.564,4.052 9.842,4.052 L 15.059,4.05 c 0.03,0 0.059,0.002 0.088,0.005 0.11,0.013 11.038,1.376 11.038,11.525 0,7.311 -6.999,9.634 -7.093,9.663 -0.275,0.08 -6.918,1.951 -20.441,2.58 -1.793,0.083 -3.714,0.125 -5.708,0.125 -5.548,0 -9.957,-0.328 -10.001,-0.331 -0.419,-0.032 -0.736,-0.394 -0.712,-0.814 l 0.036,-0.626 -6.278,0.008 c -0.328,-0.003 -0.635,-0.079 -0.826,-0.344 -0.191,-0.266 -0.245,-0.607 -0.144,-0.919 0.005,-0.015 0.244,-0.764 0.491,-1.835 l -1.572,0 c -0.272,1.384 -0.56,2.369 -0.583,2.446 -0.129,0.44 -0.531,0.641 -0.988,0.641 l -0.023,0 -8.778,-0.097 c -0.221,-0.004 -0.434,0.018 -0.609,-0.118 l -2.16,-1.682 c -0.26,0.182 -0.597,0.242 -0.918,0.135 l -4.584,-1.544 c -0.169,-0.057 -0.321,-0.157 -0.44,-0.29 l -1.982,-2.226 c -0.107,-0.12 -0.179,-0.264 -0.22,-0.417 l -5.642,0 -4.057,-0.252 0,-0.534 0,-0.131 0,-0.534 4.057,-0.252 5.602,0 0,-0.264 c 0,-0.255 0.094,-0.501 0.265,-0.69 l 2.031,-2.249 c 0.117,-0.129 0.265,-0.226 0.43,-0.283 l 4.493,-1.543 c 0.111,-0.038 0.223,-0.056 0.334,-0.056 0.222,0 0.432,0.077 0.608,0.207 0.012,-0.01 0.021,-0.022 0.033,-0.03 l 2.49,-1.751 c 0.075,-0.052 0.157,-0.096 0.242,-0.13 l -0.224,-5.756 c -1.726,-0.29 -3.9,-1.061 -3.9,-2.289 0,-0.95 1.082,-1.684 2.573,-2.192 l -0.137,-26.609 -0.044,-5.184 c 0,-0.056 0.005,-0.111 0.017,-0.166 0.024,-0.117 0.66,-2.873 5.489,-2.873 5.513,0 5.576,3.179 5.576,3.329 l -0.096,4.891 -0.117,26.618 c 1.458,0.53 2.452,1.285 2.452,2.186 0,1.15 -1.887,2.013 -3.814,2.316 l -0.343,5.556 1.239,-0.017 0.01,0 c 0.418,0 0.795,0.264 0.953,0.651 0.031,0.077 0.496,1.24 0.851,2.951 l 1.605,0 c -0.217,-1.325 -0.438,-2.329 -0.443,-2.349 -0.068,-0.305 0.006,-0.624 0.202,-0.868 0.195,-0.243 0.49,-0.385 0.802,-0.385 l 5.489,0 c -0.098,-0.289 -0.178,-0.741 0.008,-1.25 0.265,-0.729 0.961,-1.286 2.069,-1.655 1.738,-0.579 3.716,-1.474 4.538,-1.857 l 0.205,-2.108 c 0.032,-0.328 0.27,-0.601 0.592,-0.677 0.03,-0.007 3.016,-0.735 2.996,-2.591 -0.015,-1.362 -0.5,-2.076 -0.515,-2.098 -0.144,-0.195 -0.187,-0.446 -0.117,-0.679 0.07,-0.232 0.245,-0.418 0.472,-0.501 l 2.104,-0.775 c 0.042,-0.016 0.085,-0.027 0.129,-0.035 l 3.597,-0.656 c -0.059,-1.484 -0.126,-5.003 0.448,-7.046 l 1.868,-6.639 -2.54,-2.396 c -0.168,-0.158 -0.256,-0.392 -0.241,-0.622 l 0.333,-4.959 c 0.022,-0.332 0.255,-0.644 0.577,-0.726 0.099,-0.025 2.178,-0.624 5.287,-0.771 0.717,-2.53 3.569,-10.216 12.63,-14.928 5.736,-2.982 12.387,-3.464 16.082,-3.464 1.644,0 2.703,0.096 2.836,0.108 0.424,0.04 0.735,0.417 0.695,0.842 -0.041,0.424 -0.415,0.74 -0.842,0.695"
             style="fill:#211d1d;fill-opacity:1;fill-rule:nonzero;stroke:none"
             id="path3812"
             inkscape:connector-curvature="0" />
        </g>
      </g>
    </g>
  </g>
</svg>
