<?xml version="1.0" encoding="UTF-8" standalone="no"?>
<!-- Created with Inkscape (http://www.inkscape.org/) -->

<svg
   xmlns:dc="http://purl.org/dc/elements/1.1/"
   xmlns:cc="http://creativecommons.org/ns#"
   xmlns:rdf="http://www.w3.org/1999/02/22-rdf-syntax-ns#"
   xmlns:svg="http://www.w3.org/2000/svg"
   xmlns="http://www.w3.org/2000/svg"
   xmlns:sodipodi="http://sodipodi.sourceforge.net/DTD/sodipodi-0.dtd"
   xmlns:inkscape="http://www.inkscape.org/namespaces/inkscape"
   width="341.1015"
   height="171.1846"
   id="svg3744"
   version="1.1"
   inkscape:version="0.48.4 r9939"
   sodipodi:docname="New document 11">
  <defs
     id="defs3746">
    <clipPath
       clipPathUnits="userSpaceOnUse"
       id="clipPath3526">
      <path
         inkscape:connector-curvature="0"
         d="m 52.7,364.072 96.779,0 0,47.114 -96.779,0 0,-47.114 z"
         id="path3528" />
    </clipPath>
  </defs>
  <sodipodi:namedview
     id="base"
     pagecolor="#ffffff"
     bordercolor="#666666"
     borderopacity="1.0"
     inkscape:pageopacity="0.0"
     inkscape:pageshadow="2"
     inkscape:zoom="1"
     inkscape:cx="154.05075"
     inkscape:cy="97.521455"
     inkscape:document-units="px"
     inkscape:current-layer="layer1"
     showgrid="false"
     fit-margin-top="5"
     fit-margin-left="5"
     fit-margin-right="5"
     fit-margin-bottom="5"
     inkscape:window-width="2560"
     inkscape:window-height="1415"
     inkscape:window-x="1920"
     inkscape:window-y="0"
     inkscape:window-maximized="1" />
  <metadata
     id="metadata3749">
    <rdf:RDF>
      <cc:Work
         rdf:about="">
        <dc:format>image/svg+xml</dc:format>
        <dc:type
           rdf:resource="http://purl.org/dc/dcmitype/StillImage" />
        <dc:title></dc:title>
      </cc:Work>
    </rdf:RDF>
  </metadata>
  <g
     inkscape:label="Layer 1"
     inkscape:groupmode="layer"
     id="layer1"
     transform="translate(-220.94925,-458.69904)">
    <g
       id="g3522"
       transform="matrix(3.4212195,0,0,-3.4212195,45.65028,1870.4566)">
      <g
         id="g3524"
         clip-path="url(#clipPath3526)">
        <g
           id="g3530"
           transform="translate(146.9972,366.7758)">
          <path
             d="m 0,0 c -0.271,-0.298 -0.617,-0.51 -1.004,-0.617 l -2.304,-0.162 -16.278,1.36 c -5.177,0.359 -10.003,2.33 -13.959,5.702 l -0.095,0.083 c -1.706,1.492 -5.054,4.281 -8.354,6.216 l -4.719,2.443 1.061,1.964 0.304,0.542 c 0.28,0.061 0.746,0.135 1.366,0.135 1.017,0 2.097,-0.192 3.209,-0.571 3.135,-1.071 7.18,-5.306 7.22,-5.348 0.016,-0.017 0.032,-0.033 0.049,-0.048 0.228,-0.208 0.458,-0.411 0.689,-0.608 4.266,-3.636 9.477,-5.763 15.055,-6.152 L -1.413,3.574 C -0.933,3.538 -0.491,3.347 -0.135,3.021 0.286,2.636 0.533,2.109 0.559,1.539 0.584,0.969 0.386,0.422 0,0 m -41.949,29.15 c 3.255,1.91 6.603,4.699 8.308,6.192 l 0.1,0.086 c 3.952,3.369 8.778,5.339 13.968,5.699 l 16.265,1.359 2.304,-0.161 c 0.387,-0.108 0.733,-0.32 1.005,-0.618 0.385,-0.422 0.583,-0.969 0.558,-1.538 -0.026,-0.571 -0.273,-1.097 -0.695,-1.483 -0.355,-0.325 -0.797,-0.517 -1.285,-0.553 l -16.325,-1.364 c -5.592,-0.389 -10.803,-2.517 -15.067,-6.152 -0.233,-0.197 -0.463,-0.401 -0.691,-0.608 -0.017,-0.016 -0.033,-0.031 -0.049,-0.048 -0.04,-0.043 -4.085,-4.277 -7.22,-5.348 -1.112,-0.379 -2.192,-0.571 -3.209,-0.571 -0.621,0 -1.088,0.073 -1.366,0.135 l -1.394,2.491 4.793,2.482 z M -1.261,5.49 -17.613,6.855 c -5.179,0.361 -10.004,2.331 -13.957,5.7 -0.206,0.176 -0.411,0.355 -0.613,0.54 -0.392,0.41 -4.486,4.628 -7.97,5.819 -1.312,0.447 -2.601,0.674 -3.829,0.674 -1.083,0 -1.826,-0.178 -2.161,-0.279 l -1.762,1.081 0.264,1.326 1.014,0.925 c 0.085,-0.076 0.182,-0.138 0.291,-0.179 0.091,-0.035 0.933,-0.342 2.354,-0.342 1.228,0 2.517,0.226 3.83,0.674 3.483,1.19 7.577,5.409 7.969,5.819 0.202,0.184 0.407,0.364 0.615,0.541 3.951,3.367 8.776,5.338 13.968,5.699 l 16.331,1.364 c 0.913,0.069 1.754,0.432 2.43,1.051 0.801,0.732 1.269,1.731 1.317,2.814 0.049,1.083 -0.327,2.12 -1.058,2.92 -0.547,0.6 -1.254,1.018 -2.045,1.209 -0.052,0.012 -0.105,0.021 -0.158,0.024 l -2.464,0.173 c -0.049,0.004 -0.098,0.003 -0.147,-0.001 l -16.325,-1.364 c -5.59,-0.387 -10.801,-2.515 -15.065,-6.149 l -0.122,-0.106 c -1.655,-1.448 -4.897,-4.15 -7.971,-5.956 l -5.63,-2.914 c -0.2,-0.104 -0.352,-0.276 -0.439,-0.482 l -1.836,-0.275 c -0.074,0.042 -0.15,0.083 -0.235,0.105 -0.096,0.024 -9.598,2.431 -13.147,3.263 -3.625,0.85 -28.088,1.991 -29.128,2.04 -0.493,0.022 -0.926,-0.334 -0.995,-0.824 -0.071,-0.491 0.244,-0.954 0.726,-1.07 l 28.226,-6.807 c 0.332,-0.079 0.657,-0.003 0.893,0.243 0.025,0.023 0.635,0.547 2.209,0.391 0.932,-0.091 1.66,-0.565 2.13,-0.969 -0.122,-0.256 -0.141,-0.556 -0.011,-0.826 0.128,-0.266 0.17,-0.485 0.111,-0.585 -0.149,-0.259 -0.851,-0.463 -1.285,-0.495 -0.04,-0.003 -0.079,-0.008 -0.118,-0.016 l -32.111,-6.165 c -0.499,-0.096 -0.837,-0.563 -0.772,-1.066 0.062,-0.482 0.472,-0.838 0.952,-0.838 0.021,0 0.042,0 0.064,10e-4 0.21,0.014 21.192,1.39 29.812,1.906 4.717,0.282 8.5,0.937 11.031,1.493 l 3.409,-2.274 c -0.002,-0.102 0.006,-0.203 0.036,-0.302 0.075,-0.249 0.247,-0.457 0.478,-0.577 l 5.585,-2.889 c 3.119,-1.831 6.361,-4.533 8.016,-5.981 l 0.118,-0.102 c 4.268,-3.638 9.479,-5.765 15.055,-6.152 L -3.394,-2.7 c 0.026,-0.002 0.053,-0.003 0.08,-0.003 0.022,0 0.045,10e-4 0.067,0.002 l 2.464,0.173 c 0.053,0.004 0.106,0.012 0.158,0.024 0.791,0.191 1.498,0.609 2.045,1.208 0.731,0.801 1.107,1.838 1.058,2.921 C 2.43,2.709 1.962,3.708 1.162,4.439 0.485,5.058 -0.356,5.422 -1.261,5.49"
             style="fill:#100f0d;fill-opacity:1;fill-rule:nonzero;stroke:none"
             id="path3532"
             inkscape:connector-curvature="0" />
        </g>
      </g>
    </g>
  </g>
</svg>
