<?xml version="1.0" encoding="UTF-8" standalone="no"?>
<!-- Created with Inkscape (http://www.inkscape.org/) -->

<svg
   xmlns:dc="http://purl.org/dc/elements/1.1/"
   xmlns:cc="http://creativecommons.org/ns#"
   xmlns:rdf="http://www.w3.org/1999/02/22-rdf-syntax-ns#"
   xmlns:svg="http://www.w3.org/2000/svg"
   xmlns="http://www.w3.org/2000/svg"
   xmlns:sodipodi="http://sodipodi.sourceforge.net/DTD/sodipodi-0.dtd"
   xmlns:inkscape="http://www.inkscape.org/namespaces/inkscape"
   width="276.99606"
   height="174.57701"
   id="svg4083"
   version="1.1"
   inkscape:version="0.48.4 r9939"
   sodipodi:docname="New document 5">
  <defs
     id="defs4085">
    <clipPath
       clipPathUnits="userSpaceOnUse"
       id="clipPath3836">
      <path
         inkscape:connector-curvature="0"
         d="m 36,252.76 131.68,0 0,89.78 -131.68,0 0,-89.78 z"
         id="path3838" />
    </clipPath>
    <clipPath
       clipPathUnits="userSpaceOnUse"
       id="clipPath3824">
      <path
         inkscape:connector-curvature="0"
         d="m 56.44,272.109 83.744,0 0,51.62 -83.744,0 0,-51.62 z"
         id="path3826" />
    </clipPath>
  </defs>
  <sodipodi:namedview
     id="base"
     pagecolor="#ffffff"
     bordercolor="#666666"
     borderopacity="1.0"
     inkscape:pageopacity="0.0"
     inkscape:pageshadow="2"
     inkscape:zoom="0.98994949"
     inkscape:cx="139.06111"
     inkscape:cy="91.29932"
     inkscape:document-units="px"
     inkscape:current-layer="layer1"
     showgrid="false"
     fit-margin-top="5"
     fit-margin-left="5"
     fit-margin-right="5"
     fit-margin-bottom="5"
     showborder="true"
     inkscape:window-width="2560"
     inkscape:window-height="1415"
     inkscape:window-x="1920"
     inkscape:window-y="0"
     inkscape:window-maximized="1" />
  <metadata
     id="metadata4088">
    <rdf:RDF>
      <cc:Work
         rdf:about="">
        <dc:format>image/svg+xml</dc:format>
        <dc:type
           rdf:resource="http://purl.org/dc/dcmitype/StillImage" />
        <dc:title></dc:title>
      </cc:Work>
    </rdf:RDF>
  </metadata>
  <g
     inkscape:label="Layer 1"
     inkscape:groupmode="layer"
     id="layer1"
     transform="translate(-235.93889,-449.0845)">
    <g
       id="g3820"
       transform="matrix(3.1882411,0,0,-3.1882411,60.994566,1486.2106)">
      <g
         id="g3822"
         clip-path="url(#clipPath3824)">
        <g
           id="g3828"
           transform="translate(135.8685,293.9131)">
          <path
             d="m 0,0 -0.004,-0.092 c 0,-7.493 -10.226,-14.29 -24.896,-16.938 l -2.183,5.412 c -0.073,0.18 -0.193,0.337 -0.349,0.454 l -7.246,5.443 c -0.93,0.901 -2.152,1.397 -3.451,1.397 -1.331,0 -2.574,-0.516 -3.511,-1.456 l -7.25,-5.401 c -0.157,-0.118 -0.279,-0.275 -0.352,-0.457 l -2.181,-5.407 c -14.332,2.631 -24.313,9.429 -24.313,16.967 l -0.13,10.165 c 2.227,-0.575 5.816,-1.485 10.88,-2.716 8.988,-2.185 24.938,-2.525 26.806,-2.558 0.01,0 0.019,-0.003 0.028,-0.003 l 0.015,0 c 0.013,0 0.042,0.001 0.063,0.001 0.02,0 0.047,-0.001 0.059,-0.001 l 0.016,0 c 0.008,0 0.017,0.002 0.026,0.003 1.93,0.031 18.843,0.37 27.846,2.558 5.153,1.252 8.785,2.174 11.002,2.748 L 0,0 z m 3.891,18.281 c -0.268,0.202 -0.614,0.267 -0.937,0.174 -0.039,-0.012 -1.52,-0.434 -3.553,-1.009 -0.315,3.159 -1.311,8.134 -4.464,9.369 -3.131,1.225 -11.753,2.893 -12.119,2.964 -0.865,0.164 -1.747,-0.217 -2.215,-0.966 l -0.974,-1.558 c -0.625,-1 -0.321,-2.317 0.679,-2.943 1,-0.624 2.318,-0.322 2.943,0.679 l 0.193,0.308 c 2.971,-0.604 8.003,-1.706 9.93,-2.459 0.692,-0.351 1.591,-3.249 1.84,-6.569 -2.647,-0.738 -5.305,-1.466 -6.761,-1.83 -3.513,-0.877 -19.368,-2.421 -26.523,-2.433 -5.97,0.012 -21.869,1.527 -25.496,2.433 -1.574,0.393 -4.551,1.212 -7.4,2.008 0.251,3.027 1.071,6.008 1.819,6.388 1.932,0.756 6.965,1.858 9.937,2.462 l 0.192,-0.308 c 0.625,-0.999 1.942,-1.306 2.943,-0.679 1,0.625 1.305,1.943 0.68,2.943 l -0.974,1.558 c -0.468,0.749 -1.349,1.13 -2.215,0.966 -0.366,-0.071 -8.988,-1.739 -12.12,-2.964 -3.094,-1.212 -4.11,-6.025 -4.444,-9.189 -1.699,0.481 -2.884,0.819 -2.919,0.829 -0.323,0.093 -0.669,0.028 -0.937,-0.174 -0.267,-0.202 -0.425,-0.518 -0.425,-0.853 l 0,-5.58 c 0,-0.482 0.323,-0.904 0.787,-1.03 0.009,-0.003 0.227,-0.062 0.632,-0.169 l 0.139,-10.741 c 0,-8.96 11.122,-16.659 27.443,-19.294 l 2.792,-2.191 c 0.196,-0.153 0.428,-0.228 0.659,-0.228 0.307,0 0.612,0.132 0.823,0.388 l 5.781,6.992 c 0.009,0.01 0.891,0.995 2.049,0.995 0.08,0 0.157,0.009 0.232,0.025 0.03,-0.002 0.061,-0.004 0.091,-0.004 1.152,0 2.031,-0.976 2.032,-0.976 l 5.798,-7.012 c 0.366,-0.441 1.016,-0.517 1.472,-0.167 l 2.886,2.209 c 16.591,2.666 27.905,10.329 27.944,19.216 l 0.938,10.833 c 0.297,0.079 0.452,0.121 0.459,0.124 0.465,0.126 0.788,0.548 0.788,1.03 l 0,5.58 c 0,0.335 -0.158,0.651 -0.425,0.853"
             style="fill:#100f0d;fill-opacity:1;fill-rule:nonzero;stroke:none"
             id="path3830"
             inkscape:connector-curvature="0" />
        </g>
      </g>
    </g>
    <g
       id="g3832"
       transform="matrix(3.1882411,0,0,-3.1882411,60.994566,1486.2106)">
      <g
         id="g3834"
         clip-path="url(#clipPath3836)">
        <g
           id="g3840"
           transform="translate(116.1434,295.3661)">
          <path
             d="m 0,0 c -0.417,0.417 -1.093,0.417 -1.51,0 l -4.193,-4.193 c -0.418,-0.418 -0.418,-1.093 0,-1.51 0.208,-0.209 0.481,-0.313 0.755,-0.313 0.273,0 0.546,0.104 0.755,0.313 L 0,-1.51 C 0.417,-1.093 0.417,-0.417 0,0"
             style="fill:#100f0d;fill-opacity:1;fill-rule:nonzero;stroke:none"
             id="path3842"
             inkscape:connector-curvature="0" />
        </g>
        <g
           id="g3844"
           transform="translate(119.1718,292.741)">
          <path
             d="m 0,0 c -0.417,0.417 -1.093,0.417 -1.51,0 l -4.194,-4.193 c -0.417,-0.418 -0.417,-1.093 0,-1.51 0.209,-0.209 0.482,-0.313 0.756,-0.313 0.273,0 0.546,0.104 0.755,0.313 L 0,-1.51 C 0.417,-1.093 0.417,-0.417 0,0"
             style="fill:#100f0d;fill-opacity:1;fill-rule:nonzero;stroke:none"
             id="path3846"
             inkscape:connector-curvature="0" />
        </g>
        <g
           id="g3848"
           transform="translate(120.8167,290.1561)">
          <path
             d="m 0,0 -4.194,-4.193 c -0.417,-0.418 -0.417,-1.093 0,-1.51 0.209,-0.209 0.482,-0.313 0.755,-0.313 0.274,0 0.547,0.104 0.755,0.313 L 1.51,-1.51 C 1.927,-1.093 1.927,-0.417 1.51,0 1.093,0.417 0.417,0.417 0,0"
             style="fill:#100f0d;fill-opacity:1;fill-rule:nonzero;stroke:none"
             id="path3850"
             inkscape:connector-curvature="0" />
        </g>
      </g>
    </g>
    <g
       transform="matrix(3.1882411,0,0,-3.1882411,60.994566,1486.2106)"
       id="g4128">
      <g
         clip-path="url(#clipPath3824)"
         id="g4130">
        <g
           transform="translate(135.8685,293.9131)"
           id="g4132">
          <path
             inkscape:connector-curvature="0"
             id="path4134"
             style="fill:#100f0d;fill-opacity:1;fill-rule:nonzero;stroke:none"
             d="m 0,0 -0.004,-0.092 c 0,-7.493 -10.226,-14.29 -24.896,-16.938 l -2.183,5.412 c -0.073,0.18 -0.193,0.337 -0.349,0.454 l -7.246,5.443 c -0.93,0.901 -2.152,1.397 -3.451,1.397 -1.331,0 -2.574,-0.516 -3.511,-1.456 l -7.25,-5.401 c -0.157,-0.118 -0.279,-0.275 -0.352,-0.457 l -2.181,-5.407 c -14.332,2.631 -24.313,9.429 -24.313,16.967 l -0.13,10.165 c 2.227,-0.575 5.816,-1.485 10.88,-2.716 8.988,-2.185 24.938,-2.525 26.806,-2.558 0.01,0 0.019,-0.003 0.028,-0.003 l 0.015,0 c 0.013,0 0.042,0.001 0.063,0.001 0.02,0 0.047,-0.001 0.059,-0.001 l 0.016,0 c 0.008,0 0.017,0.002 0.026,0.003 1.93,0.031 18.843,0.37 27.846,2.558 5.153,1.252 8.785,2.174 11.002,2.748 L 0,0 z m 3.891,18.281 c -0.268,0.202 -0.614,0.267 -0.937,0.174 -0.039,-0.012 -1.52,-0.434 -3.553,-1.009 -0.315,3.159 -1.311,8.134 -4.464,9.369 -3.131,1.225 -11.753,2.893 -12.119,2.964 -0.865,0.164 -1.747,-0.217 -2.215,-0.966 l -0.974,-1.558 c -0.625,-1 -0.321,-2.317 0.679,-2.943 1,-0.624 2.318,-0.322 2.943,0.679 l 0.193,0.308 c 2.971,-0.604 8.003,-1.706 9.93,-2.459 0.692,-0.351 1.591,-3.249 1.84,-6.569 -2.647,-0.738 -5.305,-1.466 -6.761,-1.83 -3.513,-0.877 -19.368,-2.421 -26.523,-2.433 -5.97,0.012 -21.869,1.527 -25.496,2.433 -1.574,0.393 -4.551,1.212 -7.4,2.008 0.251,3.027 1.071,6.008 1.819,6.388 1.932,0.756 6.965,1.858 9.937,2.462 l 0.192,-0.308 c 0.625,-0.999 1.942,-1.306 2.943,-0.679 1,0.625 1.305,1.943 0.68,2.943 l -0.974,1.558 c -0.468,0.749 -1.349,1.13 -2.215,0.966 -0.366,-0.071 -8.988,-1.739 -12.12,-2.964 -3.094,-1.212 -4.11,-6.025 -4.444,-9.189 -1.699,0.481 -2.884,0.819 -2.919,0.829 -0.323,0.093 -0.669,0.028 -0.937,-0.174 -0.267,-0.202 -0.425,-0.518 -0.425,-0.853 l 0,-5.58 c 0,-0.482 0.323,-0.904 0.787,-1.03 0.009,-0.003 0.227,-0.062 0.632,-0.169 l 0.139,-10.741 c 0,-8.96 11.122,-16.659 27.443,-19.294 l 2.792,-2.191 c 0.196,-0.153 0.428,-0.228 0.659,-0.228 0.307,0 0.612,0.132 0.823,0.388 l 5.781,6.992 c 0.009,0.01 0.891,0.995 2.049,0.995 0.08,0 0.157,0.009 0.232,0.025 0.03,-0.002 0.061,-0.004 0.091,-0.004 1.152,0 2.031,-0.976 2.032,-0.976 l 5.798,-7.012 c 0.366,-0.441 1.016,-0.517 1.472,-0.167 l 2.886,2.209 c 16.591,2.666 27.905,10.329 27.944,19.216 l 0.938,10.833 c 0.297,0.079 0.452,0.121 0.459,0.124 0.465,0.126 0.788,0.548 0.788,1.03 l 0,5.58 c 0,0.335 -0.158,0.651 -0.425,0.853" />
        </g>
      </g>
    </g>
    <g
       transform="matrix(3.1882411,0,0,-3.1882411,60.994566,1486.2106)"
       id="g4136">
      <g
         clip-path="url(#clipPath3836)"
         id="g4138">
        <g
           transform="translate(116.1434,295.3661)"
           id="g4140">
          <path
             inkscape:connector-curvature="0"
             id="path4142"
             style="fill:#100f0d;fill-opacity:1;fill-rule:nonzero;stroke:none"
             d="m 0,0 c -0.417,0.417 -1.093,0.417 -1.51,0 l -4.193,-4.193 c -0.418,-0.418 -0.418,-1.093 0,-1.51 0.208,-0.209 0.481,-0.313 0.755,-0.313 0.273,0 0.546,0.104 0.755,0.313 L 0,-1.51 C 0.417,-1.093 0.417,-0.417 0,0" />
        </g>
        <g
           transform="translate(119.1718,292.741)"
           id="g4144">
          <path
             inkscape:connector-curvature="0"
             id="path4146"
             style="fill:#100f0d;fill-opacity:1;fill-rule:nonzero;stroke:none"
             d="m 0,0 c -0.417,0.417 -1.093,0.417 -1.51,0 l -4.194,-4.193 c -0.417,-0.418 -0.417,-1.093 0,-1.51 0.209,-0.209 0.482,-0.313 0.756,-0.313 0.273,0 0.546,0.104 0.755,0.313 L 0,-1.51 C 0.417,-1.093 0.417,-0.417 0,0" />
        </g>
        <g
           transform="translate(120.8167,290.1561)"
           id="g4148">
          <path
             inkscape:connector-curvature="0"
             id="path4150"
             style="fill:#100f0d;fill-opacity:1;fill-rule:nonzero;stroke:none"
             d="m 0,0 -4.194,-4.193 c -0.417,-0.418 -0.417,-1.093 0,-1.51 0.209,-0.209 0.482,-0.313 0.755,-0.313 0.274,0 0.547,0.104 0.755,0.313 L 1.51,-1.51 C 1.927,-1.093 1.927,-0.417 1.51,0 1.093,0.417 0.417,0.417 0,0" />
        </g>
      </g>
    </g>
  </g>
</svg>
