<?xml version="1.0" encoding="UTF-8" standalone="no"?>
<!-- Created with Inkscape (http://www.inkscape.org/) -->

<svg
   xmlns:dc="http://purl.org/dc/elements/1.1/"
   xmlns:cc="http://creativecommons.org/ns#"
   xmlns:rdf="http://www.w3.org/1999/02/22-rdf-syntax-ns#"
   xmlns:svg="http://www.w3.org/2000/svg"
   xmlns="http://www.w3.org/2000/svg"
   xmlns:sodipodi="http://sodipodi.sourceforge.net/DTD/sodipodi-0.dtd"
   xmlns:inkscape="http://www.inkscape.org/namespaces/inkscape"
   width="279.99219"
   height="61.150188"
   id="svg3967"
   version="1.1"
   inkscape:version="0.48.4 r9939"
   sodipodi:docname="New document 11">
  <defs
     id="defs3969">
    <clipPath
       clipPathUnits="userSpaceOnUse"
       id="clipPath3715">
      <path
         inkscape:connector-curvature="0"
         d="m 66.646,230.274 101.594,0 0,19.247 -101.594,0 0,-19.247 z"
         id="path3717" />
    </clipPath>
  </defs>
  <sodipodi:namedview
     id="base"
     pagecolor="#ffffff"
     bordercolor="#666666"
     borderopacity="1.0"
     inkscape:pageopacity="0.0"
     inkscape:pageshadow="2"
     inkscape:zoom="1"
     inkscape:cx="143.78181"
     inkscape:cy="28.74368"
     inkscape:document-units="px"
     inkscape:current-layer="layer1"
     showgrid="false"
     fit-margin-top="5"
     fit-margin-left="5"
     fit-margin-right="5"
     fit-margin-bottom="5"
     inkscape:window-width="2560"
     inkscape:window-height="1415"
     inkscape:window-x="1920"
     inkscape:window-y="0"
     inkscape:window-maximized="1" />
  <metadata
     id="metadata3972">
    <rdf:RDF>
      <cc:Work
         rdf:about="">
        <dc:format>image/svg+xml</dc:format>
        <dc:type
           rdf:resource="http://purl.org/dc/dcmitype/StillImage" />
        <dc:title></dc:title>
      </cc:Work>
    </rdf:RDF>
  </metadata>
  <g
     inkscape:label="Layer 1"
     inkscape:groupmode="layer"
     id="layer1"
     transform="translate(-231.21819,-499.95567)">
    <g
       transform="matrix(2.6575668,0,0,-2.6575668,59.101991,1168.0744)"
       id="g3711">
      <g
         id="g3713"
         clip-path="url(#clipPath3715)">
        <g
           id="g3719"
           transform="matrix(0.6963356,0,0,-0.7106315,12.614807,1112.88)">
          <g
             id="g3721"
             transform="translate(213.6823,1238.4915)">
            <path
               inkscape:connector-curvature="0"
               d="m 0,0 -3.831,0 c 2.171,-2.392 3.555,-5.999 3.555,-10.028 0,-4.029 -1.385,-7.636 -3.554,-10.028 l 3.83,0 c 3.755,0 6.809,4.498 6.809,10.028 C 6.809,-4.499 3.755,0 0,0 m -10.03,-0.004 c -0.019,-0.001 -0.037,-0.006 -0.056,-0.006 l -0.019,0 -40.518,0.512 c -0.04,0.001 -4.131,0.204 -11.195,-1.844 -5.212,-1.511 -8.937,-2.633 -10.689,-3.166 0.388,-1.683 0.578,-3.604 0.578,-5.524 0,-1.92 -0.19,-3.842 -0.578,-5.526 1.752,-0.533 5.477,-1.655 10.689,-3.166 7.064,-2.047 11.157,-1.847 11.265,-1.84 l 40.448,0.508 0.019,0 c 3.755,0 6.81,4.498 6.81,10.028 0,5.501 -3.025,9.978 -6.754,10.024 m -66.718,-2.202 -10.305,0 c -0.168,-0.117 -0.58,-0.623 -0.98,-1.806 l 0.515,0 c 0.079,0.013 0.16,0.02 0.242,0.02 2.257,0 3.057,-3.221 3.057,-5.979 0,-2.594 -0.689,-5.515 -2.623,-5.932 -0.008,-0.002 -0.016,-0.004 -0.025,-0.006 -0.059,-0.012 -0.119,-0.022 -0.18,-0.027 -0.007,-10e-4 -0.013,-10e-4 -0.019,-0.002 -0.026,-10e-4 -0.053,-0.004 -0.079,-0.006 -0.151,-0.013 -0.231,-0.007 -0.327,0.006 l -0.6,0 c 0.41,-1.259 0.84,-1.797 1.017,-1.921 l 10.307,0 c 0.564,0.363 1.819,3 1.819,7.827 0,4.827 -1.255,7.463 -1.819,7.826 m -12.388,-4.806 c -0.309,0 -0.611,0.096 -0.864,0.274 l -4.127,2.906 -13.26,0 c -0.036,0 -0.094,0.003 -0.129,0.006 l -0.074,0.002 c -1.301,0 -1.476,-0.854 -1.476,-1.688 l 0,-8.926 c 0,-0.833 0.175,-1.687 1.53,-1.687 0.05,0.005 0.099,0.008 0.149,0.008 l 13.26,0 4.127,2.906 c 0.253,0.178 0.555,0.273 0.864,0.273 l 1.43,0 c 0.215,0.461 0.487,1.519 0.487,2.967 0,1.441 -0.268,2.494 -0.482,2.959 l -1.435,0 z M 0,-23.056 l -10.067,0 -40.375,-0.506 c -0.185,-0.011 -4.588,-0.251 -12.211,1.958 -5.334,1.544 -9.119,2.687 -10.834,3.209 -0.763,-1.503 -1.813,-2.464 -3.185,-2.464 l -10.451,0 c -0.004,0 -0.006,-10e-4 -0.01,-10e-4 -0.008,0 -0.017,10e-4 -0.024,10e-4 l -0.351,0 c -0.374,0 -0.712,0.141 -0.974,0.368 -0.758,0.427 -1.589,1.315 -2.256,3.091 l -2.05,-1.444 c -0.253,-0.177 -0.554,-0.273 -0.864,-0.273 l -13.678,0 c -0.06,-0.004 -0.148,-0.008 -0.259,-0.008 -2.229,0 -4.477,1.449 -4.477,4.687 l 0,3.2 -16.816,0 -7.207,0.755 0,0.771 0,0.256 0,0.771 7.207,0.755 16.816,0 0,2.418 c 0,3.239 2.248,4.688 4.476,4.688 0.111,0 0.2,-0.004 0.26,-0.008 l 13.678,0 c 0.31,0 0.611,-0.096 0.864,-0.273 l 2.083,-1.467 c 0.661,1.712 1.476,2.574 2.218,2.994 0.263,0.228 0.603,0.372 0.979,0.372 l 10.836,0 c 1.372,0 2.422,-0.961 3.185,-2.465 1.715,0.523 5.5,1.665 10.834,3.21 6.174,1.789 10.236,1.972 11.616,1.972 0.325,0 0.501,-0.01 0.522,-0.012 L -10.17,2.991 C -10.142,2.993 -10.115,3 -10.086,3 L 0.339,3 C 0.433,3 0.525,2.991 0.615,2.975 5.738,2.552 9.809,-3.118 9.809,-10.028 9.809,-17.212 5.409,-23.056 0,-23.056"
               style="fill:#100f0d;fill-opacity:1;fill-rule:nonzero;stroke:none"
               id="path3723" />
          </g>
        </g>
      </g>
    </g>
  </g>
</svg>
