<?xml version="1.0" encoding="UTF-8" standalone="no"?>
<!-- Created with Inkscape (http://www.inkscape.org/) -->

<svg
   xmlns:dc="http://purl.org/dc/elements/1.1/"
   xmlns:cc="http://creativecommons.org/ns#"
   xmlns:rdf="http://www.w3.org/1999/02/22-rdf-syntax-ns#"
   xmlns:svg="http://www.w3.org/2000/svg"
   xmlns="http://www.w3.org/2000/svg"
   xmlns:sodipodi="http://sodipodi.sourceforge.net/DTD/sodipodi-0.dtd"
   xmlns:inkscape="http://www.inkscape.org/namespaces/inkscape"
   width="251.83325"
   height="262.85837"
   id="svg3785"
   version="1.1"
   inkscape:version="0.48.4 r9939"
   sodipodi:docname="New document 5">
  <defs
     id="defs3787">
    <clipPath
       clipPathUnits="userSpaceOnUse"
       id="clipPath3619">
      <path
         inkscape:connector-curvature="0"
         d="m 50.215,464.96 131.68,0 0,90.72 -131.68,0 0,-90.72 z"
         id="path3621" />
    </clipPath>
  </defs>
  <sodipodi:namedview
     id="base"
     pagecolor="#ffffff"
     bordercolor="#666666"
     borderopacity="1.0"
     inkscape:pageopacity="0.0"
     inkscape:pageshadow="2"
     inkscape:zoom="1"
     inkscape:cx="128.31758"
     inkscape:cy="53.429253"
     inkscape:document-units="px"
     inkscape:current-layer="layer1"
     showgrid="false"
     fit-margin-top="5"
     fit-margin-left="5"
     fit-margin-right="5"
     fit-margin-bottom="5"
     inkscape:window-width="2560"
     inkscape:window-height="1415"
     inkscape:window-x="1920"
     inkscape:window-y="0"
     inkscape:window-maximized="1" />
  <metadata
     id="metadata3790">
    <rdf:RDF>
      <cc:Work
         rdf:about="">
        <dc:format>image/svg+xml</dc:format>
        <dc:type
           rdf:resource="http://purl.org/dc/dcmitype/StillImage" />
        <dc:title></dc:title>
      </cc:Work>
    </rdf:RDF>
  </metadata>
  <g
     inkscape:label="Layer 1"
     inkscape:groupmode="layer"
     id="layer1"
     transform="translate(-246.68242,-322.93306)">
    <g
       id="g3615"
       transform="matrix(3.2632487,0,0,-3.2632487,-10.446803,2141.2551)">
      <g
         id="g3617"
         clip-path="url(#clipPath3619)">
        <g
           id="g3623"
           transform="translate(99.9256,614.6685)">
          <path
             d="m 0,0 c -0.329,0 -0.596,-0.267 -0.596,-0.596 l 0,-17.274 -9.093,0 0,17.274 c 0,0.329 -0.267,0.596 -0.596,0.596 -0.329,0 -0.595,-0.267 -0.595,-0.596 l 0,-17.87 c 0,-0.329 0.266,-0.596 0.595,-0.596 l 10.285,0 c 0.329,0 0.596,0.267 0.596,0.596 l 0,17.87 C 0.596,-0.267 0.329,0 0,0"
             style="fill:#100f0d;fill-opacity:1;fill-rule:nonzero;stroke:none"
             id="path3625"
             inkscape:connector-curvature="0" />
        </g>
        <g
           id="g3627"
           transform="translate(127.883,614.6685)">
          <path
             d="m 0,0 c -0.329,0 -0.596,-0.267 -0.596,-0.596 l 0,-17.274 -9.689,0 -13.383,0 0,17.274 c 0,0.329 -0.267,0.596 -0.596,0.596 -0.329,0 -0.595,-0.267 -0.595,-0.596 l 0,-17.87 c 0,-0.329 0.266,-0.596 0.595,-0.596 l 13.979,0 10.285,0 c 0.329,0 0.596,0.267 0.596,0.596 l 0,17.87 C 0.596,-0.267 0.329,0 0,0"
             style="fill:#100f0d;fill-opacity:1;fill-rule:nonzero;stroke:none"
             id="path3629"
             inkscape:connector-curvature="0" />
        </g>
        <g
           id="g3631"
           transform="translate(141.8615,614.6685)">
          <path
             d="m 0,0 c -0.329,0 -0.596,-0.267 -0.596,-0.596 l 0,-17.274 -9.093,0 0,17.274 c 0,0.329 -0.267,0.596 -0.596,0.596 -0.329,0 -0.595,-0.267 -0.595,-0.596 l 0,-17.87 c 0,-0.329 0.266,-0.596 0.595,-0.596 l 10.285,0 c 0.329,0 0.596,0.267 0.596,0.596 l 0,17.87 C 0.596,-0.267 0.329,0 0,0"
             style="fill:#100f0d;fill-opacity:1;fill-rule:nonzero;stroke:none"
             id="path3633"
             inkscape:connector-curvature="0" />
        </g>
        <g
           id="g3635"
           transform="translate(91.8914,612.7822)">
          <path
             d="M 0,0 5.692,0 C 5.856,0 5.99,0.133 5.99,0.298 5.99,0.462 5.856,0.596 5.692,0.596 L 0,0.596 C -0.164,0.596 -0.298,0.462 -0.298,0.298 -0.298,0.133 -0.164,0 0,0"
             style="fill:#100f0d;fill-opacity:1;fill-rule:nonzero;stroke:none"
             id="path3637"
             inkscape:connector-curvature="0" />
        </g>
        <g
           id="g3639"
           transform="translate(105.7237,612.7822)">
          <path
             d="m 0,0 20.154,0 c 0.164,0 0.298,0.133 0.298,0.298 0,0.164 -0.134,0.298 -0.298,0.298 L 0,0.596 C -0.164,0.596 -0.298,0.462 -0.298,0.298 -0.298,0.133 -0.164,0 0,0"
             style="fill:#100f0d;fill-opacity:1;fill-rule:nonzero;stroke:none"
             id="path3641"
             inkscape:connector-curvature="0" />
        </g>
        <g
           id="g3643"
           transform="translate(133.8731,612.7822)">
          <path
             d="M 0,0 5.692,0 C 5.857,0 5.99,0.133 5.99,0.298 5.99,0.462 5.857,0.596 5.692,0.596 L 0,0.596 C -0.164,0.596 -0.298,0.462 -0.298,0.298 -0.298,0.133 -0.164,0 0,0"
             style="fill:#100f0d;fill-opacity:1;fill-rule:nonzero;stroke:none"
             id="path3645"
             inkscape:connector-curvature="0" />
        </g>
        <g
           id="g3647"
           transform="translate(148.4468,593.1214)">
          <path
             d="m 0,0 -64.181,0 -2.694,31.806 5.58,0 0,-5.295 5.17,0 0,5.295 48.027,0 0,-5.295 5.17,0 0,5.295 5.534,0 L 0,0 z m -3.541,-4.2 c -0.658,0 -1.191,0.534 -1.191,1.192 0,0.658 0.533,1.191 1.191,1.191 0.658,0 1.192,-0.533 1.192,-1.191 0,-0.658 -0.534,-1.192 -1.192,-1.192 m -11.542,0 c -0.658,0 -1.192,0.534 -1.192,1.192 0,0.658 0.534,1.191 1.192,1.191 0.657,0 1.191,-0.533 1.191,-1.191 0,-0.658 -0.534,-1.192 -1.191,-1.192 m -11.543,0 c -0.659,0 -1.192,0.534 -1.192,1.192 0,0.658 0.533,1.191 1.192,1.191 0.658,0 1.191,-0.533 1.191,-1.191 0,-0.658 -0.533,-1.192 -1.191,-1.192 m -11.543,0 c -0.658,0 -1.191,0.534 -1.191,1.192 0,0.658 0.533,1.191 1.191,1.191 0.658,0 1.191,-0.533 1.191,-1.191 0,-0.658 -0.533,-1.192 -1.191,-1.192 m -11.543,0 c -0.658,0 -1.192,0.534 -1.192,1.192 0,0.658 0.534,1.191 1.192,1.191 0.658,0 1.191,-0.533 1.191,-1.191 0,-0.658 -0.533,-1.192 -1.191,-1.192 m -11.543,0 c -0.658,0 -1.191,0.534 -1.191,1.192 0,0.658 0.533,1.191 1.191,1.191 0.658,0 1.191,-0.533 1.191,-1.191 0,-0.658 -0.533,-1.192 -1.191,-1.192 m 29.12,63.274 c 12.161,0 22.569,-11.392 23.984,-26.077 l -47.969,0 c 1.417,14.685 11.824,26.077 23.985,26.077 M 3.691,32.805 c -0.113,0.123 -0.272,0.192 -0.438,0.192 l -6.181,0 0,0.017 -0.04,10e-4 c -0.706,8.371 -3.945,16.133 -9.156,21.894 -5.441,6.015 -12.548,9.328 -20.011,9.328 -7.464,0 -14.571,-3.313 -20.012,-9.328 -5.181,-5.727 -8.41,-13.431 -9.142,-21.745 l -0.006,0 0,-0.066 c -0.003,-0.033 -0.007,-0.067 -0.01,-0.101 l -6.218,0 c -0.167,0 -0.326,-0.069 -0.439,-0.192 -0.113,-0.123 -0.169,-0.287 -0.155,-0.454 l 3.23,-38.123 c 0.026,-0.308 0.284,-0.545 0.593,-0.545 l 64.423,0 c 0.31,0 0.568,0.238 0.594,0.547 l 3.123,38.123 c 0.014,0.166 -0.042,0.33 -0.155,0.452"
             style="fill:#100f0d;fill-opacity:1;fill-rule:nonzero;stroke:none"
             id="path3649"
             inkscape:connector-curvature="0" />
        </g>
        <g
           id="g3651"
           transform="translate(150.5877,484.5103)">
          <path
             d="m 0,0 -64.181,0 -2.694,31.806 5.58,0 0,-5.295 5.17,0 0,5.295 11.973,0 c 0.031,-0.381 0.077,-0.732 0.116,-1.025 0.291,-2.207 1.011,-4.378 1.745,-6.396 0.476,-1.306 1.041,-2.652 1.731,-4.129 l -2.163,0 c -0.164,0 -0.298,-0.133 -0.298,-0.297 0,-0.165 0.134,-0.298 0.298,-0.298 l 20.154,0 c 0.164,0 0.298,0.133 0.298,0.298 0,0.164 -0.134,0.297 -0.298,0.297 l -2.916,0 c 0.69,1.478 1.256,2.824 1.732,4.129 0.733,2.018 1.453,4.189 1.745,6.396 0.039,0.293 0.084,0.644 0.115,1.025 l 13.795,0 0,-5.295 5.17,0 0,5.295 5.534,0 L 0,0 z m -3.541,-4.2 c -0.658,0 -1.191,0.534 -1.191,1.192 0,0.658 0.533,1.191 1.191,1.191 0.658,0 1.192,-0.533 1.192,-1.191 0,-0.658 -0.534,-1.192 -1.192,-1.192 m -11.542,0 c -0.658,0 -1.192,0.534 -1.192,1.192 0,0.658 0.534,1.191 1.192,1.191 0.657,0 1.191,-0.533 1.191,-1.191 0,-0.658 -0.534,-1.192 -1.191,-1.192 m -11.543,0 c -0.659,0 -1.192,0.534 -1.192,1.192 0,0.658 0.533,1.191 1.192,1.191 0.658,0 1.191,-0.533 1.191,-1.191 0,-0.658 -0.533,-1.192 -1.191,-1.192 m -11.543,0 c -0.658,0 -1.191,0.534 -1.191,1.192 0,0.658 0.533,1.191 1.191,1.191 0.658,0 1.191,-0.533 1.191,-1.191 0,-0.658 -0.533,-1.192 -1.191,-1.192 m -11.543,0 c -0.658,0 -1.192,0.534 -1.192,1.192 0,0.658 0.534,1.191 1.192,1.191 0.658,0 1.191,-0.533 1.191,-1.191 0,-0.658 -0.533,-1.192 -1.191,-1.192 m -11.543,0 c -0.658,0 -1.191,0.534 -1.191,1.192 0,0.658 0.533,1.191 1.191,1.191 0.658,0 1.191,-0.533 1.191,-1.191 0,-0.658 -0.533,-1.192 -1.191,-1.192 m 30.014,26.332 c 1.343,2.267 2.504,4.225 3.416,6.61 0.402,1.052 0.606,2.036 0.804,2.986 0.006,0.029 0.012,0.059 0.018,0.088 l 0.247,1.118 c 0.085,0.354 0.181,0.713 0.297,1.076 0.255,0.789 1.033,1.408 1.773,1.408 0.304,0 0.58,-0.108 0.818,-0.321 0.569,-0.508 0.768,-1.308 0.81,-2.115 l -0.03,-1.17 c -0.029,-0.324 -0.068,-0.625 -0.101,-0.875 -0.277,-2.093 -0.973,-4.19 -1.684,-6.144 -0.548,-1.505 -1.074,-2.764 -1.93,-4.537 l -4.794,0.008 c -0.016,0 -0.053,0.001 -0.1,0.001 l -0.002,0 c -0.141,0 -0.365,-0.001 -0.365,-0.001 0,0 -0.114,0.002 -0.272,0.002 0.373,0.644 0.739,1.265 1.095,1.866 m -2.463,-1.876 -0.162,0 c -0.016,-0.002 -0.045,-0.001 -0.078,0 l -5.297,0 c -0.856,1.772 -1.382,3.032 -1.93,4.537 -0.711,1.954 -1.407,4.051 -1.684,6.144 -0.039,0.291 -0.073,0.582 -0.097,0.869 l -0.032,1.191 0,0 c 0.042,0.859 0.256,1.607 0.807,2.1 0.239,0.213 0.514,0.321 0.819,0.321 0.739,0 1.517,-0.619 1.772,-1.408 0.116,-0.361 0.21,-0.717 0.296,-1.069 l 0.248,-1.121 c 0.006,-0.031 0.013,-0.062 0.019,-0.093 0.198,-0.95 0.402,-1.933 0.804,-2.985 0.912,-2.385 2.072,-4.343 3.416,-6.61 0.356,-0.601 0.722,-1.222 1.094,-1.866 0.002,-0.004 0.003,-0.006 0.005,-0.01 m -0.074,2.483 c -1.316,2.22 -2.453,4.139 -3.328,6.428 -0.347,0.907 -0.531,1.754 -0.716,2.639 l 9.599,0 c -0.184,-0.885 -0.369,-1.732 -0.715,-2.639 -0.876,-2.289 -2.012,-4.208 -3.328,-6.428 -0.248,-0.418 -0.5,-0.844 -0.756,-1.282 -0.256,0.438 -0.508,0.864 -0.756,1.282 m 1.643,36.335 c 12.161,0 22.568,-11.392 23.985,-26.077 l -13.712,0 c -0.048,1.073 -0.33,2.2 -1.212,2.988 -0.457,0.409 -1.014,0.624 -1.612,0.624 -1.247,0 -2.497,-0.96 -2.906,-2.234 -0.152,-0.473 -0.27,-0.93 -0.373,-1.378 l -10.114,0 c -0.104,0.448 -0.221,0.905 -0.374,1.378 -0.409,1.274 -1.658,2.234 -2.905,2.234 -0.598,0 -1.155,-0.215 -1.612,-0.624 -0.883,-0.788 -1.165,-1.916 -1.213,-2.988 l -11.937,0 c 1.417,14.685 11.824,26.077 23.985,26.077 M 3.691,32.805 c -0.113,0.123 -0.272,0.192 -0.438,0.192 l -6.181,0 0,0.017 -0.04,10e-4 c -0.706,8.372 -3.945,16.133 -9.156,21.895 -5.441,6.014 -12.548,9.327 -20.011,9.327 -7.464,0 -14.57,-3.313 -20.012,-9.327 -5.18,-5.728 -8.41,-13.432 -9.142,-21.747 l -0.006,0 0,-0.065 c -0.003,-0.033 -0.007,-0.067 -0.01,-0.101 l -6.218,0 c -0.167,0 -0.326,-0.069 -0.439,-0.193 -0.113,-0.122 -0.169,-0.286 -0.155,-0.453 l 3.23,-38.123 c 0.026,-0.308 0.284,-0.545 0.593,-0.545 l 64.423,0 c 0.31,0 0.568,0.238 0.594,0.547 l 3.123,38.123 c 0.014,0.166 -0.042,0.33 -0.155,0.452"
             style="fill:#100f0d;fill-opacity:1;fill-rule:nonzero;stroke:none"
             id="path3653"
             inkscape:connector-curvature="0" />
        </g>
        <g
           id="g3655"
           transform="translate(102.0665,506.0574)">
          <path
             d="m 0,0 c -0.329,0 -0.596,-0.267 -0.596,-0.596 l 0,-17.274 -9.093,0 0,17.274 c 0,0.329 -0.267,0.596 -0.596,0.596 -0.329,0 -0.595,-0.267 -0.595,-0.596 l 0,-17.87 c 0,-0.329 0.266,-0.596 0.595,-0.596 l 10.285,0 c 0.329,0 0.596,0.267 0.596,0.596 l 0,17.87 C 0.596,-0.267 0.329,0 0,0"
             style="fill:#100f0d;fill-opacity:1;fill-rule:nonzero;stroke:none"
             id="path3657"
             inkscape:connector-curvature="0" />
        </g>
        <g
           id="g3659"
           transform="translate(130.0238,506.0574)">
          <path
             d="m 0,0 c -0.329,0 -0.596,-0.267 -0.596,-0.596 l 0,-17.274 -9.688,0 -13.384,0 0,17.274 c 0,0.329 -0.266,0.596 -0.596,0.596 -0.329,0 -0.595,-0.267 -0.595,-0.596 l 0,-17.87 c 0,-0.329 0.266,-0.596 0.595,-0.596 l 13.98,0 10.284,0 c 0.329,0 0.596,0.267 0.596,0.596 l 0,17.87 C 0.596,-0.267 0.329,0 0,0"
             style="fill:#100f0d;fill-opacity:1;fill-rule:nonzero;stroke:none"
             id="path3661"
             inkscape:connector-curvature="0" />
        </g>
        <g
           id="g3663"
           transform="translate(144.0023,506.0574)">
          <path
             d="m 0,0 c -0.329,0 -0.596,-0.267 -0.596,-0.596 l 0,-17.274 -9.093,0 0,17.274 c 0,0.329 -0.266,0.596 -0.595,0.596 -0.33,0 -0.596,-0.267 -0.596,-0.596 l 0,-17.87 c 0,-0.329 0.266,-0.596 0.596,-0.596 l 10.284,0 c 0.329,0 0.596,0.267 0.596,0.596 l 0,17.87 C 0.596,-0.267 0.329,0 0,0"
             style="fill:#100f0d;fill-opacity:1;fill-rule:nonzero;stroke:none"
             id="path3665"
             inkscape:connector-curvature="0" />
        </g>
        <g
           id="g3667"
           transform="translate(94.0322,504.1711)">
          <path
             d="M 0,0 5.692,0 C 5.856,0 5.99,0.133 5.99,0.298 5.99,0.462 5.856,0.596 5.692,0.596 L 0,0.596 C -0.164,0.596 -0.298,0.462 -0.298,0.298 -0.298,0.133 -0.164,0 0,0"
             style="fill:#100f0d;fill-opacity:1;fill-rule:nonzero;stroke:none"
             id="path3669"
             inkscape:connector-curvature="0" />
        </g>
        <g
           id="g3671"
           transform="translate(136.0139,504.1711)">
          <path
             d="M 0,0 5.692,0 C 5.857,0 5.99,0.133 5.99,0.298 5.99,0.462 5.857,0.596 5.692,0.596 L 0,0.596 C -0.164,0.596 -0.298,0.462 -0.298,0.298 -0.298,0.133 -0.164,0 0,0"
             style="fill:#100f0d;fill-opacity:1;fill-rule:nonzero;stroke:none"
             id="path3673"
             inkscape:connector-curvature="0" />
        </g>
      </g>
    </g>
  </g>
</svg>
