<?xml version="1.0" encoding="UTF-8" standalone="no"?>
<!-- Created with Inkscape (http://www.inkscape.org/) -->

<svg
   xmlns:dc="http://purl.org/dc/elements/1.1/"
   xmlns:cc="http://creativecommons.org/ns#"
   xmlns:rdf="http://www.w3.org/1999/02/22-rdf-syntax-ns#"
   xmlns:svg="http://www.w3.org/2000/svg"
   xmlns="http://www.w3.org/2000/svg"
   xmlns:sodipodi="http://sodipodi.sourceforge.net/DTD/sodipodi-0.dtd"
   xmlns:inkscape="http://www.inkscape.org/namespaces/inkscape"
   width="345.48788"
   height="277.0759"
   id="svg3684"
   version="1.1"
   inkscape:version="0.48.4 r9939"
   sodipodi:docname="New document 8">
  <defs
     id="defs3686">
    <clipPath
       clipPathUnits="userSpaceOnUse"
       id="clipPath3514">
      <path
         inkscape:connector-curvature="0"
         d="m 58.56,445.549 81.245,0 0,64.678 -81.245,0 0,-64.678 z"
         id="path3516" />
    </clipPath>
  </defs>
  <sodipodi:namedview
     id="base"
     pagecolor="#ffffff"
     bordercolor="#666666"
     borderopacity="1.0"
     inkscape:pageopacity="0.0"
     inkscape:pageshadow="2"
     inkscape:zoom="1"
     inkscape:cx="196.74395"
     inkscape:cy="101.22002"
     inkscape:document-units="px"
     inkscape:current-layer="layer1"
     showgrid="false"
     fit-margin-top="5"
     fit-margin-left="5"
     fit-margin-right="5"
     fit-margin-bottom="5"
     inkscape:window-width="2560"
     inkscape:window-height="1415"
     inkscape:window-x="1920"
     inkscape:window-y="0"
     inkscape:window-maximized="1" />
  <metadata
     id="metadata3689">
    <rdf:RDF>
      <cc:Work
         rdf:about="">
        <dc:format>image/svg+xml</dc:format>
        <dc:type
           rdf:resource="http://purl.org/dc/dcmitype/StillImage" />
        <dc:title></dc:title>
      </cc:Work>
    </rdf:RDF>
  </metadata>
  <g
     inkscape:label="Layer 1"
     inkscape:groupmode="layer"
     id="layer1"
     transform="translate(-178.25605,-356.50631)">
    <g
       id="g3510"
       transform="matrix(4.1293669,0,0,-4.1293669,-58.559674,2468.4208)">
      <g
         id="g3512"
         clip-path="url(#clipPath3514)">
        <g
           id="g3518"
           transform="translate(117.873,504.7378)">
          <path
             d="m 0,0 c 3.629,1.292 7.527,2.554 11.438,3.042 0.987,0.123 2.045,0.238 3.091,0.238 2.179,0 3.684,-0.509 4.605,-1.553 0.692,-0.786 0.644,-1.641 0.482,-2.221 -0.324,-1.163 -1.342,-2.197 -2.533,-2.571 -1.454,-0.456 -2.872,-0.74 -4.244,-1.015 -1.767,-0.353 -3.593,-0.719 -5.551,-1.451 -4.437,-1.66 -8.085,-3.787 -12.31,-6.249 -1.263,-0.737 -2.561,-1.493 -3.933,-2.266 l -4.284,8.184 C -9.565,-3.989 -4.909,-1.747 0,0 m -31.193,-30.936 11.108,-6.587 c 0.817,-0.485 1.092,-1.533 0.614,-2.342 -0.48,-0.807 -1.533,-1.07 -2.35,-0.585 l -11.104,6.586 c -0.001,10e-4 -0.002,10e-4 -0.004,10e-4 -10e-4,10e-4 -0.002,0.002 -0.002,0.003 l -0.124,0.073 0.007,0.012 c -0.719,0.515 -0.948,1.491 -0.495,2.254 0.481,0.808 1.533,1.07 2.35,0.585 m -16.783,5.745 c -0.004,-0.01 -0.007,-0.02 -0.011,-0.03 -0.005,0.055 -0.016,0.108 -0.032,0.159 0.016,-0.041 0.029,-0.085 0.043,-0.129 m -0.133,0.315 c -0.025,0.04 -0.046,0.082 -0.079,0.116 0.028,-0.038 0.056,-0.074 0.079,-0.116 m 37.663,-14.776 c 1.369,-0.772 2.664,-1.527 3.925,-2.262 4.227,-2.464 7.878,-4.592 12.316,-6.253 1.958,-0.732 3.785,-1.098 5.551,-1.451 1.372,-0.275 2.791,-0.559 4.244,-1.015 1.191,-0.374 2.209,-1.408 2.534,-2.571 0.161,-0.58 0.209,-1.435 -0.483,-2.221 -0.92,-1.045 -2.43,-1.553 -4.616,-1.553 -1.05,0 -2.108,0.114 -3.094,0.237 -3.892,0.487 -7.79,1.75 -11.424,3.043 -4.909,1.747 -9.564,3.989 -13.239,5.862 l 4.286,8.184 z m 0.06,23.573 c 0.138,-0.264 0.377,-0.461 0.662,-0.546 0.104,-0.032 0.211,-0.047 0.317,-0.047 0.186,0 0.371,0.047 0.536,0.139 1.764,0.978 3.39,1.926 4.962,2.843 4.138,2.411 7.711,4.494 11.971,6.087 1.792,0.671 3.453,1.004 5.211,1.356 1.429,0.285 2.906,0.581 4.471,1.073 1.905,0.598 3.476,2.202 4.002,4.086 0.436,1.564 0.097,3.083 -0.954,4.276 C 19.428,4.737 17.38,5.49 14.529,5.49 13.362,5.49 12.222,5.368 11.164,5.236 7.043,4.722 3.006,3.416 -0.741,2.083 -6.226,0.131 -11.372,-2.409 -15.242,-4.405 c -0.261,-0.135 -0.458,-0.369 -0.547,-0.649 -0.089,-0.281 -0.062,-0.585 0.074,-0.846 l 0.445,-0.85 c -5.214,-2.501 -25.302,-12.034 -27.681,-13.196 -0.062,-0.03 -0.135,-0.059 -0.203,-0.089 -1.45,0.761 -2.907,1.506 -4.387,2.235 -1.776,0.875 -3.457,1.932 -5.527,1.909 -2.435,-0.027 -4.646,-2.272 -5.704,-4.323 0.805,-0.335 1.609,-0.67 2.414,-1.005 0.227,0.652 0.846,1.122 1.583,1.122 0.929,0 1.681,-0.743 1.681,-1.66 0,-0.269 -0.07,-0.519 -0.184,-0.743 0.413,-0.172 0.826,-0.344 1.239,-0.516 1.171,-0.488 2.342,-0.974 3.512,-1.462 0.134,-0.056 0.233,-0.148 0.318,-0.256 -0.142,0.139 -0.334,0.226 -0.548,0.226 -0.433,0 -0.784,-0.352 -0.784,-0.784 0,-0.433 0.351,-0.784 0.784,-0.784 0.081,0 0.156,0.023 0.229,0.046 -0.113,-0.083 -0.242,-0.157 -0.409,-0.208 -1.225,-0.375 -2.448,-0.752 -3.673,-1.127 -0.207,-0.064 -0.413,-0.126 -0.619,-0.19 0.088,-0.2 0.135,-0.421 0.135,-0.653 0,-0.917 -0.752,-1.66 -1.681,-1.66 -0.816,0 -1.495,0.572 -1.648,1.333 -0.964,-0.296 -1.927,-0.591 -2.89,-0.886 0.855,-2.145 2.838,-4.593 5.261,-4.855 2.057,-0.222 3.833,0.668 5.685,1.368 1.268,0.478 2.505,0.963 3.73,1.471 0.298,-0.177 0.648,-0.32 0.882,-0.457 1.161,-0.676 21.445,-12.323 26.807,-15.41 l -0.259,-0.494 c -0.137,-0.261 -0.164,-0.565 -0.075,-0.846 0.089,-0.281 0.286,-0.514 0.547,-0.649 3.871,-1.996 9.016,-4.536 14.501,-6.488 3.751,-1.335 7.788,-2.641 11.891,-3.153 1.057,-0.133 2.197,-0.254 3.368,-0.254 2.858,0 4.91,0.752 6.274,2.302 1.052,1.193 1.391,2.711 0.955,4.276 -0.526,1.884 -2.097,3.488 -4.001,4.086 -1.566,0.492 -3.043,0.788 -4.473,1.073 -1.758,0.352 -3.419,0.685 -5.21,1.355 -4.262,1.595 -7.838,3.679 -11.978,6.093 -1.57,0.914 -3.194,1.861 -4.954,2.837 -0.26,0.145 -0.568,0.178 -0.853,0.093 -0.285,-0.086 -0.524,-0.283 -0.662,-0.546 l -0.475,-0.907 c -4.254,2.519 -13.725,8.375 -20.617,12.578 7.602,3.663 18.096,8.717 22.166,10.665 l 0.417,-0.796 z"
             style="fill:#100f0d;fill-opacity:1;fill-rule:nonzero;stroke:none"
             id="path3520"
             inkscape:connector-curvature="0" />
        </g>
      </g>
    </g>
  </g>
</svg>
