<?xml version="1.0" encoding="UTF-8" standalone="no"?>
<!-- Created with Inkscape (http://www.inkscape.org/) -->

<svg
   xmlns:dc="http://purl.org/dc/elements/1.1/"
   xmlns:cc="http://creativecommons.org/ns#"
   xmlns:rdf="http://www.w3.org/1999/02/22-rdf-syntax-ns#"
   xmlns:svg="http://www.w3.org/2000/svg"
   xmlns="http://www.w3.org/2000/svg"
   xmlns:sodipodi="http://sodipodi.sourceforge.net/DTD/sodipodi-0.dtd"
   xmlns:inkscape="http://www.inkscape.org/namespaces/inkscape"
   id="svg3025"
   version="1.1"
   inkscape:version="0.48.4 r9939"
   width="352.39874"
   height="100.28592"
   xml:space="preserve"
   sodipodi:docname="CCK - Gather tools and wireless equipment.pdf"><metadata
     id="metadata3031"><rdf:RDF><cc:Work
         rdf:about=""><dc:format>image/svg+xml</dc:format><dc:type
           rdf:resource="http://purl.org/dc/dcmitype/StillImage" /><dc:title></dc:title></cc:Work></rdf:RDF></metadata><defs
     id="defs3029"><clipPath
       clipPathUnits="userSpaceOnUse"
       id="clipPath3041"><path
         d="M 0,792 612,792 612,0 0,0 0,792 z"
         id="path3043"
         inkscape:connector-curvature="0" /></clipPath><clipPath
       clipPathUnits="userSpaceOnUse"
       id="clipPath3079"><path
         d="M 0,792 612,792 612,0 0,0 0,792 z"
         id="path3081"
         inkscape:connector-curvature="0" /></clipPath><clipPath
       clipPathUnits="userSpaceOnUse"
       id="clipPath3619"><path
         d="m 50.215,464.96 131.68,0 0,90.72 -131.68,0 0,-90.72 z"
         id="path3621"
         inkscape:connector-curvature="0" /></clipPath><clipPath
       clipPathUnits="userSpaceOnUse"
       id="clipPath3679"><path
         d="m 49.915,376.18 131.179,0 0,88.28 -131.179,0 0,-88.28 z"
         id="path3681"
         inkscape:connector-curvature="0" /></clipPath><clipPath
       clipPathUnits="userSpaceOnUse"
       id="clipPath3699"><path
         d="m 69.96,295.915 94.56,0 0,62.645 -94.56,0 0,-62.645 z"
         id="path3701"
         inkscape:connector-curvature="0" /></clipPath><clipPath
       clipPathUnits="userSpaceOnUse"
       id="clipPath3715"><path
         d="m 66.646,230.274 101.594,0 0,19.247 -101.594,0 0,-19.247 z"
         id="path3717"
         inkscape:connector-curvature="0" /></clipPath><clipPath
       clipPathUnits="userSpaceOnUse"
       id="clipPath3729"><path
         d="m 48.4,105.88 133.68,0 0,89.401 -133.68,0 0,-89.401 z"
         id="path3731"
         inkscape:connector-curvature="0" /></clipPath></defs><sodipodi:namedview
     pagecolor="#ffffff"
     bordercolor="#666666"
     borderopacity="1"
     objecttolerance="10"
     gridtolerance="10"
     guidetolerance="10"
     inkscape:pageopacity="0"
     inkscape:pageshadow="2"
     inkscape:window-width="2560"
     inkscape:window-height="1415"
     id="namedview3027"
     showgrid="false"
     fit-margin-top="5"
     fit-margin-left="5"
     fit-margin-right="5"
     fit-margin-bottom="5"
     inkscape:zoom="1.2474747"
     inkscape:cx="206.631"
     inkscape:cy="36.285491"
     inkscape:window-x="1920"
     inkscape:window-y="0"
     inkscape:window-maximized="1"
     inkscape:current-layer="g3033" /><g
     id="g3033"
     inkscape:groupmode="layer"
     inkscape:label="CCK - Gather tools and wireless equipment"
     transform="matrix(1.25,0,0,-1.25,-175.869,559.00043)"><g
       id="g3725"
       transform="matrix(2.4387593,0,0,2.4387593,-1.3747733,39.857355)"><g
         id="g3727"
         clip-path="url(#clipPath3729)"><g
           id="g3733"
           transform="translate(166.4422,149.6546)"><path
             d="m 0,0 -1.441,-1.046 -1.781,0 -1.44,1.045 -0.551,1.695 0.551,1.695 1.44,1.045 1.781,0 L 0,3.388 0.55,1.694 0,0 z M 2.248,1.956 1.527,4.175 C 1.472,4.345 1.364,4.493 1.219,4.599 l -1.886,1.37 C -0.812,6.074 -0.987,6.13 -1.166,6.13 l -2.332,0 c -0.179,0 -0.353,-0.057 -0.498,-0.162 L -5.882,4.598 C -6.027,4.493 -6.135,4.345 -6.19,4.175 L -6.911,1.956 c -0.056,-0.17 -0.056,-0.354 0,-0.525 l 0.721,-2.218 c 0.055,-0.17 0.163,-0.318 0.308,-0.423 l 1.886,-1.37 c 0.145,-0.105 0.319,-0.162 0.498,-0.162 l 2.332,0 c 0.179,0 0.354,0.056 0.499,0.161 l 1.886,1.37 c 0.145,0.106 0.253,0.254 0.308,0.424 l 0.721,2.218 c 0.056,0.171 0.056,0.355 0,0.525"
             style="fill:#100f0d;fill-opacity:1;fill-rule:nonzero;stroke:none"
             id="path3735"
             inkscape:connector-curvature="0" /></g><g
           id="g3737"
           transform="translate(164.5542,145.5786)"><path
             d="m 0,0 c -0.534,0.006 -35.328,0.333 -47.323,1.449 -12.363,1.151 -21.7,0.741 -27.001,-1.188 -4.147,-1.509 -8.639,-5.605 -10.569,-7.498 l -2.139,4.482 c -0.019,0.038 -0.049,0.065 -0.072,0.099 l -4.154,8.552 c 0.006,0.016 0.015,0.034 0.021,0.05 0.542,1.561 -0.262,3.158 -0.518,3.606 -0.132,0.358 -0.44,0.941 -0.89,1.675 -0.891,1.462 -2.587,1.212 -3.546,0.676 l -6.46,-2.841 c 0.779,5.001 5.395,8.856 10.955,8.856 1.5,0 2.956,-0.277 4.326,-0.822 0.763,-0.303 1.486,-0.685 2.155,-1.138 0.217,-0.145 5.36,-3.552 10.338,-5.274 4.988,-1.727 8.439,-1.667 13.663,-1.571 l 0.289,0.005 c 5.252,0.094 40.08,1.781 40.415,1.797 L 0.009,11.54 C 3.186,11.534 5.769,8.948 5.769,5.77 5.769,2.589 3.181,0.001 0,0 m -91.696,-2.797 c -3.261,0 -6.327,1.341 -8.42,3.636 l 6.553,2.954 c 0.386,0.141 0.709,0.309 0.985,0.49 l 3.313,-6.822 c -0.793,-0.167 -1.606,-0.258 -2.431,-0.258 m 91.695,16.23 c -0.005,0 -0.01,-0.003 -0.015,-0.003 -0.005,0 -0.009,0.003 -0.014,0.003 l -20.555,-0.626 c -0.351,-0.018 -35.15,-1.704 -40.374,-1.797 l -0.289,-0.005 c -5.02,-0.091 -8.339,-0.15 -13.01,1.467 -4.746,1.642 -9.857,5.027 -9.902,5.057 -0.776,0.526 -1.621,0.972 -2.51,1.326 -1.595,0.634 -3.286,0.955 -5.026,0.955 -7.149,0 -12.963,-5.495 -12.963,-12.249 0,-0.32 0.161,-0.618 0.428,-0.793 0.269,-0.174 0.607,-0.203 0.898,-0.073 l 7.949,3.495 c 0.029,0.013 0.064,0.031 0.091,0.046 0.079,0.045 0.779,0.423 1.033,0.005 0.579,-0.947 0.714,-1.298 0.718,-1.298 0,0 0,0.001 -0.001,0.002 0.023,-0.099 0.065,-0.198 0.118,-0.285 0.2,-0.329 0.663,-1.346 0.398,-2.098 -0.154,-0.435 -0.55,-0.764 -1.213,-1.001 -0.023,-0.009 -0.046,-0.018 -0.068,-0.028 l -7.707,-3.475 c -0.26,-0.117 -0.452,-0.344 -0.526,-0.619 -0.073,-0.275 -0.018,-0.569 0.149,-0.799 2.421,-3.337 6.42,-5.329 10.696,-5.329 1.116,0 2.217,0.134 3.283,0.397 l 0.994,-2.047 c 10e-4,-10e-4 10e-4,-0.002 10e-4,-0.002 l 1.398,-2.927 c 0.134,-0.282 0.399,-0.479 0.708,-0.528 0.048,-0.008 0.097,-0.011 0.145,-0.011 0.259,0 0.51,0.106 0.69,0.298 0.058,0.062 5.865,6.195 10.8,7.991 5.04,1.833 14.093,2.206 26.178,1.083 12.105,-1.126 47.137,-1.454 47.49,-1.457 l 0.008,0 c 4.225,0 7.661,3.437 7.661,7.662 0,4.225 -3.437,7.663 -7.661,7.663"
             style="fill:#100f0d;fill-opacity:1;fill-rule:nonzero;stroke:none"
             id="path3739"
             inkscape:connector-curvature="0" /></g><g
           id="g3741"
           transform="translate(86.993,148.6118)"><path
             d="m 0,0 -4.257,-2.223 c -0.14,-0.073 -0.29,-0.108 -0.437,-0.108 -0.341,0 -0.671,0.185 -0.84,0.508 -0.242,0.464 -0.062,1.035 0.401,1.277 l 4.257,2.224 C -0.413,1.919 0.158,1.741 0.401,1.277 0.643,0.814 0.463,0.242 0,0 m -5.83,0.376 c -0.342,0 -0.671,0.185 -0.84,0.508 -0.242,0.464 -0.062,1.035 0.401,1.277 l 4.257,2.224 c 0.463,0.241 1.035,0.062 1.277,-0.401 0.242,-0.463 0.062,-1.035 -0.401,-1.277 L -5.393,0.484 C -5.533,0.411 -5.683,0.376 -5.83,0.376 M 1.108,6.295 C 0.918,6.712 0.456,6.933 0.014,6.821 L -9.438,4.424 c -0.273,-0.07 -0.5,-0.255 -0.621,-0.509 -0.122,-0.253 -0.124,-0.548 -0.007,-0.803 l 3.794,-8.269 c 0.111,-0.24 0.317,-0.423 0.569,-0.505 0.095,-0.031 0.194,-0.046 0.291,-0.046 0.162,0 0.323,0.041 0.466,0.123 l 8.356,4.724 c 0.427,0.242 0.599,0.768 0.396,1.215 L 1.108,6.295 z"
             style="fill:#100f0d;fill-opacity:1;fill-rule:nonzero;stroke:none"
             id="path3743"
             inkscape:connector-curvature="0" /></g></g></g></g></svg>