<?xml version="1.0" encoding="UTF-8" standalone="no"?>
<!-- Created with Inkscape (http://www.inkscape.org/) -->

<svg
   xmlns:dc="http://purl.org/dc/elements/1.1/"
   xmlns:cc="http://creativecommons.org/ns#"
   xmlns:rdf="http://www.w3.org/1999/02/22-rdf-syntax-ns#"
   xmlns:svg="http://www.w3.org/2000/svg"
   xmlns="http://www.w3.org/2000/svg"
   xmlns:sodipodi="http://sodipodi.sourceforge.net/DTD/sodipodi-0.dtd"
   xmlns:inkscape="http://www.inkscape.org/namespaces/inkscape"
   width="200"
   height="200"
   id="svg3035"
   version="1.1"
   inkscape:version="0.48.3.1 r9886"
   sodipodi:docname="commotionappicons.svg"
   inkscape:export-filename="/home/critzo/SparkleShare/oti/Projects/Commotion/Graphics/gateway_node.png"
   inkscape:export-xdpi="320"
   inkscape:export-ydpi="320">
  <defs
     id="defs3037">
    <inkscape:perspective
       sodipodi:type="inkscape:persp3d"
       inkscape:vp_x="0 : 100 : 1"
       inkscape:vp_y="0 : 1000 : 0"
       inkscape:vp_z="200 : 100 : 1"
       inkscape:persp3d-origin="100 : 66.666667 : 1"
       id="perspective4421" />
  </defs>
  <sodipodi:namedview
     id="base"
     pagecolor="#ffffff"
     bordercolor="#666666"
     borderopacity="1.0"
     inkscape:pageopacity="0.0"
     inkscape:pageshadow="2"
     inkscape:zoom="2.200006"
     inkscape:cx="242.45223"
     inkscape:cy="52.794247"
     inkscape:current-layer="layer24"
     showgrid="true"
     inkscape:grid-bbox="true"
     inkscape:document-units="px"
     inkscape:window-width="1920"
     inkscape:window-height="1141"
     inkscape:window-x="1280"
     inkscape:window-y="27"
     inkscape:window-maximized="1" />
  <metadata
     id="metadata3040">
    <rdf:RDF>
      <cc:Work
         rdf:about="">
        <dc:format>image/svg+xml</dc:format>
        <dc:type
           rdf:resource="http://purl.org/dc/dcmitype/StillImage" />
        <dc:title></dc:title>
      </cc:Work>
    </rdf:RDF>
  </metadata>
  <g
     inkscape:groupmode="layer"
     id="layer9"
     inkscape:label="Layer#3"
     style="display:none"
     sodipodi:insensitive="true">
    <rect
       style="fill:#808000;fill-opacity:1"
       id="rect3815"
       width="279"
       height="244"
       x="-30"
       y="-22" />
  </g>
  <g
     inkscape:groupmode="layer"
     id="layer7"
     inkscape:label="white circle"
     style="display:none">
    <path
       sodipodi:type="arc"
       style="fill:#ffffff;fill-opacity:1"
       id="path3803"
       sodipodi:cx="116.5"
       sodipodi:cy="109"
       sodipodi:rx="72.5"
       sodipodi:ry="73"
       d="m 189,109 a 72.5,73 0 1 1 -145,0 72.5,73 0 1 1 145,0 z"
       transform="translate(-14,-10)"
       inkscape:export-filename="/home/s2e/projects/commotion/commotion-client/commotion_client/assets/images/toolbutton/save32.png"
       inkscape:export-xdpi="11.362372"
       inkscape:export-ydpi="11.362372" />
  </g>
  <g
     inkscape:groupmode="layer"
     id="layer3"
     inkscape:label="Layer"
     style="display:none" />
  <g
     id="layer1"
     inkscape:label="pink circle"
     inkscape:groupmode="layer"
     transform="translate(0,152)"
     style="display:none">
    <path
       d="m 182.73597,-51.498011 -15.98296,0 c -0.0106,18.123486 -7.32869,34.381212 -19.23798,46.2713816 C 135.57577,6.6297827 119.25649,13.915415 101.03577,13.920577 82.821693,13.915547 66.471141,6.6248189 54.514933,-5.2355644 42.582357,-17.125747 35.253722,-33.381143 35.244621,-51.498011 c 0.008,-18.149299 7.341728,-34.398103 19.267997,-46.277998 11.955862,-11.857731 28.301437,-19.138101 46.523152,-19.148381 18.22573,0.0106 34.54799,7.288 46.47926,19.139433 11.90929,11.87595 19.22632,28.128699 19.23798,46.286946 l 31.96693,0 c 0.0106,-26.810291 -10.94096,-51.222379 -28.59516,-68.768069 -17.62661,-17.57017 -42.15576,-28.46722 -69.08901,-28.4583 -26.933227,-0.008 -51.472707,10.8845 -69.117678,28.44938 -17.670864,17.53907 -28.6471299,41.950152 -28.6380285,68.776989 -0.00798,26.803672 10.9710505,51.2094575 28.6354205,68.75111 17.643587,17.567531 42.180725,28.480322 69.120286,28.471274 26.93955,0.009 51.46905,-10.903743 69.09167,-28.477726 17.65154,-17.5441355 28.60314,-41.949934 28.5925,-68.744658 l -15.98397,0"
       style="fill:#f24e9c;fill-opacity:1;fill-rule:nonzero;stroke:none"
       id="path32"
       inkscape:connector-curvature="0" />
  </g>
  <g
     inkscape:groupmode="layer"
     id="layer2"
     inkscape:label="delete x"
     style="display:none">
    <path
       d="M 147.31508,123.34794 123.88662,145.77909 53.80008,78.688882 77.228541,56.263464 147.31508,123.34794"
       style="fill:#000000;fill-opacity:1;fill-rule:nonzero;stroke:none"
       id="path48"
       inkscape:connector-curvature="0" />
  </g>
  <g
     inkscape:label="delete x copy"
     id="g3080"
     inkscape:groupmode="layer"
     style="display:none">
    <path
       inkscape:connector-curvature="0"
       id="path3082"
       style="fill:#000000;fill-opacity:1;fill-rule:nonzero;stroke:none"
       d="M 75.802972,146.53999 54.63489,121.96436 125.3179,55.502865 146.48026,80.078194 75.802972,146.53999" />
  </g>
  <g
     inkscape:groupmode="layer"
     id="g3084"
     inkscape:label="add/edit 1"
     style="display:none" />
  <g
     inkscape:label="add/edit 2"
     id="g3090"
     inkscape:groupmode="layer"
     style="display:none">
    <g
       id="g3103"
       transform="matrix(0.83022557,0,0,0.81132075,16.167837,9.566038)"
       style="fill:#e8ff00;fill-opacity:1">
      <rect
         ry="0.079057299"
         y="56"
         x="72"
         height="53"
         width="17"
         id="rect3088"
         style="fill:#e8ff00;fill-opacity:1;display:inline" />
      <rect
         transform="matrix(6.8446254e-4,0.99999977,-0.99999977,6.8446254e-4,0,0)"
         style="fill:#e8ff00;fill-opacity:1"
         id="rect3092"
         width="17"
         height="53"
         x="73.036957"
         y="-106.95007"
         ry="0.079057299" />
    </g>
  </g>
  <g
     inkscape:groupmode="layer"
     id="g3098"
     inkscape:label="add/edit 3"
     style="display:none">
    <rect
       transform="matrix(5.2952319e-4,0.99999986,-0.99999961,8.8473909e-4,0,0)"
       style="fill:#63ccf5;fill-opacity:1"
       id="rect3100"
       width="17.000011"
       height="41.002613"
       x="117.09197"
       y="-144.94069"
       ry="0.061161432" />
  </g>
  <g
     style="display:none"
     inkscape:groupmode="layer"
     id="g4423"
     inkscape:label="add">
    <g
       style="fill:#e8ff00;fill-opacity:1"
       transform="matrix(1.848872,0,0,1.754717,-48.839178,-45.264152)"
       id="g4425">
      <g
         id="g4431">
        <rect
           ry="0.079057299"
           y="56"
           x="72"
           height="53"
           width="17"
           id="rect4427"
           style="fill:#6fff84;fill-opacity:1;display:inline" />
        <rect
           transform="matrix(6.8446254e-4,0.99999977,-0.99999977,6.8446254e-4,0,0)"
           style="fill:#6fff84;fill-opacity:1"
           id="rect4429"
           width="17"
           height="53"
           x="73.036957"
           y="-106.95007"
           ry="0.079057299" />
      </g>
    </g>
  </g>
  <g
     style="display:none"
     transform="translate(0,152)"
     inkscape:groupmode="layer"
     inkscape:label="ban - purple circle"
     id="g3010">
    <path
       inkscape:connector-curvature="0"
       id="path3012"
       style="fill:#874e9c;fill-opacity:1;fill-rule:nonzero;stroke:none"
       d="m 144.42374,-50.498973 -8.29571,0 c -0.005,9.362268 -3.80383,17.760719 -9.98516,23.902968 -6.19688,6.124812 -14.66714,9.88844 -24.1243,9.891108 -9.453722,-0.0027 -17.940211,-3.76886 -24.145886,-9.895723 -6.193409,-6.142255 -9.997217,-14.539504 -10.001939,-23.898353 0.0042,-9.375607 3.810603,-17.769449 10.000739,-23.90639 6.205495,-6.125493 14.6894,-9.886405 24.147086,-9.89171 9.45976,0.0055 17.93156,3.764847 24.1243,9.887087 6.18133,6.134904 9.97911,14.530785 9.98516,23.911013 l 16.59191,0 c 0.005,-13.849719 -5.67872,-26.46057 -14.84185,-35.524361 -9.14879,-9.07643 -21.88026,-14.705656 -35.85952,-14.701046 -13.979255,-0.004 -26.716071,5.622732 -35.874407,14.69644 -9.171774,9.06037 -14.868826,21.670699 -14.864103,35.528967 -0.0041,13.846297 5.694347,26.453892 14.862749,35.515597 9.157616,9.0750735 21.893219,14.7124255 35.875761,14.7077513 13.98253,0.00468 26.71416,-5.6326778 35.8609,-14.7110853 9.16175,-9.062988 14.84599,-21.670588 14.84047,-35.512263 l -8.2962,0" />
  </g>
  <g
     inkscape:groupmode="layer"
     id="layer4"
     inkscape:label="ban"
     style="display:none" />
  <g
     style="display:none"
     inkscape:groupmode="layer"
     id="g3783"
     inkscape:label="ban 2">
    <path
       d="M 133.39592,119.70589 117.77527,138.69399 70.718906,82.332157 86.339573,63.34888 133.39592,119.70589"
       style="fill:#874e9c;fill-opacity:1;fill-rule:nonzero;stroke:none"
       id="path3785"
       inkscape:connector-curvature="0" />
  </g>
  <g
     inkscape:groupmode="layer"
     id="layer5"
     inkscape:label="gateway - pink center"
     style="display:none">
    <path
       sodipodi:type="arc"
       style="fill:#f24e9c;fill-opacity:1"
       id="path3800"
       sodipodi:cx="120.5"
       sodipodi:cy="101"
       sodipodi:rx="76.5"
       sodipodi:ry="67"
       d="m 197,101 a 76.5,67 0 1 1 -153,0 76.5,67 0 1 1 153,0 z"
       transform="matrix(0.96732026,0,0,1.0895522,-14.562092,-10.044776)" />
  </g>
  <g
     inkscape:groupmode="layer"
     id="layer16"
     inkscape:label="point"
     style="display:none">
    <path
       sodipodi:type="star"
       style="color:#000000;fill:#000000;fill-opacity:1;fill-rule:nonzero;stroke:none;stroke-width:15;marker:none;visibility:visible;display:inline;overflow:visible;enable-background:accumulate"
       id="path3084"
       sodipodi:sides="3"
       sodipodi:cx="106.92121"
       sodipodi:cy="-127.8917"
       sodipodi:r1="27.104692"
       sodipodi:r2="13.552346"
       sodipodi:arg1="1.5707963"
       sodipodi:arg2="2.6179939"
       inkscape:flatsided="false"
       inkscape:rounded="0"
       inkscape:randomized="0"
       d="m 106.92121,-100.78701 -11.736675,-20.32852 -11.736676,-20.32852 23.473351,0 23.47335,0 -11.73667,20.32852 z"
       inkscape:transform-center-y="13.243208"
       transform="matrix(1.9543818,0,0,1.9543818,-107.64429,453.7201)"
       inkscape:export-filename="/home/s2e/projects/commotion/commotion-client/commotion_client/assets/images/toolbutton/save32.png"
       inkscape:export-xdpi="11.362372"
       inkscape:export-ydpi="11.362372" />
  </g>
  <g
     style="display:none"
     transform="translate(0,152)"
     inkscape:groupmode="layer"
     inkscape:label="gateway - black circle"
     id="g3795">
    <path
       inkscape:connector-curvature="0"
       id="path3797"
       style="fill:#000000;fill-opacity:1;fill-rule:nonzero;stroke:none"
       d="m 182.73597,-51.498011 -15.98296,0 c -0.0106,18.123486 -7.32869,34.381212 -19.23798,46.2713816 C 135.57577,6.6297827 119.25649,13.915415 101.03577,13.920577 82.821693,13.915547 66.471141,6.6248189 54.514933,-5.2355644 42.582357,-17.125747 35.253722,-33.381143 35.244621,-51.498011 c 0.008,-18.149299 7.341728,-34.398103 19.267997,-46.277998 11.955862,-11.857731 28.301437,-19.138101 46.523152,-19.148381 18.22573,0.0106 34.54799,7.288 46.47926,19.139433 11.90929,11.87595 19.22632,28.128699 19.23798,46.286946 l 31.96693,0 c 0.0106,-26.810291 -10.94096,-51.222379 -28.59516,-68.768069 -17.62661,-17.57017 -42.15576,-28.46722 -69.08901,-28.4583 -26.933227,-0.008 -51.472707,10.8845 -69.117678,28.44938 -17.670864,17.53907 -28.6471299,41.950152 -28.6380285,68.776989 -0.00798,26.803672 10.9710505,51.2094575 28.6354205,68.75111 17.643587,17.567531 42.180725,28.480322 69.120286,28.471274 26.93955,0.009 51.46905,-10.903743 69.09167,-28.477726 17.65154,-17.5441355 28.60314,-41.949934 28.5925,-68.744658 l -15.98397,0"
       inkscape:export-filename="/home/s2e/projects/commotion/commotion-client/commotion_client/assets/images/toolbutton/save32.png"
       inkscape:export-xdpi="11.362372"
       inkscape:export-ydpi="11.362372" />
  </g>
  <g
     style="display:none"
     inkscape:label="node - black center"
     id="g3963"
     inkscape:groupmode="layer">
    <path
       transform="matrix(0.96732026,0,0,1.0895522,-14.562092,-10.044776)"
       d="m 197,101 a 76.5,67 0 1 1 -153,0 76.5,67 0 1 1 153,0 z"
       sodipodi:ry="67"
       sodipodi:rx="76.5"
       sodipodi:cy="101"
       sodipodi:cx="120.5"
       id="path3965"
       style="fill:#000000;fill-opacity:1"
       sodipodi:type="arc" />
  </g>
  <g
     id="g3967"
     inkscape:label="node - pink outer"
     inkscape:groupmode="layer"
     transform="translate(0,152)"
     style="display:none">
    <path
       d="m 182.73597,-51.498011 -15.98296,0 c -0.0106,18.123486 -7.32869,34.381212 -19.23798,46.2713816 C 135.57577,6.6297827 119.25649,13.915415 101.03577,13.920577 82.821693,13.915547 66.471141,6.6248189 54.514933,-5.2355644 42.582357,-17.125747 35.253722,-33.381143 35.244621,-51.498011 c 0.008,-18.149299 7.341728,-34.398103 19.267997,-46.277998 11.955862,-11.857731 28.301437,-19.138101 46.523152,-19.148381 18.22573,0.0106 34.54799,7.288 46.47926,19.139433 11.90929,11.87595 19.22632,28.128699 19.23798,46.286946 l 31.96693,0 c 0.0106,-26.810291 -10.94096,-51.222379 -28.59516,-68.768069 -17.62661,-17.57017 -42.15576,-28.46722 -69.08901,-28.4583 -26.933227,-0.008 -51.472707,10.8845 -69.117678,28.44938 -17.670864,17.53907 -28.6471299,41.950152 -28.6380285,68.776989 -0.00798,26.803672 10.9710505,51.2094575 28.6354205,68.75111 17.643587,17.567531 42.180725,28.480322 69.120286,28.471274 26.93955,0.009 51.46905,-10.903743 69.09167,-28.477726 17.65154,-17.5441355 28.60314,-41.949934 28.5925,-68.744658 l -15.98397,0"
       style="fill:#f24e9c;fill-opacity:1;fill-rule:nonzero;stroke:none"
       id="path3969"
       inkscape:connector-curvature="0" />
  </g>
  <g
     style="display:none"
     transform="translate(0,152)"
     inkscape:groupmode="layer"
     inkscape:label="pink circle copy"
     id="g3802" />
  <g
     inkscape:groupmode="layer"
     id="layer6"
     inkscape:label="Layer#1"
     style="display:none" />
  <g
     style="display:none"
     inkscape:label="Layer#2"
     id="g3816"
     inkscape:groupmode="layer" />
  <g
     inkscape:groupmode="layer"
     id="g3820"
     inkscape:label="pink power"
     style="display:none">
    <path
       style="fill:#f24e9c;fill-opacity:1;fill-rule:nonzero;stroke:none"
       d="m 51.4375,16.71875 c -7.157814,4.182465 -13.724928,9.217332 -19.53125,15 C 14.281721,49.27148 3.2721486,73.673162 3.28125,100.5 c -0.00798,26.80367 10.96063,51.20835 28.625,68.75 17.643587,17.56753 42.185439,28.4778 69.125,28.46875 26.93955,0.009 51.47113,-10.89477 69.09375,-28.46875 17.65154,-17.54414 28.60439,-41.95528 28.59375,-68.75 0.0106,-26.810292 -10.93955,-51.23556 -28.59375,-68.78125 -5.44952,-5.43207 -11.55139,-10.218682 -18.1875,-14.25 l -19.46875,25.5625 c 5.53925,3.007219 10.58352,6.769532 15.03125,11.1875 11.90929,11.87595 19.23834,28.123002 19.25,46.28125 -0.0106,18.12348 -7.34071,34.39108 -19.25,46.28125 -11.93926,11.85641 -28.24803,19.11983 -46.46875,19.125 C 82.817173,165.90125 66.456208,158.61038 54.5,146.75 42.567424,134.85981 35.259101,118.61687 35.25,100.5 35.258,82.3507 42.660492,66.010193 54.5,54.21875 58.857708,49.878734 63.832749,46.166835 69.28125,43.1875 L 51.4375,16.71875 z"
       id="path3804"
       inkscape:connector-curvature="0" />
    <rect
       style="fill:#f24e9c;fill-opacity:1"
       id="rect3822"
       width="103.97418"
       height="32.363018"
       x="-98.441299"
       y="82.952835"
       transform="matrix(0.0026322,-0.99999654,0.9998784,0.01559462,0,0)" />
  </g>
  <g
     style="display:none"
     inkscape:label="grey power"
     id="g3028"
     inkscape:groupmode="layer">
    <path
       style="fill:#808080;fill-opacity:1;fill-rule:nonzero;stroke:none"
       d="m 51.4375,16.71875 c -7.157814,4.182465 -13.724928,9.217332 -19.53125,15 C 14.281721,49.27148 3.2721486,73.673162 3.28125,100.5 c -0.00798,26.80367 10.96063,51.20835 28.625,68.75 17.643587,17.56753 42.185439,28.4778 69.125,28.46875 26.93955,0.009 51.47113,-10.89477 69.09375,-28.46875 17.65154,-17.54414 28.60439,-41.95528 28.59375,-68.75 0.0106,-26.810292 -10.93955,-51.23556 -28.59375,-68.78125 -5.44952,-5.43207 -11.55139,-10.218682 -18.1875,-14.25 l -19.46875,25.5625 c 5.53925,3.007219 10.58352,6.769532 15.03125,11.1875 11.90929,11.87595 19.23834,28.123002 19.25,46.28125 -0.0106,18.12348 -7.34071,34.39108 -19.25,46.28125 -11.93926,11.85641 -28.24803,19.11983 -46.46875,19.125 C 82.817173,165.90125 66.456208,158.61038 54.5,146.75 42.567424,134.85981 35.259101,118.61687 35.25,100.5 35.258,82.3507 42.660492,66.010193 54.5,54.21875 58.857708,49.878734 63.832749,46.166835 69.28125,43.1875 L 51.4375,16.71875 z"
       id="path3032"
       inkscape:connector-curvature="0" />
    <rect
       transform="matrix(0.0026322,-0.99999654,0.9998784,0.01559462,0,0)"
       y="82.952835"
       x="-98.441299"
       height="32.363018"
       width="103.97418"
       id="rect3038"
       style="fill:#808080;fill-opacity:1" />
  </g>
  <g
     style="display:none"
     transform="translate(0,152)"
     inkscape:groupmode="layer"
     inkscape:label="pink circle copy#1"
     id="g3031">
    <path
       inkscape:connector-curvature="0"
       id="path3033"
       style="fill:#f24e9c;fill-opacity:1;fill-rule:nonzero;stroke:none"
       d="m 182.73597,-51.498011 -15.98296,0 c -0.0106,18.123486 -7.32869,34.381212 -19.23798,46.2713816 C 135.57577,6.6297827 119.25649,13.915415 101.03577,13.920577 82.821693,13.915547 66.471141,6.6248189 54.514933,-5.2355644 42.582357,-17.125747 35.253722,-33.381143 35.244621,-51.498011 c 0.008,-18.149299 7.341728,-34.398103 19.267997,-46.277998 11.955862,-11.857731 28.301437,-19.138101 46.523152,-19.148381 18.22573,0.0106 34.54799,7.288 46.47926,19.139433 11.90929,11.87595 19.22632,28.128699 19.23798,46.286946 l 31.96693,0 c 0.0106,-26.810291 -10.94096,-51.222379 -28.59516,-68.768069 -17.62661,-17.57017 -42.15576,-28.46722 -69.08901,-28.4583 -26.933227,-0.008 -51.472707,10.8845 -69.117678,28.44938 -17.670864,17.53907 -28.6471299,41.950152 -28.6380285,68.776989 -0.00798,26.803672 10.9710505,51.2094575 28.6354205,68.75111 17.643587,17.567531 42.180725,28.480322 69.120286,28.471274 26.93955,0.009 51.46905,-10.903743 69.09167,-28.477726 17.65154,-17.5441355 28.60314,-41.949934 28.5925,-68.744658 l -15.98397,0" />
  </g>
  <g
     inkscape:groupmode="layer"
     id="layer8"
     inkscape:label="advanced blue circle"
     style="display:none" />
  <g
     inkscape:label="advanced blue circle copy"
     id="g3035"
     inkscape:groupmode="layer"
     style="display:none">
    <path
       d="m 114.35914,101.20217 -7.40735,0 c -0.003,1.72167 -0.68666,3.21233 -1.82766,4.34577 -1.15344,1.11948 -2.66836,1.79263 -4.41951,1.79507 -1.746882,-0.002 -3.254681,-0.66896 -4.404195,-1.79261 -1.139579,-1.1331 -1.826236,-2.62376 -1.829083,-4.34823 0.0028,-3.381832 2.785422,-6.119171 6.233278,-6.123002 3.46175,0.0028 6.24432,2.74816 6.24717,6.123002 l 14.81471,0 c -0.003,-11.420494 -9.42819,-20.672639 -21.06188,-20.675435 -11.630813,0.0028 -21.043719,9.259135 -21.047988,20.675435 0.0028,11.42189 9.410059,20.68768 21.047988,20.69467 11.64081,-0.006 21.05795,-9.26999 21.06188,-20.69467 l -7.40736,0"
       style="fill:#79d3f6;fill-opacity:1;fill-rule:nonzero;stroke:none"
       id="path3037"
       inkscape:connector-curvature="0"
       inkscape:export-filename="/home/s2e/repo/commotion-dev/project-assets/Commotion UI Graphics/general client resources/advanced_point.png"
       inkscape:export-xdpi="22.014597"
       inkscape:export-ydpi="22.014597" />
    <path
       inkscape:connector-curvature="0"
       id="path26"
       style="fill:#79d3f6;fill-opacity:1;fill-rule:nonzero;stroke:none"
       d="m 136.12315,101.01377 -7.40773,0 c -0.003,7.61539 -3.11589,14.44163 -8.18828,19.43468 -5.08945,4.98711 -12.03287,8.04949 -19.77927,8.05228 -7.743924,-0.003 -14.685576,-3.06098 -19.773583,-8.05228 -5.074145,-4.99305 -8.187226,-11.81929 -8.190073,-19.43468 0.0028,-7.604579 3.115928,-14.429406 8.190073,-19.423513 5.088007,-4.987465 12.029659,-8.045652 19.773583,-8.048098 7.7464,0.0024 14.68982,3.060633 19.77927,8.048098 5.07239,4.994107 8.18547,11.818934 8.18828,19.423513 l 14.81509,0 c -0.006,-23.205179 -19.15097,-42.018794 -42.78264,-42.025434 -23.630246,0.0067 -42.77162,18.820255 -42.778366,42.025434 0.0057,23.21775 19.14812,42.03381 42.778366,42.04044 23.63167,-0.006 42.77552,-18.82269 42.78264,-42.04044 l -7.40736,0"
       inkscape:export-filename="/home/s2e/repo/commotion-dev/project-assets/Commotion UI Graphics/general client resources/advanced_point.png"
       inkscape:export-xdpi="22.014597"
       inkscape:export-ydpi="22.014597" />
  </g>
  <g
     inkscape:groupmode="layer"
     id="layer17"
     inkscape:label="help"
     style="display:none">
    <g
       transform="matrix(22.222067,0,0,22.222067,-791.55968,-524.29953)"
       style="font-size:6px;font-style:normal;font-variant:normal;font-weight:bold;font-stretch:normal;line-height:125%;letter-spacing:0px;word-spacing:0px;fill:#874e9c;fill-opacity:1;stroke:none;font-family:Arial;-inkscape-font-specification:Sans Bold"
       id="flowRoot3106"
       inkscape:export-filename="/home/s2e/repo/commotion-dev/project-assets/Commotion UI Graphics/general client resources/help_point.png"
       inkscape:export-xdpi="22.014597"
       inkscape:export-ydpi="22.014597">
      <path
         d="m 40.450195,29.234537 -0.74707,0 c -0.002,-0.107421 -0.0029,-0.172851 -0.0029,-0.196289 -1e-6,-0.242186 0.04004,-0.441405 0.120117,-0.597657 0.08008,-0.156248 0.240233,-0.332029 0.480469,-0.527343 0.240232,-0.19531 0.383787,-0.32324 0.430664,-0.383789 0.07226,-0.0957 0.108396,-0.201169 0.108399,-0.316407 -3e-6,-0.160153 -0.06446,-0.296871 -0.19336,-0.410156 -0.126955,-0.115231 -0.29883,-0.172848 -0.515625,-0.172851 -0.208986,3e-6 -0.38379,0.05957 -0.524414,0.17871 -0.140626,0.119145 -0.237305,0.300785 -0.290039,0.544922 l -0.755859,-0.09375 c 0.02148,-0.349606 0.169921,-0.64648 0.445312,-0.890625 0.277343,-0.244136 0.640624,-0.366206 1.089844,-0.366211 0.472654,5e-6 0.84863,0.124028 1.12793,0.372071 0.279293,0.246097 0.418942,0.533206 0.418945,0.861328 -3e-6,0.181643 -0.05176,0.353518 -0.155273,0.515625 -0.101566,0.162112 -0.320316,0.382815 -0.65625,0.662109 -0.173831,0.144533 -0.282229,0.260744 -0.325196,0.348633 -0.04102,0.08789 -0.05957,0.245119 -0.05566,0.47168 m -0.74707,1.107422 0,-0.823243 0.823242,0 0,0.823243 -0.823242,0"
         style="fill:#874e9c;fill-opacity:1"
         id="path3115"
         inkscape:connector-curvature="0" />
    </g>
  </g>
  <g
     inkscape:groupmode="layer"
     id="layer18"
     inkscape:label="about"
     style="display:none">
    <g
       style="font-size:117.67883301px;font-style:normal;font-variant:normal;font-weight:bold;font-stretch:normal;line-height:125%;letter-spacing:0px;word-spacing:0px;fill:#6fff84;fill-opacity:1;stroke:none;font-family:Arial;-inkscape-font-specification:Sans Bold"
       id="text3118"
       inkscape:export-filename="/home/s2e/repo/commotion-dev/project-assets/Commotion UI Graphics/general client resources/about_point.png"
       inkscape:export-xdpi="22.014597"
       inkscape:export-ydpi="22.014597">
      <path
         d="m 92.392093,72.563179 0,-14.939696 16.146367,0 0,14.939696 -16.146367,0 m 0,69.297201 0,-61.022908 16.146367,0 0,61.022908 -16.146367,0"
         style="fill:#6fff84;fill-opacity:1"
         id="path3123"
         inkscape:connector-curvature="0" />
    </g>
  </g>
  <g
     inkscape:groupmode="layer"
     id="layer20"
     inkscape:label="user"
     style="display:none">
    <path
       inkscape:connector-curvature="0"
       id="path40-4-9-2-8-3-0-8"
       style="fill:#63ccf5;fill-opacity:1;stroke:#63ccf5;stroke-width:4.74831438;stroke-linecap:butt;stroke-linejoin:miter;stroke-miterlimit:4;stroke-opacity:1;stroke-dasharray:none"
       d="m 142.90522,100.57796 0,18.57945 c 0,11.86163 -1.64161,20.38568 -4.9331,25.5644 -3.29224,5.18376 -9.73811,7.7816 -19.30991,7.7816 l -35.314842,0 c -9.579353,0 -16.015913,-2.50491 -19.308475,-7.51199 -3.292318,-5.00842 -4.94376,-12.82607 -4.94376,-23.46368 l 0,-20.94978 c 0,-5.714308 1.474421,-9.552189 4.415222,-11.533854 2.948256,-1.975291 6.826142,-2.96193 11.657881,-2.96193 3.958711,0 5.943731,1.581424 5.943731,4.743097 0,1.228813 -0.445269,2.327233 -1.316536,3.297435 -0.879553,0.964082 -2.336365,1.445748 -4.357862,1.445748 -2.634048,0 -4.434005,0.399149 -5.397754,1.185621 -0.965094,0.789912 -1.456885,2.3757 -1.456885,4.745113 l 0,20.02712 c 0,8.52227 0.882827,14.235 2.634721,17.13823 1.761364,2.893 5.888397,4.3499 12.389664,4.3499 l 34.785885,0 c 6.59562,0 10.74965,-1.53992 12.4655,-4.61942 1.70696,-3.06808 2.56041,-9.48661 2.56041,-19.23904 l 0,-17.65679 c 0,-2.369413 -0.47545,-3.95587 -1.43769,-4.745113 -0.96509,-0.785717 -2.77426,-1.185621 -5.41697,-1.185621 -2.01127,0 -3.45808,-0.482167 -4.34124,-1.445748 -0.87964,-0.970454 -1.31645,-2.069125 -1.31645,-3.297435 0,-3.16159 2.02325,-4.743097 6.06449,-4.743097 4.8334,0 8.69963,0.986471 11.59296,2.96193 2.90256,1.981665 4.3406,5.819546 4.3406,11.533854 z"
       inkscape:export-filename="/home/s2e/projects/commotion/commotion-client/commotion_client/assets/images/toolbutton/user32.png"
       inkscape:export-xdpi="11.512491"
       inkscape:export-ydpi="11.512491" />
    <path
       inkscape:connector-curvature="0"
       id="path44-6-5-4-0-2-7-7"
       style="fill:none;stroke:#63ccf5;stroke-width:11.87083721;stroke-linecap:butt;stroke-linejoin:miter;stroke-miterlimit:10;stroke-opacity:1;stroke-dasharray:none"
       d="m 101.55626,44.342955 c 8.84789,0 16.01693,7.158878 16.01693,16.007272 0,8.847133 -7.16904,16.01943 -16.01693,16.01943 -8.856533,0 -16.015996,-7.172297 -16.015996,-16.01943 0,-8.848394 7.159463,-16.007272 16.015996,-16.007272 z"
       inkscape:export-filename="/home/s2e/projects/commotion/commotion-client/commotion_client/assets/images/toolbutton/user32.png"
       inkscape:export-xdpi="11.512491"
       inkscape:export-ydpi="11.512491" />
  </g>
  <g
     inkscape:groupmode="layer"
     id="layer21"
     inkscape:label="settings"
     style="display:none">
    <path
       inkscape:connector-curvature="0"
       style="fill:#7b6dbd;fill-opacity:1;stroke:none;display:inline"
       d="m 94.283669,46.897626 c -2.80025,0 -5.102637,2.211317 -5.102637,5.011486 l 0,13.029925 c -1.713302,0.534896 -3.328904,1.137628 -4.920335,1.91346 l -9.111856,-9.020706 c -1.979892,-1.97997 -5.218426,-1.97997 -7.198319,0 l -8.656259,8.65626 c -1.979893,1.97997 -1.979893,5.218348 0,7.198318 l 8.929633,8.838483 c -0.858952,1.652717 -1.590105,3.402979 -2.186833,5.193709 l -12.574329,0 c -2.800247,0 -5.102636,2.302545 -5.102636,5.102636 l 0,12.300953 c 0,2.80017 2.302389,5.01149 5.102636,5.01149 l 12.574329,0 c 0.596494,1.78605 1.331234,3.54271 2.186833,5.19371 l -8.929633,8.92963 c -1.979893,1.97997 -1.979893,5.1272 0,7.10717 l 8.656259,8.74741 c 1.979815,1.97997 5.218271,1.97997 7.198319,0 l 9.111856,-9.11186 c 1.60032,0.78223 3.199314,1.46402 4.920335,2.00461 l 0,12.93885 c 3.12e-4,2.80002 2.302387,5.01141 5.102637,5.01141 l 12.300951,0 c 2.80002,0 5.10264,-2.21139 5.10264,-5.01141 l 0,-13.3033 c 1.5912,-0.55828 3.07658,-1.23704 4.55589,-2.00461 l 9.4763,9.47631 c 1.98013,1.97997 5.21851,1.97997 7.1984,0 l 8.65618,-8.74741 c 1.97981,-1.97997 1.97981,-5.1272 0,-7.10717 l -9.65853,-9.74968 c 0.69007,-1.41466 1.3204,-2.86137 1.82239,-4.37366 l 13.66775,0 c 2.79985,0 5.10256,-2.21132 5.10256,-5.01149 l 0,-12.300953 c 0,-2.800091 -2.30271,-5.102636 -5.10256,-5.102636 l -13.66775,0 c -0.50214,-1.514316 -1.13123,-2.957285 -1.82239,-4.373666 l 9.65853,-9.658526 c 1.97981,-1.97997 1.97981,-5.218348 0,-7.198318 l -8.65618,-8.65626 c -0.99003,-0.990024 -2.35299,-1.549013 -3.64477,-1.549013 -1.29217,0 -2.56368,0.559067 -3.55363,1.549013 l -9.4763,9.476302 c -1.47619,-0.765695 -2.96789,-1.447804 -4.55589,-2.004531 l 0,-13.39445 c 0,-2.800169 -2.30262,-5.011486 -5.10264,-5.011486 l -12.300951,0 z m 6.287201,36.811715 c 8.37681,0 15.21676,6.750285 15.21676,15.125686 0,8.369243 -6.83995,15.216763 -15.21676,15.216763 -8.366041,0 -15.125684,-6.84752 -15.125684,-15.216763 0,-8.375401 6.759643,-15.125686 15.125684,-15.125686 z"
       id="rect9134-9-1"
       inkscape:export-filename="/home/s2e/projects/commotion/commotion-client/commotion_client/assets/images/toolbutton/settings32.png"
       inkscape:export-xdpi="11.362372"
       inkscape:export-ydpi="11.362372" />
  </g>
  <g
     inkscape:groupmode="layer"
     id="layer22"
     inkscape:label="Save"
     style="display:none">
    <path
       style="fill:#f24e9c;fill-opacity:1;stroke:none"
       d="m 51.632857,74.915312 29.018296,29.018298 -11.150756,11.15077 22.380048,1.12692 22.397345,1.04906 -1.0967,-22.349717 -1.12698,-22.379991 -11.10306,11.103055 -29.018293,-29.018305 z"
       id="path3149-2"
       inkscape:connector-curvature="0"
       sodipodi:nodetypes="cccccccccc"
       inkscape:export-filename="/home/s2e/projects/commotion/commotion-client/commotion_client/assets/images/toolbutton/save32.png"
       inkscape:export-xdpi="11.362372"
       inkscape:export-ydpi="11.362372" />
    <path
       sodipodi:type="arc"
       style="fill:#000000;fill-opacity:1;stroke:none"
       id="path13182-7"
       sodipodi:cx="136.57718"
       sodipodi:cy="133.41014"
       sodipodi:rx="14.609001"
       sodipodi:ry="14.609001"
       d="m 151.18618,133.41014 a 14.609001,14.609001 0 1 1 -29.218,0 14.609001,14.609001 0 1 1 29.218,0 z"
       transform="matrix(1.2093023,0,0,1.2093023,-35.041061,-30.980752)"
       inkscape:export-filename="/home/s2e/projects/commotion/commotion-client/commotion_client/assets/images/toolbutton/save32.png"
       inkscape:export-xdpi="11.362372"
       inkscape:export-ydpi="11.362372" />
  </g>
  <g
     inkscape:groupmode="layer"
     id="layer24"
     inkscape:label="full_screen_start"
     style="display:inline">
    <path
       style="fill:none;stroke:#000000;stroke-width:4.36514616000000011;stroke-miterlimit:4;stroke-opacity:1;display:inline"
       d="m 43.724304,40.121173 121.191186,0 0,104.578417 -121.191186,0 z"
       id="rect13802-7"
       inkscape:connector-curvature="0"
       sodipodi:nodetypes="ccccc" />
    <path
       inkscape:export-ydpi="11.362372"
       inkscape:export-xdpi="11.362372"
       inkscape:export-filename="/home/s2e/projects/commotion/commotion-client/commotion_client/assets/images/toolbutton/save32.png"
       sodipodi:nodetypes="cccccccccc"
       inkscape:connector-curvature="0"
       id="path13804-6"
       d="m 128.86081,118.64997 14.9555,14.95551 -5.7469,5.74691 11.53428,0.58079 11.5432,0.54067 -0.56522,-11.51864 -0.58083,-11.53425 -5.72232,5.72231 -14.95551,-14.95551 z"
       style="fill:#000000;fill-opacity:1;stroke:none;display:inline" />
    <path
       inkscape:export-ydpi="11.362372"
       inkscape:export-xdpi="11.362372"
       inkscape:export-filename="/home/s2e/projects/commotion/commotion-client/commotion_client/assets/images/toolbutton/save32.png"
       sodipodi:nodetypes="cccccccccc"
       inkscape:connector-curvature="0"
       id="path13806-9"
       d="M 80.271627,65.981224 65.316114,51.025722 71.063016,45.278809 59.528739,44.698015 47.985546,44.157348 l 0.56522,11.518646 0.580825,11.534241 5.722318,-5.722308 14.955513,14.955512 z"
       style="fill:#000000;fill-opacity:1;stroke:none;display:inline" />
    <path
       inkscape:export-ydpi="11.362372"
       inkscape:export-xdpi="11.362372"
       inkscape:export-filename="/home/s2e/projects/commotion/commotion-client/commotion_client/assets/images/toolbutton/save32.png"
       sodipodi:nodetypes="cccccccccc"
       inkscape:connector-curvature="0"
       id="path13808-7"
       d="m 128.7001,66.068598 14.9555,-14.955502 -5.7469,-5.746913 11.53428,-0.580794 11.5432,-0.540667 -0.56522,11.518646 -0.58083,11.534241 -5.72232,-5.722308 -14.95551,14.955512 z"
       style="fill:#000000;fill-opacity:1;stroke:none;display:inline" />
    <path
       inkscape:export-ydpi="11.362372"
       inkscape:export-xdpi="11.362372"
       inkscape:export-filename="/home/s2e/projects/commotion/commotion-client/commotion_client/assets/images/toolbutton/save32.png"
       sodipodi:nodetypes="cccccccccc"
       inkscape:connector-curvature="0"
       id="path13810-6"
       d="m 79.858551,118.81069 -14.955513,14.9555 5.746902,5.74691 -11.534277,0.58079 -11.543193,0.54067 0.56522,-11.51864 0.580825,-11.53425 5.722318,5.72231 14.955513,-14.95551 z"
       style="fill:#000000;fill-opacity:1;stroke:none;display:inline" />
    <rect
       y="76.604889"
       x="80.362572"
       height="31.356531"
       width="48.240826"
       id="rect13812-4"
       style="fill:#f24e9c;fill-opacity:1;stroke:none;display:inline" />
  </g>
  <g
     inkscape:label="full_screen_start copy"
     id="g13800"
     inkscape:groupmode="layer"
     style="display:none">
    <path
       style="fill:none;stroke:#f24e9c;stroke-width:4.36514616;stroke-miterlimit:4;stroke-opacity:1"
       d="m 43.724304,40.12117 121.191186,0 0,104.57842 -121.191186,0 z"
       id="rect13802"
       inkscape:connector-curvature="0"
       sodipodi:nodetypes="ccccc" />
    <path
       inkscape:export-ydpi="11.362372"
       inkscape:export-xdpi="11.362372"
       inkscape:export-filename="/home/s2e/projects/commotion/commotion-client/commotion_client/assets/images/toolbutton/save32.png"
       sodipodi:nodetypes="cccccccccc"
       inkscape:connector-curvature="0"
       id="path13804"
       d="m 161.14689,130.01164 -14.9555,-14.95551 5.7469,-5.74691 -11.53428,-0.58079 -11.5432,-0.54067 0.56522,11.51864 0.58083,11.53425 5.72232,-5.72231 14.95551,14.95551 z"
       style="fill:#000000;fill-opacity:1;stroke:none;display:inline" />
    <path
       inkscape:export-ydpi="11.362372"
       inkscape:export-xdpi="11.362372"
       inkscape:export-filename="/home/s2e/projects/commotion/commotion-client/commotion_client/assets/images/toolbutton/save32.png"
       sodipodi:nodetypes="cccccccccc"
       inkscape:connector-curvature="0"
       id="path13806"
       d="m 47.985546,54.61956 14.955513,14.955502 -5.746902,5.746913 11.534277,0.580794 11.543193,0.540667 L 79.706407,64.92479 79.125582,53.390549 73.403264,59.112857 58.447751,44.157345 z"
       style="fill:#000000;fill-opacity:1;stroke:none;display:inline" />
    <path
       inkscape:export-ydpi="11.362372"
       inkscape:export-xdpi="11.362372"
       inkscape:export-filename="/home/s2e/projects/commotion/commotion-client/commotion_client/assets/images/toolbutton/save32.png"
       sodipodi:nodetypes="cccccccccc"
       inkscape:connector-curvature="0"
       id="path13808"
       d="m 160.98618,54.706934 -14.9555,14.955502 5.7469,5.746913 -11.53428,0.580794 -11.5432,0.540667 0.56522,-11.518646 0.58083,-11.534241 5.72232,5.722308 14.95551,-14.955512 z"
       style="fill:#000000;fill-opacity:1;stroke:none;display:inline" />
    <path
       inkscape:export-ydpi="11.362372"
       inkscape:export-xdpi="11.362372"
       inkscape:export-filename="/home/s2e/projects/commotion/commotion-client/commotion_client/assets/images/toolbutton/save32.png"
       sodipodi:nodetypes="cccccccccc"
       inkscape:connector-curvature="0"
       id="path13810"
       d="m 47.57247,130.17234 14.955513,-14.9555 -5.746902,-5.74691 11.534277,-0.58079 11.543193,-0.54067 -0.56522,11.51864 -0.580825,11.53425 -5.722318,-5.72231 -14.955513,14.95551 z"
       style="fill:#000000;fill-opacity:1;stroke:none;display:inline" />
    <rect
       y="76.604889"
       x="80.362572"
       height="31.356531"
       width="48.240826"
       id="rect13812"
       style="fill:#000000;fill-opacity:1;stroke:none" />
  </g>
  <g
     inkscape:groupmode="layer"
     id="layer23"
     inkscape:label="Load"
     style="display:none">
    <path
       style="fill:#000000;fill-opacity:1;stroke:none"
       d="M 120.39319,100.01815 91.374894,70.99985 102.52565,59.84908 80.145602,58.72216 57.748253,57.6731 l 1.0967,22.349719 1.12698,22.379991 11.10306,-11.103055 29.018297,29.018305 z"
       id="path3149"
       inkscape:connector-curvature="0"
       sodipodi:nodetypes="cccccccccc"
       inkscape:export-filename="/home/s2e/projects/commotion/commotion-client/commotion_client/assets/images/toolbutton/load32.png"
       inkscape:export-xdpi="11.362372"
       inkscape:export-ydpi="11.362372" />
    <path
       sodipodi:type="arc"
       style="fill:#f24e9c;fill-opacity:1;stroke:none"
       id="path13182"
       sodipodi:cx="136.57718"
       sodipodi:cy="133.41014"
       sodipodi:rx="14.609001"
       sodipodi:ry="14.609001"
       d="m 151.18618,133.41014 a 14.609001,14.609001 0 1 1 -29.218,0 14.609001,14.609001 0 1 1 29.218,0 z"
       transform="matrix(1.2093023,0,0,1.2093023,-35.041061,-30.980752)"
       inkscape:export-filename="/home/s2e/projects/commotion/commotion-client/commotion_client/assets/images/toolbutton/load32.png"
       inkscape:export-xdpi="11.362372"
       inkscape:export-ydpi="11.362372" />
  </g>
  <g
     inkscape:groupmode="layer"
     id="layer19"
     inkscape:label="license"
     style="display:none">
    <path
       style="color:#000000;fill:#d9e70c;fill-opacity:1;fill-rule:nonzero;stroke:none;stroke-width:15;marker:none;visibility:visible;display:inline;overflow:visible;enable-background:accumulate"
       d="m 91.561561,64.531681 c -0.3638,-0.01147 -0.719892,0.01398 -1.072063,0.067 -2.817365,0.424233 -5.559074,1.302922 -8.375491,2.579651 -2.816415,1.276729 -5.496076,2.78782 -8.341988,5.125801 -2.845912,2.337979 -6.210936,6.643004 -8.341989,9.012028 -2.131054,2.369023 -2.098786,5.006854 -4.522765,5.159302 -3.466341,0.04624 -7.963357,-9.435579 -10.251601,-12.864754 -3.111998,-4.376629 -6.505389,-5.967714 -6.633389,0 -0.127996,5.967723 0.236615,11.851777 1.7086,15.511409 1.524599,3.653356 4.832637,7.833016 9.648566,11.893202 2.557909,1.45188 6.576665,3.37073 10.050589,2.21113 -0.719275,3.2375 0.771542,6.84079 3.122229,9.77812 11.656348,14.56537 12.440148,40.55944 30.044714,40.55944 17.604567,0 19.668987,-26.6491 31.860357,-40.35398 2.9622,-3.32994 2.15349,-7.96394 0.87106,-11.72568 2.10797,1.46778 4.93836,1.89793 7.30342,1.97661 7.31227,-2.20643 12.86213,-7.34801 15.44441,-13.735807 1.64508,-5.142048 1.81981,-15.842296 -1.87611,-20.536703 -4.017,-4.932877 -4.98682,3.740516 -6.56639,9.916581 -1.25752,2.65058 -1.53621,7.051759 -5.02529,7.370432 -3.48908,0.318674 -5.58414,-5.381748 -8.37549,-7.738954 -4.91325,-4.136256 -7.55526,-7.850989 -13.73581,-11.089149 -2.8164,-1.27673 -8.5063,-2.624446 -11.32366,-3.048679 -2.81736,-0.424231 -5.05493,1.474086 -7.839453,1.474086 -2.436459,0 -5.225856,-1.460814 -7.772456,-1.541086 z"
       id="path3155"
       inkscape:connector-curvature="0"
       sodipodi:nodetypes="scsssccscccssscccccsccsss"
       inkscape:export-filename="/home/s2e/repo/commotion-dev/project-assets/Commotion UI Graphics/general client resources/license_point.png"
       inkscape:export-xdpi="22.014597"
       inkscape:export-ydpi="22.014597" />
  </g>
  <g
     inkscape:groupmode="layer"
     id="layer10"
     inkscape:label="upload flag"
     style="display:none">
    <path
       inkscape:connector-curvature="0"
       id="path50"
       style="fill:#7b6dbd;fill-opacity:1;fill-rule:nonzero;stroke:none"
       d="m 87.001593,142.68698 14.597417,-14.13536 14.53633,14.06063 0,-71.74999 -14.53633,-14.05365 -14.597417,14.12841 0,71.74996"
       inkscape:export-filename="/home/s2e/repo/commotion-dev/project-assets/Commotion UI Graphics/general client resources/upload_point.png"
       inkscape:export-xdpi="22.014597"
       inkscape:export-ydpi="22.014597" />
  </g>
  <g
     inkscape:groupmode="layer"
     id="layer11"
     inkscape:label="setup wizard +"
     style="display:none" />
  <g
     inkscape:groupmode="layer"
     id="layer12"
     inkscape:label="setup wizard ++"
     style="display:none">
    <g
       id="g3109"
       transform="matrix(2.5511583,2.4868186,-2.5144443,2.5794988,101.30694,-427.94818)"
       inkscape:export-filename="/home/s2e/repo/commotion-dev/project-assets/Commotion UI Graphics/general client resources/setupwiz_point.png"
       inkscape:export-xdpi="22.014597"
       inkscape:export-ydpi="22.014597">
      <path
         id="path48-2"
         style="fill:#d9e70c;fill-opacity:1;fill-rule:nonzero;stroke:none"
         d="m 115.7575,110.86519 -5.89125,5.89262 -17.62375,-17.6245 5.89125,-5.89112 17.62375,17.623"
         inkscape:connector-curvature="0" />
      <path
         id="path48-6"
         style="fill:#d9e70c;fill-opacity:1;fill-rule:nonzero;stroke:none"
         d="m 109.34548,93.408142 5.89029,5.89358 -17.631451,17.616788 -5.88879,-5.89357 17.629951,-17.616798"
         inkscape:connector-curvature="0" />
    </g>
  </g>
  <g
     inkscape:groupmode="layer"
     id="layer13"
     inkscape:label="!"
     style="display:none">
    <flowRoot
       xml:space="preserve"
       id="flowRoot3114"
       style="font-size:64px;font-style:normal;font-variant:normal;font-weight:bold;font-stretch:normal;text-align:start;line-height:125%;letter-spacing:0px;word-spacing:0px;writing-mode:lr-tb;text-anchor:start;fill:#000000;fill-opacity:1;stroke:none;font-family:Cantarell;-inkscape-font-specification:Cantarell Bold"
       transform="matrix(1.9301303,0,0,1.9618105,-58.581325,-105.57398)"><flowRegion
         id="flowRegion3116"><rect
           id="rect3118"
           width="69.826744"
           height="77.014793"
           x="73.934196"
           y="63.427105"
           style="font-size:64px;font-style:normal;font-variant:normal;font-weight:bold;font-stretch:normal;text-align:start;line-height:125%;writing-mode:lr-tb;text-anchor:start;font-family:Cantarell;-inkscape-font-specification:Cantarell Bold" /></flowRegion><flowPara
         id="flowPara3120"
         style="font-size:64px;font-style:normal;font-variant:normal;font-weight:bold;font-stretch:normal;text-align:start;line-height:125%;writing-mode:lr-tb;text-anchor:start;font-family:Cantarell;-inkscape-font-specification:Cantarell Bold">!</flowPara></flowRoot>  </g>
  <g
     inkscape:groupmode="layer"
     id="layer14"
     inkscape:label="leftarrow"
     style="display:none">
    <g
       id="g3902">
      <path
         id="path48-6-8"
         style="fill:#d9e70c;fill-opacity:1;fill-rule:nonzero;stroke:none"
         d="m 150.94013,88.861203 0.28301,24.943927 -74.613541,-0.89844 -0.279822,-24.940695 74.610353,0.895208"
         inkscape:connector-curvature="0" />
      <path
         transform="matrix(0.8328144,0,0,1,44.521946,26.698461)"
         inkscape:transform-center-x="9.3778584"
         d="M 69.756619,112.70306 35.975295,93.199397 2.1939697,73.695738 35.975295,54.192082 69.756622,34.688426 l -2e-6,39.007314 z"
         inkscape:randomized="0"
         inkscape:rounded="0"
         inkscape:flatsided="false"
         sodipodi:arg2="2.0943951"
         sodipodi:arg1="1.0471976"
         sodipodi:r2="22.520884"
         sodipodi:r1="45.041767"
         sodipodi:cy="73.69574"
         sodipodi:cx="47.235737"
         sodipodi:sides="3"
         id="path3900"
         style="fill:#d9e70c;fill-opacity:1"
         sodipodi:type="star" />
    </g>
  </g>
  <g
     inkscape:label="rightarrow"
     id="g3906"
     inkscape:groupmode="layer"
     style="display:none">
    <g
       id="g3908"
       transform="matrix(-1,0,0,-1,203.57226,200.7884)">
      <path
         inkscape:connector-curvature="0"
         d="m 150.94013,88.861203 0.28301,24.943927 -74.613541,-0.89844 -0.279822,-24.940695 74.610353,0.895208"
         style="fill:#d9e70c;fill-opacity:1;fill-rule:nonzero;stroke:none"
         id="path3910" />
      <path
         sodipodi:type="star"
         style="fill:#d9e70c;fill-opacity:1"
         id="path3912"
         sodipodi:sides="3"
         sodipodi:cx="47.235737"
         sodipodi:cy="73.69574"
         sodipodi:r1="45.041767"
         sodipodi:r2="22.520884"
         sodipodi:arg1="1.0471976"
         sodipodi:arg2="2.0943951"
         inkscape:flatsided="false"
         inkscape:rounded="0"
         inkscape:randomized="0"
         d="M 69.756619,112.70306 35.975295,93.199397 2.1939697,73.695738 35.975295,54.192082 69.756622,34.688426 l -2e-6,39.007314 z"
         inkscape:transform-center-x="9.3778584"
         transform="matrix(0.8328144,0,0,1,44.521946,26.698461)" />
    </g>
  </g>
  <g
     inkscape:groupmode="layer"
     id="layer15"
     inkscape:label="approve"
     style="display:none">
    <g
       id="g3958"
       transform="matrix(1.1676719,0,0,1.1676719,-23.086643,-19.768405)"
       inkscape:export-filename="/home/s2e/repo/commotion-dev/project-assets/Commotion UI Graphics/general client resources/approve_point.png"
       inkscape:export-xdpi="22.014597"
       inkscape:export-ydpi="22.014597">
      <path
         id="path48-6-3"
         style="fill:#877aed;fill-opacity:1;fill-rule:nonzero;stroke:none"
         d="M 132.62884,70.187114 148.80996,86.377278 100.37489,134.77203 84.197896,118.5819 132.62884,70.187114"
         inkscape:connector-curvature="0" />
      <path
         id="path48-6-3-3"
         style="fill:#877aed;fill-opacity:1;fill-rule:nonzero;stroke:none"
         d="M 110.1687,124.58072 99.126829,136.13097 66.121061,101.55753 77.162912,90.010221 110.1687,124.58072"
         inkscape:connector-curvature="0" />
      <path
         id="path48-6-3-3-9"
         style="fill:#877aed;fill-opacity:1;fill-rule:nonzero;stroke:none"
         d="m 112.61363,120.31815 -10.69078,11.37488 -31.956318,-34.0485 10.690764,-11.37198 31.956334,34.0456"
         inkscape:connector-curvature="0" />
    </g>
  </g>
</svg>
