<?xml version="1.0" encoding="UTF-8" standalone="no"?>
<!-- Created with Inkscape (http://www.inkscape.org/) -->

<svg
   xmlns:dc="http://purl.org/dc/elements/1.1/"
   xmlns:cc="http://creativecommons.org/ns#"
   xmlns:rdf="http://www.w3.org/1999/02/22-rdf-syntax-ns#"
   xmlns:svg="http://www.w3.org/2000/svg"
   xmlns="http://www.w3.org/2000/svg"
   xmlns:sodipodi="http://sodipodi.sourceforge.net/DTD/sodipodi-0.dtd"
   xmlns:inkscape="http://www.inkscape.org/namespaces/inkscape"
   width="374.83438"
   height="398.32938"
   id="svg2998"
   version="1.1"
   inkscape:version="0.48.3.1 r9886"
   sodipodi:docname="commotion-logo-new.svg"
   inkscape:export-filename="/home/critzo/SparkleShare/oti/Projects/Commotion/Graphics/commotion-logo-new.png"
   inkscape:export-xdpi="320"
   inkscape:export-ydpi="320">
  <defs
     id="defs3000" />
  <sodipodi:namedview
     id="base"
     pagecolor="#ffffff"
     bordercolor="#666666"
     borderopacity="1.0"
     inkscape:pageopacity="0.0"
     inkscape:pageshadow="2"
     inkscape:zoom="0.99999996"
     inkscape:cx="162.6961"
     inkscape:cy="188.48024"
     inkscape:document-units="px"
     inkscape:current-layer="layer2"
     showgrid="false"
     inkscape:window-width="1366"
     inkscape:window-height="721"
     inkscape:window-x="-2"
     inkscape:window-y="24"
     inkscape:window-maximized="1"
     fit-margin-top="0"
     fit-margin-left="0"
     fit-margin-right="0"
     fit-margin-bottom="0" />
  <metadata
     id="metadata3003">
    <rdf:RDF>
      <cc:Work
         rdf:about="">
        <dc:format>image/svg+xml</dc:format>
        <dc:type
           rdf:resource="http://purl.org/dc/dcmitype/StillImage" />
        <dc:title></dc:title>
      </cc:Work>
    </rdf:RDF>
  </metadata>
  <g
     inkscape:groupmode="layer"
     id="layer2"
     inkscape:label="white circle fill">
    <path
       sodipodi:type="arc"
       style="fill:#ffffff;fill-opacity:1"
       id="path2987"
       sodipodi:cx="185"
       sodipodi:cy="179.82936"
       sodipodi:rx="135"
       sodipodi:ry="142.5"
       d="m 320,179.82936 a 135,142.5 0 1 1 -270,0 135,142.5 0 1 1 270,0 z" />
  </g>
  <g
     inkscape:label="Layer 1"
     inkscape:groupmode="layer"
     id="layer1"
     transform="translate(-42.16726,-45.466163)">
    <path
       inkscape:connector-curvature="0"
       id="path36"
       style="fill:none;stroke:#ff6699;stroke-width:41.90302658;stroke-linecap:butt;stroke-linejoin:miter;stroke-miterlimit:10;stroke-opacity:1;stroke-dasharray:none"
       d="m 372.03127,240.88838 c 0,77.61791 -62.80977,140.42768 -140.4134,140.42768 -77.54684,0 -140.499096,-62.80977 -140.499096,-140.42768 0,-77.51827 62.952256,-140.4707 140.499096,-140.4707 77.60363,0 140.4134,62.95243 140.4134,140.4707 z" />
    <path
       inkscape:connector-curvature="0"
       id="path40"
       style="fill:#000000;fill-opacity:1;stroke:#000000;stroke-width:8.322402;stroke-linecap:butt;stroke-linejoin:miter;stroke-miterlimit:4;stroke-opacity:1;stroke-dasharray:none"
       d="m 234.47069,310.11426 -32.56447,0 c -20.79006,0 -35.73001,-2.87745 -44.80688,-8.64663 -9.08557,-5.77049 -13.63887,-17.06804 -13.63887,-33.84421 l 0,-61.89642 c 0,-16.79062 4.39046,-28.07192 13.16611,-33.84257 8.77844,-5.7705 22.48067,-8.66485 41.12508,-8.66485 l 36.71903,0 c 10.01567,0 16.74187,2.5841 20.21503,7.73804 3.46233,5.16821 5.19169,11.96483 5.19169,20.43318 0,6.93894 -2.77174,10.41752 -8.31324,10.41752 -2.15304,0 -4.07905,-0.78137 -5.77952,-2.30816 -1.68963,-1.54141 -2.53535,-4.09531 -2.53535,-7.63873 0,-4.61649 -0.69929,-7.77054 -2.07933,-9.46017 -1.38218,-1.69144 -4.16376,-2.55341 -8.31685,-2.55341 l -35.10146,0 c -14.93716,0 -24.94955,1.54468 -30.03831,4.61813 -5.07038,3.0874 -7.62379,10.32034 -7.62379,21.71539 l 0,60.96929 c 0,11.55937 2.69787,18.8409 8.09639,21.84885 5.37751,2.9917 16.62695,4.48714 33.72027,4.48714 l 30.9469,0 c 4.15309,0 6.93369,-0.83062 8.31685,-2.51976 1.37889,-1.69144 2.07933,-4.8619 2.07933,-9.49399 0,-3.52569 0.84539,-6.06088 2.53535,-7.60852 1.70047,-1.5414 3.62648,-2.3062 5.77952,-2.3062 5.5415,0 8.31324,3.54523 8.31324,10.62895 0,8.47115 -1.72936,15.2484 -5.19169,20.31943 -3.47316,5.08647 -10.19936,7.6077 -20.21503,7.6077 z" />
    <path
       inkscape:connector-curvature="0"
       id="path44"
       style="fill:none;stroke:#000000;stroke-width:20.80609131;stroke-linecap:butt;stroke-linejoin:miter;stroke-miterlimit:10;stroke-opacity:0;stroke-dasharray:none"
       d="m 406.59859,405.32057 c 0,15.50727 -12.54741,28.07191 -28.05566,28.07191 -15.50661,0 -28.07733,-12.56464 -28.07733,-28.07191 0,-15.52286 12.57072,-28.07208 28.07733,-28.07208 15.50825,0 28.05566,12.54922 28.05566,28.07208 z" />
    <path
       inkscape:connector-curvature="0"
       id="path44-0"
       style="fill:none;stroke:#000000;stroke-width:20.80609131;stroke-linecap:butt;stroke-linejoin:miter;stroke-miterlimit:10;stroke-opacity:1;stroke-dasharray:none"
       d="m 324.28226,240.27625 c 0,15.50726 -12.54724,28.07191 -28.05566,28.07191 -15.50661,0 -28.07733,-12.56465 -28.07733,-28.07191 0,-15.5227 12.57072,-28.07192 28.07733,-28.07192 15.50842,0 28.05566,12.54922 28.05566,28.07192 z" />
  </g>
</svg>
