<?xml version="1.0" encoding="UTF-8" standalone="no"?>
<!-- Created with Inkscape (http://www.inkscape.org/) -->

<svg
   xmlns:dc="http://purl.org/dc/elements/1.1/"
   xmlns:cc="http://creativecommons.org/ns#"
   xmlns:rdf="http://www.w3.org/1999/02/22-rdf-syntax-ns#"
   xmlns:svg="http://www.w3.org/2000/svg"
   xmlns="http://www.w3.org/2000/svg"
   xmlns:sodipodi="http://sodipodi.sourceforge.net/DTD/sodipodi-0.dtd"
   xmlns:inkscape="http://www.inkscape.org/namespaces/inkscape"
   id="svg2"
   version="1.1"
   inkscape:version="0.48.3.1 r9886"
   width="486.425"
   height="73.45"
   xml:space="preserve"
   sodipodi:docname="action_icons.eps"><metadata
     id="metadata8"><rdf:RDF><cc:Work
         rdf:about=""><dc:format>image/svg+xml</dc:format><dc:type
           rdf:resource="http://purl.org/dc/dcmitype/StillImage" /><dc:title></dc:title></cc:Work></rdf:RDF></metadata><defs
     id="defs6"><clipPath
       clipPathUnits="userSpaceOnUse"
       id="clipPath18"><path
         d="m 0,0 3891,0 0,587.59 -3891,0 L 0,0 z"
         id="path20" /></clipPath></defs><sodipodi:namedview
     pagecolor="#ffffff"
     bordercolor="#666666"
     borderopacity="1"
     objecttolerance="10"
     gridtolerance="10"
     guidetolerance="10"
     inkscape:pageopacity="0"
     inkscape:pageshadow="2"
     inkscape:window-width="640"
     inkscape:window-height="480"
     id="namedview4"
     showgrid="false"
     inkscape:zoom="0.73392611"
     inkscape:cx="243.21249"
     inkscape:cy="36.724998"
     inkscape:window-x="1798"
     inkscape:window-y="283"
     inkscape:window-maximized="0"
     inkscape:current-layer="g10" /><g
     id="g10"
     inkscape:groupmode="layer"
     inkscape:label="ink_ext_XXXXXX"
     transform="matrix(1.25,0,0,-1.25,0,73.45)"><g
       id="g12"
       transform="scale(0.1,0.1)"><g
         id="g14"><g
           id="g16"
           clip-path="url(#clipPath18)"><path
             d="m 1032.87,293.801 c 0,-43.418 -35.198,-78.633 -78.628,-78.633 -43.398,0 -78.617,35.215 -78.617,78.633 0,43.406 35.219,78.621 78.617,78.621 43.43,0 78.628,-35.215 78.628,-78.621"
             style="fill:#73cfad;fill-opacity:1;fill-rule:nonzero;stroke:none"
             id="path22" /><path
             d="m 1615.21,399.727 -75.03,-105.938 75.03,-105.906 74.11,105.906 -74.11,105.938"
             style="fill:#f24e9c;fill-opacity:1;fill-rule:nonzero;stroke:none"
             id="path24" /><path
             d="m 393.184,291.711 -20.821,0 c -0.008,-21.789 -8.758,-41.32 -23.015,-55.606 -14.305,-14.269 -33.821,-23.031 -55.594,-23.039 -21.766,0.008 -41.277,8.758 -55.578,23.039 -14.262,14.286 -23.012,33.817 -23.02,55.606 0.008,21.758 8.758,41.285 23.02,55.574 14.301,14.27 33.812,23.02 55.578,23.027 21.773,-0.007 41.289,-8.757 55.594,-23.027 14.257,-14.289 23.007,-33.816 23.015,-55.574 l 41.641,0 c -0.02,66.394 -53.828,120.223 -120.25,120.242 -66.418,-0.019 -120.219,-53.848 -120.238,-120.242 0.019,-66.43 53.82,-120.266 120.238,-120.285 66.422,0.019 120.23,53.855 120.25,120.285 l -20.82,0"
             style="fill:#79d3f6;fill-opacity:1;fill-rule:nonzero;stroke:none"
             id="path26" /><path
             d="m 332.129,291.711 -20.82,0 c -0.008,-4.926 -1.93,-9.191 -5.137,-12.434 -3.242,-3.203 -7.5,-5.129 -12.422,-5.136 -4.91,0.007 -9.148,1.914 -12.379,5.129 -3.203,3.242 -5.133,7.507 -5.141,12.441 0.008,9.676 7.829,17.508 17.52,17.519 9.73,-0.011 17.551,-7.863 17.559,-17.519 l 41.64,0 c -0.011,32.676 -26.5,59.148 -59.199,59.156 -32.691,-0.008 -59.148,-26.492 -59.16,-59.156 0.012,-32.68 26.449,-59.191 59.16,-59.211 32.719,0.012 59.188,26.523 59.199,59.211 l -20.82,0"
             style="fill:#79d3f6;fill-opacity:1;fill-rule:nonzero;stroke:none"
             id="path28" /><path
             d="m 1199.96,293.789 -48.05,0 c -0.03,-54.766 -22.03,-103.894 -57.84,-139.824 -35.89,-35.828 -84.96,-57.8439 -139.711,-57.8595 -54.757,0.0156 -103.894,22.0315 -139.839,57.8865 -35.86,35.93 -57.887,85.039 -57.918,139.797 0.031,54.844 22.058,103.945 57.91,139.856 35.933,35.82 85.066,57.82 139.847,57.851 54.771,-0.031 103.841,-22.023 139.721,-57.836 35.79,-35.887 57.8,-85 57.83,-139.871 l 96.1,0 c 0.03,81.016 -32.9,154.785 -85.97,207.813 -52.99,53.086 -126.72,86.015 -207.681,85.988 C 873.395,587.617 799.633,554.699 746.594,501.613 693.473,448.621 660.484,374.855 660.512,293.789 660.484,212.805 693.48,139.043 746.582,86.0352 799.613,32.9492 873.375,-0.0273438 954.359,0 c 80.981,-0.0273438 154.711,32.9492 207.691,86.0547 53.06,53.0153 85.99,126.7653 85.96,207.7343 l -48.05,0"
             style="fill:#f24e9c;fill-opacity:1;fill-rule:nonzero;stroke:none"
             id="path30" /><path
             d="m 539.473,293.789 -48.047,0 C 491.391,239.023 469.395,189.895 433.594,153.965 397.703,118.137 348.645,96.1211 293.871,96.1055 239.117,96.1211 189.965,118.152 154.023,153.992 c -35.871,35.93 -57.9019,85.051 -57.9292,139.797 0.0273,54.844 22.0702,103.945 57.9222,139.844 35.941,35.832 85.078,57.832 139.855,57.863 54.789,-0.031 103.856,-22.023 139.723,-57.836 35.801,-35.887 57.797,-85 57.832,-139.871 l 96.097,0 c 0.032,81.016 -32.89,154.785 -85.961,207.805 C 448.574,554.688 374.836,587.617 293.871,587.59 212.906,587.617 139.137,554.699 86.0938,501.621 32.9727,448.621 -0.0234375,374.855 0.00390625,293.789 -0.0234375,212.793 32.9844,139.043 86.0859,86.0352 139.125,32.9492 212.887,-0.0273438 293.871,0 374.855,-0.0273438 448.594,32.9492 501.57,86.0547 554.633,139.07 587.555,212.82 587.523,293.789 l -48.05,0"
             style="fill:#f24e9c;fill-opacity:1;fill-rule:nonzero;stroke:none"
             id="path32" /><path
             d="m 1860.47,293.789 -48.05,0 c -0.03,-54.766 -22.03,-103.894 -57.84,-139.824 -35.89,-35.828 -84.96,-57.8439 -139.72,-57.8595 -54.75,0.0156 -103.9,22.0465 -139.85,57.8865 -35.87,35.942 -57.91,85.051 -57.94,139.797 0.03,54.844 22.07,103.926 57.93,139.844 35.94,35.832 85.09,57.832 139.86,57.863 54.78,-0.031 103.85,-22.023 139.73,-57.836 35.79,-35.887 57.8,-85 57.83,-139.871 l 96.1,0 c 0.03,81.016 -32.9,154.785 -85.97,207.813 -52.99,53.086 -126.72,86.015 -207.69,85.988 -80.96,0.027 -154.73,-32.891 -207.78,-85.969 -53.12,-53 -86.13,-126.766 -86.1,-207.832 -0.03,-80.996 32.98,-154.758 86.09,-207.7656 53.04,-53.082 126.81,-86.0507438 207.79,-86.0234 80.99,-0.0273438 154.72,32.9492 207.7,86.0547 53.06,53.0153 85.99,126.7653 85.96,207.7343 l -48.05,0"
             style="fill:#f24e9c;fill-opacity:1;fill-rule:nonzero;stroke:none"
             id="path34" /><path
             d="m 3182.87,293.789 -48.05,0 c -0.03,-54.766 -22.03,-103.894 -57.83,-139.824 -35.89,-35.828 -84.95,-57.8439 -139.72,-57.8595 -54.78,0.0156 -103.91,22.0465 -139.85,57.8865 -35.85,35.93 -57.88,85.039 -57.91,139.797 0.03,54.856 22.06,103.945 57.91,139.856 35.92,35.82 85.05,57.82 139.85,57.851 54.79,-0.031 103.85,-22.023 139.72,-57.836 35.8,-35.887 57.8,-85 57.83,-139.871 l 96.1,0 c 0.04,81.016 -32.89,154.785 -85.96,207.805 -52.99,53.094 -126.73,86.023 -207.69,85.996 -80.96,0.027 -154.73,-32.891 -207.78,-85.977 -53.12,-53 -86.09,-126.758 -86.07,-207.824 -0.02,-80.984 32.95,-154.746 86.06,-207.7538 53.04,-53.086 126.81,-86.0625438 207.79,-86.0352 80.98,-0.0273438 154.72,32.9492 207.7,86.0547 53.06,53.0153 85.99,126.7653 85.95,207.7343 l -48.05,0"
             style="fill:#f24e9c;fill-opacity:1;fill-rule:nonzero;stroke:none"
             id="path36" /><path
             d="m 2522.4,293.789 -48.04,0 c -0.03,-54.766 -22.04,-103.894 -57.85,-139.824 -35.88,-35.828 -84.96,-57.8439 -139.71,-57.8595 -54.78,0.0156 -103.91,22.0465 -139.87,57.8865 -35.87,35.93 -57.9,85.051 -57.93,139.797 0.03,54.844 22.07,103.945 57.92,139.844 35.95,35.832 85.08,57.832 139.88,57.863 54.77,-0.031 103.84,-22.023 139.72,-57.836 35.79,-35.887 57.81,-85 57.84,-139.871 l 96.09,0 c 0.04,81.016 -32.89,154.785 -85.97,207.813 -52.99,53.086 -126.72,86.015 -207.68,85.988 -80.96,0.027 -154.75,-32.891 -207.8,-85.969 -53.12,-53 -86.11,-126.766 -86.09,-207.832 -0.02,-80.996 32.99,-154.746 86.08,-207.7656 C 2122.03,32.9414 2195.82,-0.0273438 2276.8,0 c 80.98,-0.0273438 154.71,32.9492 207.69,86.0547 53.07,53.0153 86,126.7653 85.96,207.7343 l -48.05,0"
             style="fill:#f24e9c;fill-opacity:1;fill-rule:nonzero;stroke:none"
             id="path38" /><path
             d="m 3843.38,293.789 -48.05,0 c -0.04,-54.766 -22.03,-103.894 -57.84,-139.824 -35.89,-35.828 -84.96,-57.8439 -139.72,-57.8595 -54.77,0.0156 -103.91,22.0465 -139.85,57.8865 -35.86,35.93 -57.89,85.039 -57.92,139.797 0.03,54.844 22.06,103.945 57.92,139.856 35.93,35.82 85.06,57.82 139.85,57.851 54.78,-0.031 103.85,-22.023 139.73,-57.836 35.79,-35.887 57.79,-85 57.83,-139.871 l 96.1,0 c 0.03,81.016 -32.89,154.785 -85.97,207.813 -52.99,53.086 -126.72,86.015 -207.69,85.988 -80.95,0.027 -154.74,-32.891 -207.78,-85.969 -53.11,-53 -86.1,-126.766 -86.08,-207.832 -0.02,-80.984 32.97,-154.746 86.07,-207.7538 C 3443.02,32.9414 3516.8,-0.0273438 3597.77,0 c 80.99,-0.0273438 154.72,32.9492 207.7,86.0547 53.07,53.0153 85.99,126.7653 85.96,207.7343 l -48.05,0"
             style="fill:#f24e9c;fill-opacity:1;fill-rule:nonzero;stroke:none"
             id="path40" /><path
             d="m 2837.49,308.203 199.391,0 0,66.6602 -199.391,0 0,-66.6602 z"
             style="fill:#bebb21;fill-opacity:1;fill-rule:nonzero;stroke:none"
             id="path42" /><path
             d="m 2837.49,208.516 199.391,0 0,66.6602 -199.391,0 0,-66.6602 z"
             style="fill:#bebb21;fill-opacity:1;fill-rule:nonzero;stroke:none"
             id="path44" /><path
             d="m 2229.77,185.547 -47.15,47.129 140.99,140.996 47.13,-47.141 -140.97,-140.984"
             style="fill:#d9e70c;fill-opacity:1;fill-rule:nonzero;stroke:none"
             id="path46" /><path
             d="m 2370.74,232.676 -47.13,-47.141 -140.99,140.996 47.13,47.129 140.99,-140.984"
             style="fill:#d9e70c;fill-opacity:1;fill-rule:nonzero;stroke:none"
             id="path48" /><path
             d="m 3557.13,166.086 40.62,40.66 40.45,-40.445 0,206.387 -40.45,40.425 -40.62,-40.64 0,-206.387"
             style="fill:#7b6dbd;fill-opacity:1;fill-rule:nonzero;stroke:none"
             id="path50" /></g></g></g></g></svg>