<?xml version="1.0" encoding="UTF-8" standalone="no"?>
<!DOCTYPE svg PUBLIC "-//W3C//DTD SVG 20010904//EN"
              "http://www.w3.org/TR/2001/REC-SVG-20010904/DTD/svg10.dtd">

<svg xmlns="http://www.w3.org/2000/svg"
     width="6.84697in" height="2.02601in"
     viewBox="0 0 1024 303">
  <path id="Selection"
        fill="none" stroke="black" stroke-width="1"
        d="M 49.00,196.00
           C 48.98,206.87 47.59,216.62 38.00,223.35
             26.88,231.16 10.03,227.34 2.99,216.00
             0.02,211.21 0.01,207.39 0.00,202.00
             0.00,202.00 0.00,25.00 0.00,25.00
             0.03,7.95 9.25,-0.21 26.00,0.00
             38.16,0.16 42.26,6.00 48.88,15.00
             48.88,15.00 60.42,31.00 60.42,31.00
             60.42,31.00 101.58,88.00 101.58,88.00
             101.58,88.00 131.00,128.00 131.00,128.00
             134.12,121.64 140.28,114.01 144.58,108.00
             144.58,108.00 172.00,70.00 172.00,70.00
             172.00,70.00 198.00,34.00 198.00,34.00
             203.80,25.86 215.98,6.78 224.00,2.41
             235.85,-4.03 252.32,1.10 258.56,13.00
             260.92,17.49 260.99,22.08 261.00,27.00
             261.00,27.00 261.00,201.00 261.00,201.00
             260.99,208.41 260.42,212.92 255.32,218.89
             245.81,229.84 226.91,230.49 217.53,218.89
             212.61,212.92 212.01,207.43 212.00,200.00
             212.00,200.00 212.00,133.00 212.00,133.00
             212.00,125.09 212.85,105.52 211.00,99.00
             208.26,106.04 193.67,124.65 188.42,132.00
             188.42,132.00 164.71,165.00 164.71,165.00
             160.90,170.34 152.15,182.89 147.96,186.91
             140.77,193.79 130.35,195.80 121.00,192.45
             110.29,188.62 102.76,175.08 96.29,166.00
             96.29,166.00 49.00,100.00 49.00,100.00
             49.00,100.00 49.00,196.00 49.00,196.00 Z
           M 483.00,254.00
           C 491.80,254.01 501.23,255.36 507.53,262.18
             516.93,272.37 516.06,289.64 504.91,298.21
             499.26,302.56 494.78,302.99 488.00,303.00
             488.00,303.00 349.00,303.00 349.00,303.00
             332.23,302.97 324.03,293.42 324.00,277.00
             324.00,277.00 324.00,26.00 324.00,26.00
             324.01,18.60 324.93,12.81 330.21,7.09
             339.94,-3.45 359.45,-2.46 368.06,9.04
             372.37,14.79 372.99,20.11 373.00,27.00
             373.00,27.00 373.00,254.00 373.00,254.00
             373.00,254.00 483.00,254.00 483.00,254.00 Z
           M 684.03,11.00
           C 686.37,14.62 689.40,23.57 691.05,28.00
             691.05,28.00 700.05,52.00 700.05,52.00
             700.05,52.00 767.58,232.00 767.58,232.00
             767.58,232.00 772.42,245.00 772.42,245.00
             778.59,261.33 791.70,284.57 773.98,298.47
             771.64,300.31 768.91,301.78 766.00,302.47
             763.54,303.06 760.54,303.02 758.00,303.00
             738.99,302.80 735.74,287.67 730.32,273.00
             730.32,273.00 722.68,253.00 722.68,253.00
             721.18,248.93 716.87,234.99 713.73,233.02
             711.76,231.79 708.28,232.00 706.00,232.00
             706.00,232.00 620.00,232.00 620.00,232.00
             617.66,232.00 614.26,231.80 612.22,233.02
             608.75,235.11 604.30,249.62 602.68,254.00
             602.68,254.00 593.60,278.00 593.60,278.00
             587.34,293.78 584.54,303.25 565.00,303.00
             550.97,302.81 541.14,290.74 542.18,277.00
             542.69,270.32 548.03,257.74 550.58,251.00
             550.58,251.00 565.95,210.00 565.95,210.00
             565.95,210.00 620.68,64.00 620.68,64.00
             620.68,64.00 634.58,27.00 634.58,27.00
             639.47,14.02 641.83,4.08 657.00,0.47
             667.95,-1.06 677.65,1.13 684.03,11.00 Z
           M 1005.76,154.00
           C 1034.02,190.93 1029.32,245.76 996.00,277.96
             981.25,292.21 957.68,302.97 937.00,303.00
             937.00,303.00 901.00,303.00 901.00,303.00
             901.00,303.00 852.00,303.00 852.00,303.00
             836.33,302.81 829.02,291.59 829.00,277.00
             829.00,277.00 829.00,64.00 829.00,64.00
             829.00,64.00 829.00,33.00 829.00,33.00
             829.00,27.57 828.52,20.03 830.25,15.00
             834.10,3.81 843.09,0.02 854.00,0.00
             854.00,0.00 921.00,0.00 921.00,0.00
             931.00,0.12 942.07,3.36 951.00,7.76
             998.69,31.25 1010.85,89.43 981.00,132.00
             990.26,135.93 999.70,146.08 1005.76,154.00 Z
           M 900.00,117.00
           C 913.87,117.00 927.30,117.85 937.91,106.96
             959.17,85.12 945.56,49.05 914.00,49.00
             914.00,49.00 878.00,49.00 878.00,49.00
             878.00,49.00 878.00,117.00 878.00,117.00
             878.00,117.00 900.00,117.00 900.00,117.00 Z
           M 649.58,127.00
           C 649.58,127.00 629.00,183.00 629.00,183.00
             629.00,183.00 697.00,183.00 697.00,183.00
             697.00,183.00 663.00,93.00 663.00,93.00
             663.00,93.00 649.58,127.00 649.58,127.00 Z
           M 932.00,254.00
           C 970.50,253.94 989.68,206.23 962.83,179.17
             948.77,165.00 934.11,166.00 916.00,166.00
             916.00,166.00 878.00,166.00 878.00,166.00
             878.00,166.00 878.00,254.00 878.00,254.00
             878.00,254.00 932.00,254.00 932.00,254.00 Z
           M 261.00,254.00
           C 261.00,254.00 261.00,303.00 261.00,303.00
             261.00,303.00 0.00,303.00 0.00,303.00
             0.00,303.00 0.00,254.00 0.00,254.00
             0.00,254.00 261.00,254.00 261.00,254.00 Z" />
</svg>
