<svg xmlns="http://www.w3.org/2000/svg" xmlns:xlink="http://www.w3.org/1999/xlink" version="1.1" id="Your_Icon" x="0px" y="0px" width="100px" height="100px" viewBox="0 0 100 100" enable-background="new 0 0 100 100" xml:space="preserve">
<path d="M65.665,98.257C39.447,99.045,11.181,78.43,2.532,52.211C-6.12,25.996,8.117,4.105,34.335,3.317  c11.734-0.351,23.844,3.65,34.455,10.459L44.974,46.855c-1.642,2.279-1.123,5.466,1.142,7.096c0.873,0.635,1.904,0.971,2.984,0.971  c1.636,0,3.18-0.791,4.136-2.118l23.743-32.973c9.316,7.959,16.751,18.204,20.489,29.536C106.12,75.585,91.883,97.473,65.665,98.257  z M78.046,12.998l-27.347,37.98c-0.385,0.535-0.986,0.818-1.6,0.818c-0.396,0-0.797-0.118-1.145-0.372  c-0.882-0.635-1.08-1.862-0.445-2.744l27.39-38.041C75.626,11.811,76.743,12.666,78.046,12.998z M79.252,1.722  c-2.899,0-5.246,2.563-5.246,5.722c0,1.184,0.329,2.283,0.894,3.195c0.727,1.172,1.844,2.026,3.146,2.359  c0.391,0.101,0.791,0.165,1.206,0.165c2.896,0,5.243-2.557,5.243-5.719C84.495,4.285,82.147,1.722,79.252,1.722z"/>
</svg>