<svg xmlns="http://www.w3.org/2000/svg" xmlns:xlink="http://www.w3.org/1999/xlink" version="1.1" id="Layer_1" x="0px" y="0px" viewBox="0 0 90 90" enable-background="new 0 0 90 90" xml:space="preserve" height="100px" width="100px">
<g>
	<path d="M71,41.5H36.5c-1.3,0-2.4,1.1-2.4,2.4c0,1.3,1.1,2.4,2.4,2.4H71c1.3,0,2.4-1.1,2.4-2.4C73.3,42.6,72.3,41.5,71,41.5z"/>
	<circle cx="20.3" cy="29" r="2.8"/>
	<circle cx="20.3" cy="58.7" r="2.8"/>
	<circle cx="20.3" cy="43.9" r="2.8"/>
	<path d="M71,26.7H36.5c-1.3,0-2.4,1.1-2.4,2.4c0,1.3,1.1,2.4,2.4,2.4H71c1.3,0,2.4-1.1,2.4-2.4C73.3,27.7,72.3,26.7,71,26.7z"/>
	<path d="M71,56.3H36.5c-1.3,0-2.4,1.1-2.4,2.4c0,1.3,1.1,2.4,2.4,2.4H71c1.3,0,2.4-1.1,2.4-2.4C73.3,57.4,72.3,56.3,71,56.3z"/>
	<circle cx="20.3" cy="14.2" r="2.8"/>
	<path d="M76,6H12.7c-1.4,0-2.5,1.1-2.5,2.5v72.2c0,1.4,1.1,2.5,2.5,2.5h2.6c0,0.1,0,0.2,0,0.3c0,1,0.8,1.9,1.9,1.9h5.1   c1,0,1.9-0.8,1.9-1.9c0-0.1,0-0.2,0-0.3h40.4c0,0.1,0,0.2,0,0.3c0,1,0.8,1.9,1.9,1.9h5.1c1,0,1.9-0.8,1.9-1.9c0-0.1,0-0.2,0-0.3H76   c1.4,0,2.5-1.1,2.5-2.5V8.6C78.5,7.2,77.4,6,76,6z M76.3,62.5c0,1.4-1.1,2.5-2.5,2.5H14.4c-1.4,0-2.5-1.1-2.5-2.5v-7.6   c0-1.4,1.1-2.5,2.5-2.5h59.4c1.4,0,2.5,1.1,2.5,2.5V62.5z M76.3,47.7c0,1.4-1.1,2.5-2.5,2.5H14.4c-1.4,0-2.5-1.1-2.5-2.5v-7.6   c0-1.4,1.1-2.5,2.5-2.5h59.4c1.4,0,2.5,1.1,2.5,2.5V47.7z M76.3,32.9c0,1.4-1.1,2.5-2.5,2.5H14.4c-1.4,0-2.5-1.1-2.5-2.5v-7.6   c0-1.4,1.1-2.5,2.5-2.5h59.4c1.4,0,2.5,1.1,2.5,2.5V32.9z M76.3,18c0,1.4-1.1,2.5-2.5,2.5H14.4c-1.4,0-2.5-1.1-2.5-2.5v-7.6   c0-1.4,1.1-2.5,2.5-2.5h59.4c1.4,0,2.5,1.1,2.5,2.5V18z"/>
	<path d="M71,11.8H36.5c-1.3,0-2.4,1.1-2.4,2.4c0,1.3,1.1,2.4,2.4,2.4H71c1.3,0,2.4-1.1,2.4-2.4C73.3,12.9,72.3,11.8,71,11.8z"/>
</g>
</svg>